<?xml version="1.0" encoding="UTF-8"?>
<svg width="44px" height="49px" viewBox="0 0 44 49" version="1.1" xmlns="http://www.w3.org/2000/svg" xmlns:xlink="http://www.w3.org/1999/xlink">
    <!-- Generator: Sketch 52.5 (67469) - http://www.bohemiancoding.com/sketch -->
    <title>Rocket</title>
    <desc>Created with Sketch.</desc>
    <g id="Page-1" stroke="none" stroke-width="1" fill="none" fill-rule="evenodd">
        <g id="Desktop-HD-Copy-2" transform="translate(-22.000000, -21.000000)" fill="#FFFFFF">
            <g id="Group-2">
                <g id="Logo-Inverse" transform="translate(22.000000, 21.000000)">
                    <path d="M27.6455602,43.8952164 C27.804196,44.0362171 27.9214454,44.224939 27.9738715,44.4429136 L28.6924832,47.4307273 C28.8302425,48.0034973 28.4775966,48.5794953 27.9048266,48.7172546 C27.8231364,48.7369023 27.7394109,48.7468293 27.6553912,48.7468293 L17.2449597,48.7468293 C16.655856,48.7468293 16.1782931,48.2692664 16.1782931,47.6801626 C16.1782931,47.5961429 16.1882201,47.5124174 16.2078678,47.4307273 L16.9264795,44.4429136 C16.9789055,44.224939 17.0961549,44.0362171 17.2547908,43.8952164 L1.81239589,43.8952164 C1.81092767,43.8952164 1.80945944,43.895214 1.80799122,43.8952091 C1.07161557,43.8927765 0.476637199,43.293854 0.479069837,42.5574784 L0.517155527,31.0286835 L5.01779202,29.8322127 L4.90627231,38.5360366 C4.90618861,38.5425694 4.90615292,38.5491026 4.90616525,38.5556358 C4.90755532,39.2920142 5.50563479,39.8878399 6.24201315,39.8864498 L37.8493581,39.8267844 C37.8520707,39.8267793 37.8547833,39.8267659 37.8574958,39.8267442 C38.593852,39.8208599 39.1860163,39.219155 39.180132,38.4827989 L39.0387283,20.787924 L43.4790623,19.6074843 L43.4790623,42.5618831 C43.4790623,43.2982627 42.8821087,43.8952164 42.145729,43.8952164 L27.6455602,43.8952164 Z M26.3091629,28.1442328 L25.3379535,32.5823381 C25.1707488,33.1392665 24.9935259,33.6968603 24.8047339,34.2548124 C22.919463,34.2548124 21.0342568,34.2548124 19.1490505,34.2548124 C18.9601938,33.6968603 18.782971,33.1392665 18.6157662,32.5823381 L17.644548,28.1441921 C17.7828802,30.5865178 17.4739338,33.2581024 16.6573528,35.9468293 C15.9032599,35.9468293 15.1491671,35.9468293 14.3950742,35.9468293 C12.649825,30.2005598 13.2233486,24.5325883 15.5261755,21.013496 C16.0564862,21.8238698 16.4950864,22.7481954 16.8347817,23.7611884 C15.9004332,14.735123 17.8017432,6.47302325 21.9768599,0.746829301 C26.1519138,6.47302112 28.0532787,14.7351627 27.1189386,23.7611856 C27.4586364,22.7481937 27.8972396,21.823869 28.4275538,21.013496 C30.7303984,24.5325883 31.3038505,30.2005598 29.5586638,35.9468293 C28.8045652,35.9468293 28.0504666,35.9468293 27.2963679,35.9468293 C26.4797852,33.2581173 26.1708353,30.5865475 26.3091629,28.1442328 Z M21.9768565,14.613496 C23.1643905,14.613496 24.1270771,13.6583701 24.1270771,12.4801626 C24.1270771,11.3019552 23.1643905,10.3468293 21.9768565,10.3468293 C20.7893224,10.3468293 19.8266359,11.3019552 19.8266359,12.4801626 C19.8266359,13.6583701 20.7893224,14.613496 21.9768565,14.613496 Z" id="Rocket" transform="translate(21.979062, 24.746829) rotate(-360.000000) translate(-21.979062, -24.746829) "></path>
                </g>
            </g>
        </g>
    </g>
</svg>