<svg id="svg" version="1.1" width="400" height="391" xmlns="http://www.w3.org/2000/svg" xmlns:xlink="http://www.w3.org/1999/xlink">
<g id="svgg">
<path id="path0" d="M152.864 4.718 C 117.986 4.960,109.005 5.289,108.120 6.355 C 107.336 7.300,106.938 30.296,106.756 85.095 L 106.500 162.500 55.591 162.759 C 0.102 163.042,2.000 162.819,2.000 169.041 C 2.000 174.289,2.688 175.644,6.571 178.044 C 8.427 179.191,10.899 181.828,12.066 183.904 C 13.234 185.981,15.609 188.513,17.344 189.531 C 20.539 191.405,28.449 198.468,32.364 202.942 C 36.192 207.318,41.332 211.842,43.943 213.135 C 47.595 214.943,53.000 220.136,53.000 221.836 C 53.000 222.629,54.350 225.473,56.000 228.154 C 58.065 231.510,59.000 234.320,59.000 237.169 C 59.000 246.798,70.416 260.565,83.434 266.635 C 86.220 267.934,89.175 269.413,90.000 269.921 C 103.358 278.150,110.676 279.443,113.473 274.068 C 114.208 272.656,115.978 270.409,117.405 269.076 C 118.832 267.742,120.007 265.717,120.015 264.576 C 120.030 262.402,122.397 254.995,124.085 251.841 C 124.627 250.829,126.067 249.984,127.285 249.965 C 128.503 249.945,130.618 249.310,131.984 248.554 C 133.401 247.770,135.118 247.514,135.984 247.958 C 136.818 248.386,141.524 249.051,146.442 249.436 C 155.259 250.126,155.443 250.194,159.534 254.318 C 161.816 256.618,166.449 260.951,169.829 263.946 C 173.752 267.422,176.387 270.677,177.116 272.946 C 177.744 274.901,180.450 281.088,183.129 286.696 C 185.808 292.304,188.000 297.582,188.000 298.425 C 188.000 299.268,190.253 302.187,193.007 304.912 C 195.761 307.637,198.862 311.845,199.898 314.262 C 200.934 316.680,203.744 320.332,206.141 322.379 C 209.755 325.464,210.622 326.904,211.212 330.800 C 212.875 341.768,213.406 343.630,216.141 348.074 C 217.722 350.644,219.513 354.266,220.120 356.123 C 223.002 364.937,224.817 367.445,229.728 369.401 C 232.352 370.447,235.175 371.845,236.000 372.509 C 236.825 373.173,239.072 374.245,240.994 374.891 C 242.915 375.537,246.164 377.228,248.214 378.648 C 251.084 380.637,253.152 381.226,257.220 381.212 C 263.672 381.190,267.482 382.490,271.785 386.181 C 275.975 389.777,277.416 389.723,283.511 385.742 C 290.526 381.162,290.796 374.274,284.770 353.707 C 281.588 342.848,282.452 335.706,288.398 323.744 C 292.781 314.925,301.476 304.000,304.112 304.000 C 304.536 304.000,307.414 301.786,310.506 299.080 C 313.598 296.374,318.220 293.177,320.776 291.975 C 330.549 287.381,356.743 267.979,359.706 263.138 C 361.567 260.098,376.543 253.000,381.097 253.000 C 385.340 253.000,386.852 250.530,385.618 245.614 C 385.232 244.077,385.572 242.770,386.576 241.937 C 389.783 239.276,390.867 235.418,390.804 226.893 C 390.753 220.067,391.166 217.595,392.936 214.125 C 396.306 207.519,396.925 196.742,394.149 192.988 C 392.967 191.389,392.000 189.400,392.000 188.567 C 392.000 187.735,391.141 185.129,390.091 182.777 C 389.041 180.425,387.595 176.516,386.879 174.091 C 386.162 171.666,384.658 168.829,383.537 167.786 C 381.607 165.989,381.474 164.431,381.000 137.993 C 380.442 106.852,380.808 108.246,372.882 107.054 C 365.752 105.983,356.436 101.969,351.544 97.862 C 347.181 94.199,346.844 94.158,329.982 95.228 C 324.085 95.602,318.378 96.625,314.982 97.915 C 308.239 100.478,307.861 100.482,305.000 98.000 C 303.732 96.900,302.200 95.965,301.597 95.923 C 300.994 95.881,298.925 95.655,297.000 95.421 C 292.520 94.876,290.853 94.898,283.293 95.598 C 278.536 96.039,276.556 95.803,274.820 94.587 C 272.106 92.686,267.885 92.522,266.130 94.250 C 264.858 95.503,260.878 92.135,259.797 88.890 C 259.509 88.028,256.253 87.577,249.171 87.418 C 234.571 87.092,229.961 85.779,225.970 80.813 L 222.723 76.773 217.040 77.416 C 211.801 78.009,211.126 77.847,208.428 75.347 L 205.500 72.635 205.000 39.866 C 204.687 19.366,204.114 6.711,203.469 6.067 C 201.863 4.464,199.284 4.395,152.864 4.718 " stroke="none" fill="#000000" fill-rule="evenodd">
</path>
</g>
</svg>
