<?xml version="1.0" encoding="UTF-8"?>
<svg width="553px" height="615px" viewBox="0 0 553 615" version="1.1" xmlns="http://www.w3.org/2000/svg" xmlns:xlink="http://www.w3.org/1999/xlink">
    <!-- Generator: Sketch 52.5 (67469) - http://www.bohemiancoding.com/sketch -->
    <title>developer</title>
    <desc>Created with Sketch.</desc>
    <defs>
        <linearGradient x1="87.3205726%" y1="2.70387555%" x2="12.4344992%" y2="100.500718%" id="linearGradient-1">
            <stop stop-color="#FFFFFF" offset="0%"></stop>
            <stop stop-color="#383938" offset="100%"></stop>
        </linearGradient>
        <linearGradient x1="0%" y1="50.0139211%" x2="100.026462%" y2="50.0139211%" id="linearGradient-2">
            <stop stop-color="#818181" offset="0%"></stop>
            <stop stop-color="#D7D6D6" offset="100%"></stop>
        </linearGradient>
        <linearGradient x1="1.12316576e-13%" y1="50.0046395%" x2="110.215372%" y2="50.0046395%" id="linearGradient-3">
            <stop stop-color="#818181" offset="0%"></stop>
            <stop stop-color="#D7D6D6" offset="100%"></stop>
        </linearGradient>
        <linearGradient x1="1.12654884%" y1="48.3200972%" x2="100.403184%" y2="51.534075%" id="linearGradient-4">
            <stop stop-color="#818181" offset="0%"></stop>
            <stop stop-color="#D7D6D6" offset="100%"></stop>
        </linearGradient>
        <linearGradient x1="-0.0160547078%" y1="48.1202058%" x2="101.617708%" y2="52.6757258%" id="linearGradient-5">
            <stop stop-color="#818181" offset="0%"></stop>
            <stop stop-color="#D7D6D6" offset="100%"></stop>
        </linearGradient>
    </defs>
    <g id="Page-1" stroke="none" stroke-width="1" fill="none" fill-rule="evenodd">
        <g id="Desktop-HD-Copy-2" transform="translate(0.000000, -204.000000)">
            <g id="developer" transform="translate(-157.000000, 204.000000)">
                <path d="M682.206349,249.829652 C677.850448,264.827084 661.528336,277 645.907173,277 L500.497681,277 C484.91407,277 475.726623,264.777093 480.082524,249.829652 L506.781194,158.182845 C511.137095,143.185413 527.459207,131 543.08037,131 L688.489861,131 C704.08599,131 713.273437,143.222907 708.917535,158.182845 L682.206349,249.829652 Z" id="Path" fill="#CADEF3"></path>
                <path d="M593.770272,244.306507 C559.063342,250.946793 549.230961,244.731685 533.339235,214.418965 C518.934235,186.969947 484.901953,197.186734 456.966497,196.498946 C421.747334,195.623579 389.176791,185.056644 356.481314,169.400075 C327.246535,155.394197 299.63591,141.88853 266.977913,137.899356 C232.483372,133.710098 196.352183,144.364569 168.529169,165.510943 C131.435981,193.610234 117.130929,240.092239 104.025252,282.685111 C88.7332138,332.318439 70.2928145,375.499058 37.7347655,416.628817 C5.61398882,457.158324 -22.4963758,503.327697 26.4031652,544.89514 C53.8888551,568.279953 89.8576284,577.308741 124.352169,584.686837 C206.13459,602.194184 296.437575,632.206778 378.882151,602.306731 C404.581271,592.977817 422.322035,572.931905 439.038331,551.998121 C468.19815,515.495303 482.178371,488.82161 537.661984,465.011619 C599.179956,438.625547 649.166431,403.986012 657.774449,351.626541 C659.452124,341.714339 660.184207,331.664899 659.960811,321.613947 C659.960811,289.575503 645.418382,251.584561 610.773919,244.531601 C605.174015,243.355708 599.399287,243.279262 593.770272,244.306507 Z" id="Path" fill="#E2E5F3"></path>
                <g id="Group" style="mix-blend-mode: multiply;" transform="translate(386.000000, 0.000000)" fill="#CADEF3">
                    <polygon id="Path" points="67.2111236 208.1125 0.798202247 208.1125 27.9246067 86.3125 94.3375281 86.3125"></polygon>
                    <path d="M19.8053933,90.9125 C12.0104494,90.9125 9.55348315,85.9125 14.3551685,79.6625 L73.1602247,4.225 C77.9619101,-1.9375 83.9234831,-0.9125 86.3929213,6.5 L110.089551,77.3875 C112.583933,84.8 108.218764,90.8625 100.42382,90.8625 L19.8053933,90.9125 Z" id="Path"></path>
                </g>
                <g id="Group" style="mix-blend-mode: multiply;" transform="translate(334.000000, 104.000000)" fill="#CADEF3">
                    <polygon id="Path" points="26.7268571 80.1650769 0.930285714 80.1650769 11.4525714 33.372 37.2617143 33.372"></polygon>
                    <path d="M8.30971429,35.1415385 C5.28,35.1415385 4.32457143,33.21 6.19771429,30.8423077 L29.04,1.85676923 C30.9005714,-0.510923077 33.2137143,-0.112153846 34.1691429,2.72907692 L43.384,29.97 C43.8917875,31.1716597 43.7318511,32.5486952 42.9618659,33.6045307 C42.1918807,34.6603661 40.9229143,35.2427011 39.6125714,35.1415385 L8.30971429,35.1415385 Z" id="Path"></path>
                </g>
                <path d="M658.836901,344.163635 C659.086521,342.098174 659.286217,340.070267 659.460951,338.067397 C659.460951,337.729412 659.523356,337.391428 659.548318,337.053443 C659.698091,335.088126 659.81042,333.160363 659.897787,331.245118 C659.897787,330.919652 659.897787,330.581667 659.897787,330.256201 C659.972673,328.340955 660.010116,326.438228 659.997635,324.573055 C659.997635,324.310178 659.997635,324.059819 659.997635,323.796942 C659.797939,303.580465 655.279812,286.668725 648.040825,272.974096 C640.040496,258.866375 627.896471,247.863104 610.834928,244.35808 C605.233368,243.173577 599.45561,243.092797 593.823308,244.120239 C566.365081,249.402811 554.445714,246.54872 542.788449,230 L539.917816,230.588343 L536.735158,236.747171 C564.318195,248.551591 486.174577,240.903128 479.409869,268.993391 C472.64516,297.083653 504.883615,320.316954 483.303945,340.495877 C461.724274,360.674801 469.412578,424.12825 465.019262,452.96959 C458.142224,498.196916 423.120503,576.509163 338,580.464833 C340.763642,588.887037 344.155582,597.088605 348.147063,605 C358.969365,604.284736 369.716839,602.698194 380.285669,600.2557 C384.209323,599.296851 388.069333,598.092777 391.843087,596.650532 C410.939036,586.110425 425.441972,569.424008 439.270933,552.111693 C441.579921,549.220049 443.776579,546.403512 445.910832,543.637046 C470.872856,511.378309 486.748704,486.980839 537.796044,465.036886 C543.562272,462.533298 549.21201,459.979637 554.745259,457.375905 C608.251358,431.964482 649.987863,399.029776 657.788496,351.536703 C658.146285,349.308509 658.46247,347.105351 658.737053,344.927229 C658.762015,344.67687 658.762015,344.413993 658.836901,344.163635 Z" id="Path" fill="url(#linearGradient-1)" style="mix-blend-mode: soft-light;"></path>
                <g id="Group" opacity="0.5" style="mix-blend-mode: multiply;" transform="translate(252.000000, 212.000000)" fill="#B9BBD6">
                    <path d="M317.0125,200.4625 C312.525,215.875 295.7625,228.4875 279.675,228.4875 L22.2625,228.4875 C6.2125,228.4875 -3.25,215.875 1.2375,200.4625 L51.4125,28.075 C55.8875,12.675 72.6625,0.0625 88.75,0.0625 L346.15,0.0625 C362.2,0.0625 371.6625,12.675 367.1875,28.075 L317.0125,200.4625 Z" id="Path"></path>
                </g>
                <g id="Group" opacity="0.5" style="mix-blend-mode: multiply;" transform="translate(522.000000, 10.000000)" fill="#828AC4">
                    <path d="M86.721519,48.7998 C84.4783544,56.574 76.0570886,62.9244 68.0117722,62.9244 L11.1306329,62.9244 C3.08531646,62.9244 -1.65164557,56.6244 0.591518987,48.7998 L10.6168354,14.3892 C12.86,6.6276 21.2812658,0.2646 29.3265823,0.2646 L86.2077215,0.2646 C94.253038,0.2646 99.0025316,6.5646 96.7468354,14.3892 L86.721519,48.7998 Z" id="Path"></path>
                    <path d="M76.7713924,48.573 C75.3959772,52.6403465 71.6789195,55.4420951 67.4102532,55.629 L15.9553165,55.629 C14.1812305,55.7697182 12.4587606,54.9885871 11.389377,53.5583701 C10.3199933,52.1281532 10.0521946,50.247456 10.6794937,48.573 L20.5043038,14.6286 C21.8785372,10.5584758 25.5947776,7.75234115 29.865443,7.56 L81.3203797,7.56 C83.0955078,7.42198056 84.8174873,8.20658755 85.8845241,9.63961789 C86.9515608,11.0726482 87.2153379,12.9549124 86.5836709,14.6286 L76.7713924,48.573 Z" id="Path"></path>
                </g>
                <path d="M678.016852,100.25178 C676.288135,105.292826 671.61159,108.766609 666.239648,109 L618.980648,109 C613.974398,109 610.933101,105.059583 612.347367,100.25178 L621.020695,70.7482204 C622.749411,65.7071741 627.425957,62.2333906 632.797898,62 L680.019352,62 C685.025602,62 688.066899,65.9404166 686.652633,70.7482204 L678.016852,100.25178 Z" id="Path" fill="#CADEF3"></path>
                <path d="M553.742031,380.904454 C549.256279,396.355751 532.500307,409 516.419073,409 L259.131817,409 C243.088068,409 233.629253,396.355751 238.115005,380.904454 L288.257969,208.095546 C292.743721,192.644249 309.499693,180 325.580927,180 L582.868183,180 C598.911932,180 608.370747,192.644249 603.884995,208.095546 L553.742031,380.904454 Z" id="Path" fill="#828AC4"></path>
                <path d="M534.261605,371.910769 C530.887669,383.508592 518.291644,393 506.257941,393 L278.604778,393 C266.571075,393 259.473315,383.508592 262.834754,371.910769 L307.745582,217.076693 C311.119518,205.47887 323.715543,196 335.749246,196 L563.402409,196 C575.436112,196 582.533872,205.47887 579.159937,217.076693 L534.261605,371.910769 Z" id="Path" fill="#8CB6E1"></path>
                <path d="M420.958683,240 L307.041317,240 C305.889876,239.920976 305,239.049112 305,238 C305,236.950888 305.889876,236.079024 307.041317,236 L420.958683,236 C422.110124,236.079024 423,236.950888 423,238 C423,239.049112 422.110124,239.920976 420.958683,240 Z" id="Path" fill="#FFFFFF"></path>
                <path d="M374.097018,252.992883 L307.6076,252.992883 C306.698668,252.905434 306,252.039321 306,251 C306,249.960679 306.698668,249.094566 307.6076,249.007117 L374.097018,249.007117 C374.757128,248.943607 375.392389,249.308952 375.739595,249.951777 C376.086802,250.594603 376.086802,251.405397 375.739595,252.048223 C375.392389,252.691048 374.757128,253.056393 374.097018,252.992883 Z" id="Path" fill="#FFFFFF"></path>
                <path d="M413.969057,268 L308.030943,268 C306.885354,267.920976 306,267.049112 306,266 C306,264.950888 306.885354,264.079024 308.030943,264 L413.969057,264 C415.114646,264.079024 416,264.950888 416,266 C416,267.049112 415.114646,267.920976 413.969057,268 Z" id="Path" fill="#FFFFFF"></path>
                <path d="M389.01331,281 L300.98669,281 C299.889472,281 299,280.104569 299,279 C299,277.895431 299.889472,277 300.98669,277 L389.01331,277 C390.110528,277 391,277.895431 391,279 C391,280.104569 390.110528,281 389.01331,281 Z" id="Path" fill="#FFFFFF"></path>
                <path d="M376.330503,295 L300.669497,295 C299.717957,294.882526 299,294.022438 299,293 C299,291.977562 299.717957,291.117474 300.669497,291 L376.330503,291 C377.282043,291.117474 378,291.977562 378,293 C378,294.022438 377.282043,294.882526 376.330503,295 Z" id="Path" fill="#FFFFFF"></path>
                <path d="M531.967982,328 L441.032018,328 C439.885822,327.920976 439,327.049112 439,326 C439,324.950888 439.885822,324.079024 441.032018,324 L531.967982,324 C533.114178,324.079024 534,324.950888 534,326 C534,327.049112 533.114178,327.920976 531.967982,328 Z" id="Path" fill="#FFFFFF"></path>
                <path d="M527.965308,341 L437.034692,341 C435.886988,340.920976 435,340.049112 435,339 C435,337.950888 435.886988,337.079024 437.034692,337 L527.965308,337 C529.113012,337.079024 530,337.950888 530,339 C530,340.049112 529.113012,340.920976 527.965308,341 Z" id="Path" fill="#FFFFFF"></path>
                <path d="M524.957064,355 L433.042936,355 C431.890582,354.920976 431,354.049112 431,353 C431,351.950888 431.890582,351.079024 433.042936,351 L524.957064,351 C526.109418,351.079024 527,351.950888 527,353 C527,354.049112 526.109418,354.920976 524.957064,355 Z" id="Path" fill="#FFFFFF"></path>
                <path d="M564.965664,223 L307.034336,223 C305.886833,222.920976 305,222.049112 305,221 C305,219.950888 305.886833,219.079024 307.034336,219 L564.965664,219 C566.113167,219.079024 567,219.950888 567,221 C567,222.049112 566.113167,222.920976 564.965664,223 Z" id="Path" fill="#FFFFFF"></path>
                <polygon id="Path" fill="#FFFFFF" points="535.928181 303 425 303 444.071819 238 555 238"></polygon>
                <path d="M483.713171,284.491492 C473.15879,290.485095 460.717452,288.607431 455.899422,280.325813 C451.081391,272.044196 455.748465,260.430036 466.290266,254.486173 C476.832067,248.542309 489.298565,250.370234 494.104016,258.664286 C498.909467,266.958338 494.267552,278.510324 483.713171,284.491492 Z" id="Path" fill="#828AC4" opacity="0.5"></path>
                <path d="M480.80512,279.635946 C473.77225,283.675317 465.477711,282.412232 462.267324,276.809637 C459.056938,271.207041 462.154898,263.403425 469.20026,259.364054 C476.245622,255.324683 484.540161,256.587768 487.738056,262.190363 C490.935951,267.792959 487.850482,275.596575 480.80512,279.635946 Z" id="Path" fill="#828AC4" opacity="0.5"></path>
                <path d="M478.304385,275.691345 C474.285097,277.927308 469.539582,277.230861 467.711494,274.115175 C465.883406,270.999488 467.711494,266.649746 471.668177,264.340473 C475.624859,262.0312 480.43298,262.800958 482.273589,265.916644 C484.114198,269.03233 482.336195,273.430945 478.304385,275.691345 Z" id="Path" fill="#FFFFFF"></path>
                <polygon id="Path" fill="#FFD69A" points="346.793952 354 303 354 312.218472 322 356 322"></polygon>
                <polygon id="Path" fill="#FFD69A" points="404.781528 354 361 354 370.218472 322 414 322"></polygon>
                <path d="M341.612171,220 C341.612171,220 355.25687,229.910441 353.512056,256.396752 C354.400341,262.061358 355.855352,267.622809 357.855263,272.99768 C360.95576,280.928538 364.131574,304.194896 354.880292,319.793503 C354.880292,319.793503 347.938692,330.142459 314.812323,319.918794 C314.812323,319.918794 310.908458,347.407425 314.260008,355 L291,352.581903 C291,352.581903 293.422656,282.193968 293.610945,280.52761 C293.799235,278.861253 304.581937,255.269142 304.581937,255.269142 L341.612171,220 Z" id="Path" fill="#F4AF9F"></path>
                <path d="M326.912863,266.060592 C340.518672,255.650923 343.979253,233.240698 344.838174,223.820637 C343.78371,222.400535 342.55863,221.117234 341.190871,220 L304.46888,255.28765 C304.46888,255.28765 293.763485,278.862856 293.589212,280.541431 C293.414938,282.220006 291,352.582351 291,352.582351 L314.053942,355 C310.73029,347.38378 314.60166,319.925304 314.60166,319.925304 C343.506224,328.906931 352.307054,321.992206 354,320.200891 C327.746888,320.088151 309.946058,279.03823 326.912863,266.060592 Z" id="Path" fill="#F6917E"></path>
                <g id="Group" opacity="0.72" style="mix-blend-mode: overlay;" transform="translate(290.000000, 221.000000)">
                    <path d="M51.1698246,0.025 C51.1698246,0.025 64.7096491,9.9125 62.9782456,36.3375 C63.8597031,41.9889934 65.3035307,47.537571 67.2880702,52.9 C70.3647368,60.8125 73.5161404,84.025 64.3359649,99.5875 C64.3359649,99.5875 57.4477193,109.9125 24.5759649,99.7125 C24.5759649,99.7125 20.7021053,127.1375 24.0278947,134.7125 L0.946666667,132.3 C0.946666667,132.3 3.35070175,62.075 3.53754386,60.4125 C3.72438596,58.75 14.4242105,35.2125 14.4242105,35.2125 L51.1698246,0.025 Z" id="Path" fill="url(#linearGradient-2)"></path>
                    <path d="M36.8826316,45.9875 C50.497193,35.6 53.96,13.2375 54.8194737,3.8375 C53.7643315,2.42042318 52.5384626,1.1398548 51.1698246,0.025 L14.4242105,35.2375 C14.4242105,35.2375 3.71192982,58.7625 3.53754386,60.4375 C3.36315789,62.1125 0.946666667,132.325 0.946666667,132.325 L24.0154386,134.7375 C20.6896491,127.1375 24.5635088,99.7375 24.5635088,99.7375 C53.4866667,108.7 62.2931579,101.8 63.987193,100.0125 C37.717193,99.9 19.9049123,58.9375 36.8826316,45.9875 Z" id="Path" fill="url(#linearGradient-3)"></path>
                </g>
                <path d="M455.727113,337.906455 C455.727113,337.906455 459.450047,337.542384 456.781944,328.528497 C454.113842,319.514609 452.686717,318.234085 455.652654,311.768692 C458.618592,305.303299 473.026344,270.440395 474.093585,268.406621 C475.160826,266.372847 478.424598,266.25986 477.481455,269.975891 C476.538311,273.691923 472.951885,296.414954 474.751303,297.268637 C476.550721,298.12232 505.614422,302.466059 506.929858,311.492501 C508.245295,320.518942 490.673049,345.501722 486.565412,348 L455.727113,337.906455 Z" id="Path" fill="#F4AF9F"></path>
                <path d="M480.098316,321.716388 C460.615962,315.242531 463.794465,295.00703 464.642066,291 C460.827863,300.003295 457.013659,308.956503 455.64254,311.911687 C452.663472,318.360501 454.159239,319.637742 456.776829,328.628515 C459.39442,337.619288 455.717328,337.982425 455.717328,337.982425 L486.692152,348 C490.007767,345.983963 502.098543,329.442443 506,318.360501 C500.951789,322.204745 492.438387,325.823594 480.098316,321.716388 Z" id="Path" fill="#F6917E"></path>
                <g id="Group" opacity="0.72" style="mix-blend-mode: overlay;" transform="translate(454.000000, 267.000000)">
                    <path d="M1.775,71.6566667 C1.775,71.6566667 5.525,71.2919697 2.8375,62.2625758 C0.15,53.2331818 -1.2875,51.9504545 1.7,45.4739394 C4.6875,38.9974242 19.2,4.07454545 20.275,2.03727273 C21.35,-1.06914477e-13 24.6375,-0.113181818 23.6875,3.60924242 C22.7375,7.33166667 19.125,30.0937879 20.9375,30.9489394 C22.75,31.8040909 52.025,36.155303 53.35,45.1972727 C54.675,54.2392424 36.975,79.265 32.8375,81.7675758 L1.775,71.6566667 Z" id="Path" fill="url(#linearGradient-4)"></path>
                    <path d="M26.225,55.3207576 C6.6875,48.8190909 9.875,28.4966667 10.725,24.4724242 C6.9,33.5143939 3.075,42.5060606 1.7,45.4739394 C-1.2875,51.9504545 0.2125,53.2331818 2.8375,62.2625758 C5.4625,71.2919697 1.775,71.6566667 1.775,71.6566667 L32.8375,81.7172727 C36.1625,79.6925758 48.2875,63.08 52.2,51.9504545 C47.1375,55.8112121 38.6,59.4456061 26.225,55.3207576 Z" id="Path" fill="url(#linearGradient-5)"></path>
                </g>
                <path d="M456.608569,335 L409.850553,420.78201 C373.405332,362.270361 307.598681,351.773089 292.955513,350.132107 C292.279674,351.171813 291.553773,352.186466 290.815357,353.188592 L290.602593,353.464177 C289.926755,354.353564 289.2384,355.205371 288.5125,356.032125 L288.074456,356.558242 C287.398618,357.309836 286.697748,358.036378 285.984363,358.750393 L285.396133,359.351669 C284.495015,360.216003 283.568866,361.06781 282.592655,361.856984 C254.144857,385.131367 208.751034,422.635943 208.012618,469.422714 C207.336779,511.750023 233.656936,588.42521 324.106664,605.749468 C324.381311,605.771209 324.647058,605.857009 324.882627,606 C327.723652,605.899787 330.577192,605.799575 333.480795,605.661782 C366.121295,604.158593 385.107352,600.275354 398.561546,593.373209 C331.791199,591.456642 306.785172,506.476334 331.152907,503.971018 C356.384213,501.36549 363.805922,474.621244 363.805922,474.621244 C363.805922,474.621244 385.695582,500.626421 419.087013,499.511556 C452.478444,498.39669 490,344.708098 490,344.708098 L456.608569,335 Z" id="Path" fill="#F37B7E"></path>
                <path d="M420.219805,430.668946 L465,337.503767 L456.562429,335 L410,420.72899 C410,420.72899 421.45366,437.003477 423.921369,443 L420.219805,430.668946 Z" id="Path" fill="#F26F6E"></path>
                <path d="M518.269252,203.900094 C521.048915,202.415832 524.298379,202.805146 525.525084,204.788218 C526.75179,206.77129 525.525084,209.593821 522.732372,211.090249 C519.93966,212.586677 516.716296,212.197363 515.47654,210.214291 C514.236785,208.23122 515.50264,205.420854 518.269252,203.900094 Z" id="Path" fill="#F69C9E"></path>
                <path d="M536.270679,203.912644 C539.04782,202.411457 542.281298,202.80201 543.519929,204.791388 C544.75856,206.780766 543.519929,209.673297 540.72975,211.11346 C537.939571,212.553623 534.706092,212.224094 533.480499,210.234716 C532.254907,208.245338 533.441385,205.413831 536.270679,203.912644 Z" id="Path" fill="#FFD69A"></path>
                <path d="M555.274856,203.910005 C558.052503,202.413159 561.299612,202.802582 562.525428,204.786207 C563.751245,206.769831 562.525428,209.59315 559.734741,211.089995 C556.944053,212.586841 553.723025,212.197418 552.484168,210.213793 C551.245311,208.230169 552.458087,205.40685 555.274856,203.910005 Z" id="Path" fill="#B1D792"></path>
                <path d="M331.359096,504.354694 C333.294781,504.15193 335.209987,503.787445 337.084542,503.265078 C353.896763,498.693701 361.229353,482.938108 363.388951,477.164397 L363.6024,476.600803 C363.6024,476.600803 363.6024,476.600803 363.6024,476.525657 C363.6024,476.450511 363.715402,476.212549 363.765625,476.062257 L363.765625,475.999635 C363.765625,475.874392 363.853516,475.749149 363.891183,475.63643 L363.891183,475.573808 C363.891183,475.486138 363.891183,475.398468 363.966518,475.335846 C364.041853,475.273225 363.966518,475.335846 363.966518,475.273225 L363.966518,475.060311 L330.342076,444 L350.431362,473.206712 C350.431362,473.206712 341.165179,504.104207 304,497.416221 C308.623237,500.128669 313.496193,502.393378 318.552176,504.179353 C317.786272,507.473249 315.086775,523.842534 329.689174,547 C319.405971,526.234679 319.343192,505.582077 331.359096,504.354694 Z" id="Path" fill="#F26F6E"></path>
                <path d="M569.040677,480.634002 C561.742822,478.539208 553.672839,482.105345 546.748595,484.511864 C539.436747,487.058236 532.322916,490.14233 525.46526,493.738932 C511.717055,500.927384 499.071881,510.056557 487.917424,520.846563 C481.299066,527.250367 475.248749,534.217632 469.834685,541.669812 C464.853214,548.527768 458.626375,556.632626 464.180715,565.223774 C467.182051,569.874716 473.371529,571.570501 478.851147,570.834829 C495.128103,568.665221 502.97392,551.146261 513.073852,540.335628 C524.175642,528.473771 537.048045,518.407979 551.231919,510.497284 C556.989998,507.29348 562.946693,504.461398 569.065584,502.018356 C573.872704,500.098128 578.169222,496.619274 577.994871,490.796246 C577.882788,485.933331 573.673445,481.955717 569.040677,480.634002 Z" id="Path" fill="#E7E8F5"></path>
                <path d="M88.6284588,450.265723 C82.7580774,519.712062 114.513211,615.435394 334.045447,605.249931 C259.808279,573.166974 234.824737,517.42221 235.513161,473.326913 C236.264169,426.591404 254.701422,384.961139 283.152119,361.712256 C311.602816,338.463374 308.185728,283.869793 308.185728,283.869793 C308.185728,283.869793 297.045772,274.985666 302.065011,266.076515 C307.08425,257.167363 320.427163,265.150563 320.427163,265.150563 C322.184641,264.162299 323.833392,262.99218 325.346268,261.659477 C326.945213,260.336614 328.38586,258.83344 329.639532,257.179875 C332.327107,253.31165 334.53377,249.130817 336.210854,244.729586 C338.073444,240.275836 339.55164,235.671013 340.629286,230.965447 C341.59308,226.648512 342.469256,222.294039 343.132647,217.927053 C343.85412,212.431831 344.126219,206.886952 343.946239,201.347522 C343.946239,200.42157 343.946239,199.483106 343.946239,198.557155 C342.705892,198.335091 341.450759,198.205435 340.191198,198.169257 C338.351228,198.00659 336.511257,197.856435 334.65877,197.731307 L331.717321,197.556127 C323.164171,197.055613 314.602677,196.892946 306.032838,197.068126 C297.072231,197.245698 288.127113,197.893086 279.234359,199.007618 L279.372044,199.007618 C256.841796,201.510189 230.093384,209.118004 217.326244,229.626571 C207.437968,245.505383 213.796505,265.576 208.101359,282.706097 C202.906885,298.334652 193.306496,313.362589 179.487943,322.74723 C164.154858,333.020283 94.060752,385.949654 88.6284588,450.265723 Z" id="Path" fill="#FFFFFF"></path>
            </g>
        </g>
    </g>
</svg>