<?xml version="1.0" encoding="UTF-8"?>
<svg width="1508px" height="1022px" viewBox="0 0 1508 1022" version="1.1" xmlns="http://www.w3.org/2000/svg" xmlns:xlink="http://www.w3.org/1999/xlink">
    <!-- Generator: Sketch 48.2 (47327) - http://www.bohemiancoding.com/sketch -->
    <title>schematic-booster</title>
    <desc>Created with Sketch.</desc>
    <defs></defs>
    <g id="Page-1" stroke="none" stroke-width="1" fill="none" fill-rule="evenodd" opacity="0.0492527174">
        <g id="schematic-booster">
            <path d="M1074.38,44.236 C1013.53,123.243 1013.4,184.761 1013.4,242.87 L1013.4,826.961 C1030.76,847.741 1117.51,848.727 1135.36,826.961 L1135.36,242.87 C1135.36,184.76 1135.36,123.243 1074.38,44.236 Z" id="Stroke-1" stroke="#000000" stroke-width="7.937" stroke-linecap="round" stroke-linejoin="round"></path>
            <path d="M1013.4,647.156 L1013.4,758.435 C1042.97,771.863 1105.62,772.392 1135.36,758.638 L1135.36,647.399 C1102.15,657.084 1046.5,656.729 1013.4,647.156 Z" id="Stroke-2" stroke="#000000" stroke-width="7.937" stroke-linecap="round" stroke-linejoin="round"></path>
            <path d="M1025.69,763.988 C1023.67,765.634 1021.15,762.545 1023.18,760.897 L1134.1,670.68 C1136.13,669.032 1138.64,672.121 1136.61,673.77 L1025.69,763.988 Z M1037.13,766.732 L1136.61,685.814 C1138.64,684.166 1136.13,681.077 1134.1,682.724 L1034.61,763.642 C1032.59,765.289 1035.1,768.379 1037.13,766.732 Z M1049.54,768.683 L1136.61,697.859 C1138.64,696.211 1136.13,693.121 1134.1,694.769 L1047.02,765.593 C1045,767.241 1047.51,770.33 1049.54,768.683 Z M1062.87,769.878 L1136.61,709.904 C1138.64,708.255 1136.13,705.166 1134.1,706.814 L1060.36,766.788 C1058.34,768.437 1060.85,771.526 1062.87,769.878 Z M1092.7,769.707 L1136.61,733.992 C1138.64,732.344 1136.13,729.255 1134.1,730.902 L1090.19,766.617 C1088.16,768.266 1090.68,771.355 1092.7,769.707 Z M1109.96,767.711 L1136.61,746.036 C1138.64,744.389 1136.13,741.299 1134.1,742.947 L1107.45,764.621 C1105.43,766.27 1107.94,769.359 1109.96,767.711 Z M1077.2,770.274 L1136.61,721.948 C1138.64,720.3 1136.13,717.21 1134.1,718.858 L1074.68,767.184 C1072.66,768.831 1075.17,771.921 1077.2,770.274 Z M1015.4,760.309 L1136.61,661.726 C1138.64,660.077 1136.13,656.989 1134.1,658.636 L1012.89,757.219 C1010.87,758.866 1013.38,761.956 1015.4,760.309 Z M1014.66,652.518 C1012.63,654.165 1010.12,651.076 1012.14,649.428 C1014.45,647.553 1016.78,644.799 1018.46,646.859 C1020.13,648.917 1016.96,650.644 1014.66,652.518 Z M1014.66,676.607 L1042.37,654.062 C1044.4,652.414 1041.89,649.325 1039.86,650.972 L1012.14,673.517 C1010.12,675.165 1012.63,678.254 1014.66,676.607 Z M1014.66,700.696 L1069.65,655.966 C1071.68,654.318 1069.16,651.229 1067.14,652.876 L1012.14,697.606 C1010.12,699.254 1012.63,702.343 1014.66,700.696 Z M1014.66,712.739 L1084.49,655.944 C1086.51,654.295 1084,651.206 1081.98,652.853 L1012.14,709.651 C1010.12,711.298 1012.63,714.388 1014.66,712.739 Z M1014.66,724.784 L1100.33,655.103 C1102.36,653.454 1099.84,650.365 1097.82,652.013 L1012.14,721.695 C1010.12,723.343 1012.63,726.432 1014.66,724.784 Z M1014.66,736.829 L1117.64,653.065 C1119.67,651.417 1117.16,648.327 1115.13,649.976 L1012.14,733.739 C1010.12,735.387 1012.63,738.477 1014.66,736.829 Z M1014.66,748.873 L1136.61,649.681 C1138.64,648.033 1136.13,644.944 1134.1,646.591 L1012.14,745.783 C1010.12,747.432 1012.63,750.521 1014.66,748.873 Z M1014.66,688.652 L1055.64,655.319 C1057.66,653.671 1055.15,650.581 1053.13,652.229 L1012.14,685.562 C1010.12,687.209 1012.63,690.298 1014.66,688.652 Z M1014.66,664.563 C1012.63,666.21 1010.12,663.12 1012.14,661.473 L1027.35,649.105 C1029.37,647.458 1031.89,650.547 1029.86,652.196 L1014.66,664.563 Z" id="Fill-3" fill="#000000" fill-rule="nonzero"></path>
            <path d="M1074.38,44.236 C1020.65,113.994 1014.26,170.118 1013.5,222.3 C1023.41,232.986 1126.53,232.868 1135.26,222.508 C1134.54,170.266 1128.29,114.087 1074.38,44.236 Z" id="Stroke-4" stroke="#000000" stroke-width="7.937" stroke-linecap="round" stroke-linejoin="round"></path>
            <path d="M1016.24,191.792 C1014.22,193.439 1011.7,190.35 1013.73,188.702 L1112.66,108.241 C1114.68,106.594 1117.2,109.683 1115.17,111.331 L1016.24,191.792 Z M1015.37,204.549 L1118.88,120.355 C1120.91,118.707 1118.4,115.618 1116.37,117.265 L1012.85,201.459 C1010.83,203.107 1013.34,206.197 1015.37,204.549 Z M1014.89,216.976 L1122.28,129.637 C1124.31,127.989 1121.79,124.9 1119.77,126.547 L1012.38,213.886 C1010.36,215.534 1012.87,218.623 1014.89,216.976 Z M1018.51,226.076 L1125.34,139.192 C1127.37,137.544 1124.85,134.455 1122.83,136.102 L1016,222.987 C1013.98,224.634 1016.49,227.724 1018.51,226.076 Z M1042.74,230.466 L1130.37,159.192 C1132.39,157.544 1129.88,154.455 1127.86,156.102 L1040.22,227.376 C1038.2,229.025 1040.71,232.114 1042.74,230.466 Z M1056.41,231.388 L1132.31,169.657 C1134.34,168.009 1131.82,164.92 1129.8,166.567 L1053.9,228.299 C1051.87,229.947 1054.38,233.036 1056.41,231.388 Z M1070.7,231.806 L1133.86,180.44 C1135.89,178.792 1133.37,175.703 1131.35,177.35 L1068.19,228.717 C1066.17,230.365 1068.68,233.454 1070.7,231.806 Z M1101.18,231.113 C1099.15,232.76 1096.64,229.671 1098.66,228.023 L1133.32,199.836 C1135.34,198.189 1137.86,201.278 1135.83,202.926 L1101.18,231.113 Z M1117.9,229.551 C1115.88,231.198 1113.37,228.11 1115.39,226.462 L1133.8,211.486 C1135.83,209.838 1138.34,212.927 1136.32,214.575 L1117.9,229.551 Z M1085.59,231.742 L1135.03,191.534 C1137.06,189.886 1134.54,186.797 1132.52,188.444 L1083.08,228.653 C1081.05,230.3 1083.57,233.389 1085.59,231.742 Z M1029.88,228.878 L1128.04,149.04 C1130.07,147.392 1127.55,144.303 1125.53,145.95 L1027.37,225.788 C1025.34,227.437 1027.85,230.526 1029.88,228.878 Z M1017.68,178.582 L1111.16,102.549 C1113.18,100.901 1110.67,97.812 1108.65,99.459 L1015.16,175.492 C1013.14,177.14 1015.65,180.229 1017.68,178.582 Z M1042.18,98.431 C1040.15,100.078 1037.64,96.989 1039.67,95.341 L1084.78,58.644 C1086.81,56.997 1089.32,60.086 1087.3,61.734 L1042.18,98.431 Z M1033.59,117.459 L1092.52,69.531 C1094.54,67.884 1092.03,64.794 1090.01,66.442 L1031.08,114.369 C1029.05,116.017 1031.56,119.107 1033.59,117.459 Z M1027.43,134.515 L1097.54,77.494 C1099.56,75.847 1097.05,72.758 1095.02,74.405 L1024.92,131.426 C1022.89,133.073 1025.4,136.162 1027.43,134.515 Z M1023,150.164 L1102.32,85.647 C1104.35,83.999 1101.84,80.91 1099.81,82.558 L1020.48,147.074 C1018.46,148.722 1020.97,151.812 1023,150.164 Z M1019.85,164.766 L1106.87,93.993 C1108.89,92.345 1106.38,89.256 1104.36,90.904 L1017.34,161.677 C1015.31,163.325 1017.83,166.414 1019.85,164.766 Z M1054.44,76.415 L1081.87,54.1 C1083.9,52.452 1081.39,49.364 1079.36,51.011 L1051.93,73.325 C1049.9,74.973 1052.41,78.062 1054.44,76.415 Z" id="Fill-5" fill="#000000" fill-rule="nonzero"></path>
            <path d="M1013.4,797.364 L1013.4,826.961 C1030.76,847.741 1117.51,848.727 1135.36,826.961 L1135.36,797.506 C1107.65,811.019 1040.91,810.485 1013.4,797.364 Z" id="Stroke-6" stroke="#000000" stroke-width="7.937" stroke-linecap="round" stroke-linejoin="round"></path>
            <path d="M1014.66,809.096 C1012.63,810.743 1010.12,807.654 1012.14,806.006 L1020.63,799.104 C1022.65,797.456 1025.17,800.546 1023.14,802.194 L1014.66,809.096 Z M1017.26,831.063 L1046.7,807.125 C1048.72,805.477 1046.21,802.388 1044.18,804.035 L1014.75,827.973 C1012.73,829.62 1015.24,832.71 1017.26,831.063 Z M1025.83,836.14 L1059.92,808.417 C1061.94,806.769 1059.43,803.68 1057.4,805.327 L1023.32,833.051 C1021.29,834.698 1023.8,837.787 1025.83,836.14 Z M1036.22,839.734 C1034.2,841.381 1031.68,838.292 1033.71,836.644 L1071.55,805.865 C1073.58,804.218 1076.09,807.307 1074.06,808.955 L1036.22,839.734 Z M1060.81,843.824 C1058.78,845.472 1056.27,842.383 1058.3,840.736 L1103.43,804.031 C1105.45,802.383 1107.96,805.473 1105.94,807.12 L1060.81,843.824 Z M1090.28,843.946 L1136.61,806.259 C1138.64,804.611 1136.13,801.522 1134.1,803.169 L1087.76,840.856 C1085.74,842.504 1088.25,845.593 1090.28,843.946 Z M1107.97,841.596 L1136.61,818.303 C1138.64,816.656 1136.13,813.566 1134.1,815.214 L1105.46,838.507 C1103.44,840.155 1105.95,843.243 1107.97,841.596 Z M1074.84,844.453 L1125.62,803.155 C1127.65,801.507 1125.14,798.418 1123.11,800.065 L1072.33,841.364 C1070.31,843.012 1072.82,846.101 1074.84,844.453 Z M1047.94,842.245 C1045.92,843.893 1043.4,840.803 1045.43,839.156 L1086.75,805.545 C1088.78,803.898 1091.29,806.988 1089.26,808.635 L1047.94,842.245 Z M1014.66,821.14 L1034.4,805.083 C1036.42,803.436 1033.91,800.347 1031.89,801.994 L1012.14,818.051 C1010.12,819.698 1012.63,822.787 1014.66,821.14 Z" id="Fill-7" fill="#000000" fill-rule="nonzero"></path>
            <path d="M1155.03,886.283 C1146.51,899.035 1102.67,910.345 1079.23,899.948 L1079.23,842.872 C1103.58,842.345 1127.01,837.143 1135.36,826.961 L1155.03,886.283 Z M1069.33,899.948 C1045.3,908.035 1002.47,897.717 993.536,886.283 L1013.4,826.961 C1021.54,836.704 1044.94,842.096 1069.33,842.83 L1069.33,899.948 Z" id="Stroke-8" stroke="#000000" stroke-width="7.937" stroke-linecap="round" stroke-linejoin="round"></path>
            <path d="M1112.99,327.557 C1112.99,325.498 1114.66,323.829 1116.72,323.829 C1118.78,323.829 1120.45,325.498 1120.45,327.557 L1120.45,442.095 C1120.45,444.155 1118.78,445.823 1116.72,445.823 C1114.66,445.823 1112.99,444.155 1112.99,442.095 L1112.99,327.557 Z M1112.99,630.142 C1112.99,628.082 1114.66,626.412 1116.72,626.412 C1118.78,626.412 1120.45,628.082 1120.45,630.142 L1120.45,697.075 C1120.45,699.134 1118.78,700.803 1116.72,700.803 C1114.66,700.803 1112.99,699.134 1112.99,697.075 L1112.99,630.142 Z M1028.31,327.557 C1028.31,325.498 1029.98,323.829 1032.04,323.829 C1034.1,323.829 1035.76,325.498 1035.76,327.557 L1035.76,442.095 C1035.76,444.155 1034.1,445.823 1032.04,445.823 C1029.98,445.823 1028.31,444.155 1028.31,442.095 L1028.31,327.557 Z M1028.31,630.142 C1028.31,628.082 1029.98,626.412 1032.04,626.412 C1034.1,626.412 1035.76,628.082 1035.76,630.142 L1035.76,697.075 C1035.76,699.134 1034.1,700.803 1032.04,700.803 C1029.98,700.803 1028.31,699.134 1028.31,697.075 L1028.31,630.142 Z" id="Fill-9" fill="#000000" fill-rule="nonzero"></path>
            <path d="M233.206,622.362 C252.614,564.706 256.474,484.975 290.467,450.943 L290.467,789.946 C238.287,787.52 187.229,780.362 141.351,768.46 C119.373,762.759 125.714,723.033 141.351,708.389 L233.206,622.362 Z M371.69,450.943 C405.683,484.975 409.544,564.706 428.951,622.362 L520.805,708.389 C536.442,723.033 542.801,762.807 520.805,768.46 C474.73,780.304 423.692,787.451 371.69,789.909 L371.69,450.943 Z" id="Stroke-10" stroke="#000000" stroke-width="7.937" stroke-linecap="round" stroke-linejoin="round"></path>
            <path d="M428.97,622.379 L520.805,708.389 C536.442,723.033 542.801,762.807 520.805,768.46 C474.73,780.304 423.692,787.451 371.69,789.909 L371.69,637.847 C392.715,634.819 412.107,629.495 428.97,622.379 Z M290.467,789.946 C238.287,787.52 187.229,780.362 141.351,768.46 C119.373,762.759 125.714,723.033 141.351,708.389 L233.187,622.379 C250.05,629.495 269.442,634.819 290.467,637.847 L290.467,789.946 Z" id="Stroke-11" stroke="#000000" stroke-width="7.937" stroke-linecap="round" stroke-linejoin="round"></path>
            <path d="M533.597,732.87 C537.16,748.443 534.398,764.966 520.805,768.46 C474.73,780.304 423.692,787.451 371.69,789.909 L371.69,750.22 C427.921,748.329 483.249,742.548 533.597,732.87 Z M290.467,789.946 C238.287,787.52 187.229,780.362 141.351,768.46 C127.777,764.939 125.008,748.439 128.558,732.885 C178.704,742.603 234.052,748.39 290.467,750.249 L290.467,789.946 Z" id="Stroke-12" stroke="#000000" stroke-width="7.937" stroke-linecap="round" stroke-linejoin="round"></path>
            <path d="M262.689,789.64 C260.696,791.261 258.183,788.172 260.177,786.551 L289.211,762.936 C291.204,761.315 293.717,764.405 291.723,766.026 L262.689,789.64 Z M525.081,768.941 C523.088,770.562 520.575,767.472 522.569,765.85 L528.966,760.648 C530.959,759.027 533.471,762.116 531.478,763.738 L525.081,768.941 Z M276.28,790.631 L291.723,778.071 C293.717,776.449 291.204,773.36 289.211,774.981 L273.768,787.541 C271.774,789.162 274.287,792.251 276.28,790.631 Z M372.946,760.187 C370.953,761.809 368.44,758.719 370.434,757.098 L381.299,748.26 C383.292,746.639 385.805,749.729 383.811,751.35 L372.946,760.187 Z M372.946,772.232 L399.574,750.573 C401.569,748.952 399.056,745.863 397.063,747.484 L370.434,769.142 C368.44,770.763 370.953,773.852 372.946,772.232 Z M372.946,784.277 L415.623,749.566 C417.616,747.945 415.104,744.855 413.111,746.476 L370.434,781.187 C368.44,782.808 370.953,785.897 372.946,784.277 Z M395.409,790.095 C393.416,791.716 390.903,788.626 392.897,787.005 L446.159,743.686 C448.152,742.064 450.665,745.154 448.671,746.775 L395.409,790.095 Z M428.914,786.934 L483.221,742.764 C485.215,741.143 482.702,738.053 480.709,739.674 L426.402,783.843 C424.408,785.464 426.921,788.554 428.914,786.934 Z M446.459,784.708 L501.182,740.2 C503.176,738.579 500.663,735.489 498.669,737.111 L443.947,781.618 C441.953,783.239 444.466,786.329 446.459,784.708 Z M464.643,781.963 L519.699,737.185 C521.692,735.564 519.18,732.474 517.186,734.095 L462.131,778.873 C460.137,780.495 462.65,783.584 464.643,781.963 Z M483.589,778.599 L535.299,736.541 C537.292,734.92 534.78,731.83 532.786,733.451 L481.076,775.509 C479.083,777.13 481.595,780.22 483.589,778.599 Z M503.474,774.47 L536.247,747.814 C538.241,746.193 535.728,743.103 533.735,744.724 L500.962,771.38 C498.968,773 501.481,776.09 503.474,774.47 Z M411.92,788.711 C409.927,790.331 407.414,787.242 409.407,785.621 L463.225,741.85 C465.218,740.229 467.731,743.319 465.737,744.94 L411.92,788.711 Z M379.33,791.128 L431.98,748.307 C433.973,746.686 431.461,743.596 429.467,745.217 L376.818,788.038 C374.824,789.659 377.337,792.749 379.33,791.128 Z M249.347,788.447 L291.723,753.981 C293.717,752.36 291.204,749.27 289.211,750.892 L246.835,785.357 C244.842,786.979 247.354,790.068 249.347,788.447 Z M129.072,753.781 C127.079,755.402 124.567,752.313 126.56,750.692 L146.141,734.765 C148.135,733.144 150.647,736.234 148.654,737.855 L129.072,753.781 Z M132.637,762.927 L160.989,739.866 C162.983,738.245 160.47,735.156 158.477,736.777 L130.124,759.837 C128.131,761.458 130.643,764.547 132.637,762.927 Z M139.895,769.069 L173.507,741.731 C175.5,740.11 172.988,737.019 170.994,738.64 L137.382,765.978 C135.388,767.6 137.901,770.69 139.895,769.069 Z M162.473,774.793 C160.481,776.413 157.968,773.324 159.962,771.703 L196.566,741.931 C198.56,740.31 201.072,743.4 199.078,745.021 L162.473,774.793 Z M186.161,779.615 L225.367,747.728 C227.361,746.107 224.848,743.017 222.855,744.638 L183.649,776.527 C181.655,778.148 184.167,781.237 186.161,779.615 Z M198.341,781.755 L238.783,748.862 C240.776,747.24 238.263,744.151 236.27,745.772 L195.828,778.665 C193.834,780.286 196.347,783.376 198.341,781.755 Z M210.746,783.708 C208.754,785.329 206.241,782.24 208.235,780.618 L249.869,746.756 C251.863,745.135 254.375,748.225 252.381,749.846 L210.746,783.708 Z M223.381,785.478 L266.167,750.678 C268.16,749.057 265.648,745.967 263.655,747.588 L220.868,782.388 C218.875,784.009 221.387,787.099 223.381,785.478 Z M236.245,787.059 L280.142,751.356 C282.136,749.735 279.623,746.645 277.63,748.267 L233.733,783.969 C231.739,785.59 234.252,788.68 236.245,787.059 Z M174.206,777.295 C172.212,778.916 169.699,775.826 171.693,774.205 L209.621,743.358 C211.614,741.737 214.127,744.826 212.133,746.448 L174.206,777.295 Z M150.967,772.107 L186.203,743.448 C188.197,741.827 185.684,738.738 183.691,740.359 L148.454,769.018 C146.461,770.639 148.973,773.728 150.967,772.107 Z M128.595,742.124 L136.5,735.696 C138.493,734.074 135.98,730.985 133.987,732.606 L126.084,739.034 C124.09,740.656 126.603,743.745 128.595,742.124 Z" id="Fill-13" fill="#000000" fill-rule="nonzero"></path>
            <path d="M290.467,495.236 L290.467,794.356 C295.517,800.037 309.378,803.356 324.382,804.157 L324.382,717.195 C323.63,683.387 337.776,683.303 337.776,717.195 L337.776,804.202 C352.705,803.507 366.527,800.277 371.69,794.356 L371.69,495.236 C371.69,514.091 290.467,514.09 290.467,495.236 Z" id="Stroke-14" stroke="#000000" stroke-width="7.937" stroke-linecap="round" stroke-linejoin="round"></path>
            <path d="M290.467,428.578 L290.467,495.236 C290.467,514.09 371.69,514.091 371.69,495.236 L371.69,428.578 C371.69,355.139 351.385,281.081 331.079,281.087 C310.773,281.093 290.467,355.165 290.467,428.578 Z" id="Stroke-15" stroke="#000000" stroke-width="7.937" stroke-linecap="round" stroke-linejoin="round"></path>
            <path d="M293.176,395.445 C291.183,397.066 288.67,393.976 290.664,392.355 L360.281,335.733 C362.275,334.112 364.788,337.201 362.794,338.823 L293.176,395.445 Z M292.313,408.191 L365.026,349.052 C367.019,347.431 364.506,344.341 362.513,345.963 L289.801,405.101 C287.807,406.722 290.32,409.812 292.313,408.191 Z M291.838,420.622 C289.844,422.243 287.332,419.154 289.325,417.532 L302.297,406.983 C304.29,405.361 306.802,408.451 304.809,410.073 L291.838,420.622 Z M333.352,386.858 L366.973,359.512 C368.967,357.891 366.454,354.802 364.461,356.423 L330.84,383.768 C328.846,385.389 331.358,388.479 333.352,386.858 Z M291.723,432.76 L299.065,426.789 C301.058,425.168 298.545,422.078 296.552,423.699 L289.211,429.67 C287.218,431.291 289.73,434.381 291.723,432.76 Z M303.652,423.057 C301.659,424.678 299.146,421.589 301.14,419.968 L317.213,406.896 C319.206,405.274 321.718,408.364 319.725,409.985 L303.652,423.057 Z M343.941,390.289 L368.652,370.192 C370.645,368.57 368.133,365.481 366.139,367.102 L341.429,387.2 C339.435,388.821 341.948,391.911 343.941,390.289 Z M291.723,456.849 C289.73,458.47 287.218,455.38 289.211,453.759 L345.174,408.243 C347.167,406.621 349.68,409.711 347.686,411.333 L291.723,456.849 Z M356.677,404.02 L371.214,392.197 C373.208,390.575 370.695,387.486 368.702,389.107 L354.164,400.93 C352.171,402.552 354.683,405.641 356.677,404.02 Z M291.723,468.893 L355.505,417.018 C357.498,415.397 354.985,412.307 352.992,413.929 L289.211,465.803 C287.218,467.425 289.73,470.514 291.723,468.893 Z M360.967,412.576 C358.973,414.197 356.461,411.107 358.454,409.486 L369.573,400.443 C371.567,398.822 374.079,401.911 372.086,403.532 L360.967,412.576 Z M291.723,480.938 L361.738,423.993 C362.266,423.564 362.516,422.919 362.466,422.288 C363.073,422.466 363.755,422.352 364.282,421.923 L372.666,415.105 C374.659,413.484 372.146,410.394 370.154,412.015 L361.77,418.833 C361.242,419.262 360.992,419.907 361.042,420.537 C360.435,420.36 359.753,420.474 359.225,420.903 L289.211,477.848 C287.218,479.469 289.73,482.559 291.723,480.938 Z M294.748,502.567 C292.754,504.188 290.241,501.098 292.235,499.477 L370.434,435.876 C372.427,434.255 374.94,437.344 372.946,438.966 L294.748,502.567 Z M315.497,509.779 L372.946,463.054 C374.94,461.433 372.427,458.344 370.434,459.965 L312.985,506.69 C310.991,508.311 313.504,511.4 315.497,509.779 Z M328.958,510.876 C326.965,512.497 324.452,509.407 326.446,507.786 L370.434,472.01 C372.427,470.389 374.94,473.478 372.946,475.099 L328.958,510.876 Z M344.418,510.346 C342.425,511.967 339.912,508.878 341.906,507.256 L370.434,484.053 C372.427,482.432 374.94,485.522 372.946,487.143 L344.418,510.346 Z M365.138,505.538 L372.173,499.817 C374.166,498.196 371.654,495.107 369.66,496.727 L362.626,502.448 C360.633,504.07 363.145,507.159 365.138,505.538 Z M303.856,507.203 L372.946,451.01 C374.94,449.388 372.427,446.299 370.434,447.92 L301.343,504.114 C299.349,505.735 301.862,508.825 303.856,507.203 Z M291.723,492.982 L372.932,426.932 C374.926,425.311 372.413,422.222 370.42,423.843 L289.211,489.892 C287.218,491.513 289.73,494.603 291.723,492.982 Z M291.723,444.804 C289.73,446.425 287.218,443.336 289.211,441.715 L334.852,404.593 C336.845,402.972 339.358,406.061 337.364,407.683 L291.723,444.804 Z M351.174,396.451 L370.064,381.087 C372.058,379.466 369.545,376.376 367.552,377.997 L348.661,393.362 C346.667,394.984 349.18,398.073 351.174,396.451 Z M294.458,382.358 L360.257,328.842 C362.25,327.22 359.738,324.131 357.744,325.752 L291.946,379.268 C289.952,380.889 292.465,383.979 294.458,382.358 Z M311.092,308.606 C309.098,310.227 306.586,307.138 308.58,305.517 L336.914,282.471 C338.907,280.85 341.42,283.94 339.426,285.562 L311.092,308.606 Z M305.437,325.25 C303.444,326.871 300.931,323.782 302.925,322.16 L343.033,289.539 C345.026,287.918 347.539,291.008 345.546,292.629 L305.437,325.25 Z M301.487,340.508 L350.195,300.892 C352.188,299.27 349.676,296.181 347.682,297.802 L298.974,337.418 C296.981,339.039 299.493,342.129 301.487,340.508 Z M298.505,354.978 L354.054,309.798 C356.048,308.176 353.535,305.086 351.542,306.707 L295.992,351.888 C293.999,353.509 296.511,356.599 298.505,354.978 Z M296.209,368.889 L357.365,319.149 C359.359,317.528 356.846,314.438 354.853,316.059 L293.697,365.8 C291.703,367.421 294.216,370.51 296.209,368.889 Z" id="Fill-16" fill="#000000" fill-rule="nonzero"></path>
            <path d="M290.467,704.852 L290.467,794.356 C295.517,800.037 309.378,803.356 324.382,804.157 L324.382,717.195 C324.332,714.986 324.348,712.925 324.418,711.004 C311.035,710.456 298.341,708.382 290.467,704.852 Z M337.776,804.202 C352.705,803.507 366.527,800.277 371.69,794.356 L371.69,704.942 C363.753,708.58 351.01,710.591 337.605,711.049 C337.716,712.956 337.776,715.003 337.776,717.195 L337.776,804.202 Z" id="Stroke-17" stroke="#000000" stroke-width="7.937" stroke-linecap="round" stroke-linejoin="round"></path>
            <path d="M291.723,763.548 C289.697,765.195 287.185,762.106 289.211,760.458 L323.125,732.874 C325.151,731.227 327.664,734.316 325.638,735.964 L291.723,763.548 Z M339.031,725.071 C337.006,726.718 334.493,723.628 336.519,721.981 L353.817,707.912 C355.842,706.265 358.355,709.354 356.328,711.002 L339.031,725.071 Z M291.723,775.592 L325.638,748.008 C327.664,746.361 325.151,743.271 323.125,744.918 L289.211,772.502 C287.185,774.151 289.697,777.239 291.723,775.592 Z M339.031,737.114 L372.946,709.531 C374.972,707.883 372.459,704.794 370.434,706.441 L336.519,734.026 C334.493,735.673 337.006,738.762 339.031,737.114 Z M291.723,787.636 L325.638,760.053 C327.664,758.405 325.151,755.316 323.125,756.963 L289.211,784.546 C287.185,786.195 289.697,789.283 291.723,787.636 Z M339.031,749.159 L372.946,721.575 C374.972,719.928 372.459,716.838 370.434,718.486 L336.519,746.07 C334.493,747.717 337.006,750.807 339.031,749.159 Z M293.948,797.871 C291.923,799.519 289.41,796.43 291.436,794.781 L323.125,769.007 C325.151,767.361 327.664,770.449 325.638,772.097 L293.948,797.871 Z M339.031,761.203 C337.006,762.851 334.493,759.762 336.519,758.114 L370.434,730.531 C372.459,728.883 374.972,731.972 372.946,733.62 L339.031,761.203 Z M315.174,804.697 L325.638,796.187 C327.664,794.538 325.151,791.449 323.125,793.096 L312.662,801.607 C310.635,803.255 313.148,806.344 315.174,804.697 Z M339.031,785.292 L372.946,757.709 C374.972,756.061 372.459,752.972 370.434,754.619 L336.519,782.202 C334.493,783.851 337.006,786.94 339.031,785.292 Z M339.031,797.337 C337.006,798.985 334.493,795.896 336.519,794.247 L370.434,766.664 C372.459,765.017 374.972,768.106 372.946,769.753 L339.031,797.337 Z M343.894,805.427 C341.868,807.074 339.355,803.985 341.382,802.337 L370.434,778.708 C372.459,777.061 374.972,780.15 372.946,781.798 L343.894,805.427 Z M363.392,801.613 L372.946,793.842 C374.972,792.195 372.459,789.106 370.434,790.752 L360.88,798.523 C358.854,800.171 361.366,803.26 363.392,801.613 Z M303.44,802.197 C301.414,803.843 298.902,800.754 300.927,799.107 L323.125,781.052 C325.151,779.405 327.664,782.493 325.638,784.142 L303.44,802.197 Z M339.031,773.248 C337.006,774.896 334.493,771.807 336.519,770.158 L370.434,742.574 C372.459,740.927 374.972,744.017 372.946,745.664 L339.031,773.248 Z M291.723,751.503 L325.638,723.919 C327.664,722.272 325.151,719.183 323.125,720.829 L289.211,748.413 C287.185,750.061 289.697,753.151 291.723,751.503 Z M338.891,713.14 C342.324,710.347 338.777,708.1 337.083,709.478 C333.649,712.27 337.197,714.519 338.891,713.14 Z M291.723,715.369 C289.697,717.017 287.185,713.927 289.211,712.28 L296.983,705.958 C299.009,704.312 301.521,707.401 299.495,709.048 L291.723,715.369 Z M291.723,727.414 C289.697,729.062 287.185,725.972 289.211,724.324 L308.973,708.251 C310.999,706.604 313.512,709.693 311.486,711.341 L291.723,727.414 Z M291.723,739.458 L324.853,712.513 C326.88,710.864 324.366,707.776 322.341,709.423 L289.211,736.368 C287.185,738.017 289.697,741.106 291.723,739.458 Z" id="Fill-18" fill="#000000" fill-rule="nonzero"></path>
            <path d="M371.296,823.492 C366.344,830.464 347.271,833.631 337.776,829.341 L337.776,804.203 C352.706,803.507 366.527,800.277 371.69,794.356 L371.296,823.492 Z M324.382,829.415 C315.428,833.303 295.603,829.673 290.467,823.492 L290.467,794.356 C295.517,800.038 309.378,803.356 324.382,804.156 L324.382,829.415 Z" id="Stroke-19" stroke="#000000" stroke-width="7.937" stroke-linecap="round" stroke-linejoin="round"></path>
            <path d="M365.513,430.411 C353.346,370.223 308.809,370.244 296.643,430.422 C314.262,397.482 347.894,397.469 365.513,430.411 Z" id="Stroke-20" stroke="#000000" stroke-width="7.937" stroke-linecap="round" stroke-linejoin="round"></path>
            <path d="M324.382,717.195 L324.382,855.966 C324.382,877.494 337.776,877.757 337.776,855.966 L337.776,717.195 C337.776,683.303 323.63,683.387 324.382,717.195 Z" id="Stroke-21" stroke="#000000" stroke-width="7.937" stroke-linecap="round" stroke-linejoin="round"></path>
            <path d="M1070.65,518.723 C1070.65,516.664 1072.32,514.995 1074.38,514.995 C1076.44,514.995 1078.11,516.664 1078.11,518.723 L1078.11,781.343 C1078.11,783.402 1076.44,785.072 1074.38,785.072 C1072.32,785.072 1070.65,783.402 1070.65,781.343 L1070.65,518.723 Z" id="Fill-22" fill="#000000" fill-rule="nonzero"></path>
            <path d="M919.524,483.584 L919.524,616.951 C903.404,621.819 875.582,622.04 859.496,617.071 L859.496,483.837 C872.732,491.026 906.288,490.683 919.524,483.584 Z M919.524,726.193 L919.524,848.196 C911.805,862.323 868.823,864.5 859.496,848.196 L859.496,726.367 C872.732,733.438 906.288,733.2 919.524,726.193 Z" id="Stroke-23" stroke="#000000" stroke-width="7.937" stroke-linecap="round" stroke-linejoin="round"></path>
            <path d="M925.016,614.933 L925.016,624.866 L925.016,719.404 C925.016,735.298 854.005,735.925 854.005,719.404 L854.005,614.933 C854.005,613.956 855.143,610.633 859.496,610.502 L859.496,617.071 C875.582,622.04 903.404,621.819 919.524,616.951 L919.524,610.502 C921.866,610.573 925.016,612.202 925.016,614.933 Z" id="Stroke-24" stroke="#000000" stroke-width="7.937" stroke-linecap="round" stroke-linejoin="round"></path>
            <path d="M855.26,625.16 C853.235,626.807 850.721,623.718 852.748,622.071 L860.127,616.07 C862.152,614.422 864.665,617.511 862.639,619.159 L855.26,625.16 Z M855.26,637.204 L874.712,621.385 C876.737,619.738 874.224,616.648 872.199,618.295 L852.748,634.114 C850.721,635.763 853.235,638.852 855.26,637.204 Z M855.26,649.249 L888.474,622.236 C890.501,620.587 887.988,617.498 885.962,619.145 L852.748,646.159 C850.721,647.807 853.235,650.897 855.26,649.249 Z M855.26,673.338 L926.175,615.662 C928.2,614.014 925.687,610.925 923.662,612.573 L852.748,670.248 C850.721,671.896 853.235,674.986 855.26,673.338 Z M855.26,685.382 L926.272,627.626 C928.299,625.979 925.786,622.89 923.76,624.536 L852.748,682.293 C850.721,683.941 853.235,687.031 855.26,685.382 Z M855.26,697.427 C853.235,699.074 850.721,695.985 852.748,694.337 L923.76,636.581 C925.786,634.934 928.299,638.023 926.272,639.671 L855.26,697.427 Z M855.297,721.487 C853.27,723.134 850.759,720.044 852.784,718.397 L923.76,660.67 C925.786,659.023 928.299,662.112 926.272,663.76 L855.297,721.487 Z M872.469,731.608 C870.444,733.255 867.931,730.165 869.958,728.518 L923.76,684.759 C925.785,683.112 928.298,686.202 926.272,687.849 L872.469,731.608 Z M885.555,733.009 L926.272,699.894 C928.298,698.245 925.785,695.156 923.76,696.803 L883.044,729.92 C881.017,731.568 883.53,734.656 885.555,733.009 Z M900.851,732.613 L926.272,711.938 C928.298,710.289 925.785,707.2 923.76,708.848 L898.339,729.523 C896.313,731.171 898.826,734.26 900.851,732.613 Z M861.65,728.364 C859.624,730.011 857.111,726.922 859.137,725.274 L923.76,672.714 C925.785,671.067 928.298,674.156 926.272,675.804 L861.65,728.364 Z M855.26,709.472 C853.235,711.118 850.721,708.03 852.748,706.382 L923.76,648.625 C925.786,646.978 928.299,650.068 926.272,651.715 L855.26,709.472 Z M855.26,661.293 L904.097,621.573 C906.124,619.925 903.611,616.836 901.586,618.483 L852.748,658.203 C850.721,659.852 853.235,662.941 855.26,661.293 Z" id="Fill-25" fill="#000000" fill-rule="nonzero"></path>
            <path d="M924.474,879.161 L919.524,848.196 C910.977,863.067 868.282,863.773 859.496,848.196 L854.546,879.161 C861.483,898.466 915.805,898.422 924.474,879.161 Z" id="Stroke-26" stroke="#000000" stroke-width="7.937" stroke-linecap="round" stroke-linejoin="round"></path>
            <path d="M925.016,293.838 L925.016,476.732 C925.016,492.729 854.005,493.635 854.005,476.732 L854.005,437.11 C854.005,376.739 875.436,332.974 906.705,286.986 C924.084,261.427 925.016,276.081 925.016,293.838 Z" id="Stroke-27" stroke="#000000" stroke-width="7.937" stroke-linecap="round" stroke-linejoin="round"></path>
            <path d="M908.991,287.039 C906.966,288.686 904.452,285.597 906.478,283.949 L920.335,272.679 C922.36,271.032 924.873,274.121 922.846,275.769 L908.991,287.039 Z M913.942,487.767 C911.917,489.414 909.404,486.325 911.429,484.677 L923.76,474.649 C925.786,473.002 928.299,476.091 926.272,477.739 L913.942,487.767 Z M895.81,490.47 L926.272,465.695 C928.299,464.046 925.786,460.957 923.76,462.605 L893.298,487.381 C891.271,489.029 893.784,492.118 895.81,490.47 Z M892.612,312.404 L926.025,285.229 C928.051,283.581 925.538,280.492 923.512,282.139 L890.1,309.315 C888.074,310.962 890.587,314.052 892.612,312.404 Z M880.485,334.311 C878.46,335.959 875.947,332.869 877.973,331.222 L923.76,293.982 C925.786,292.335 928.299,295.424 926.272,297.072 L880.485,334.311 Z M871.76,353.453 C869.734,355.1 867.221,352.011 869.248,350.364 L923.76,306.027 C925.786,304.379 928.299,307.468 926.272,309.116 L871.76,353.453 Z M861.248,386.092 L926.272,333.205 C928.299,331.557 925.786,328.469 923.76,330.115 L858.735,383.002 C856.709,384.65 859.222,387.739 861.248,386.092 Z M858.338,400.503 L926.272,345.25 C928.299,343.602 925.786,340.512 923.76,342.16 L855.825,397.413 C853.8,399.061 856.312,402.15 858.338,400.503 Z M856.509,414.035 L926.272,357.294 C928.299,355.646 925.786,352.557 923.76,354.204 L853.996,410.945 C851.97,412.594 854.483,415.682 856.509,414.035 Z M855.26,439.139 C853.235,440.787 850.721,437.698 852.748,436.05 L923.76,378.293 C925.786,376.646 928.299,379.735 926.272,381.383 L855.26,439.139 Z M855.26,463.228 C853.235,464.876 850.721,461.786 852.748,460.138 L923.76,402.382 C925.786,400.735 928.299,403.824 926.272,405.472 L855.26,463.228 Z M855.26,475.273 L926.272,417.517 C928.299,415.868 925.786,412.78 923.76,414.427 L852.748,472.183 C850.721,473.831 853.235,476.92 855.26,475.273 Z M858.984,484.288 L926.272,429.561 C928.299,427.913 925.786,424.824 923.76,426.471 L856.471,481.198 C854.446,482.847 856.959,485.936 858.984,484.288 Z M868.815,488.337 L926.272,441.605 C928.299,439.958 925.786,436.868 923.76,438.515 L866.302,485.247 C864.276,486.895 866.79,489.984 868.815,488.337 Z M881.25,490.269 L926.272,453.65 C928.299,452.002 925.786,448.913 923.76,450.561 L878.737,487.179 C876.711,488.827 879.223,491.916 881.25,490.269 Z M855.26,451.184 C853.235,452.831 850.721,449.742 852.748,448.094 L923.76,390.338 C925.786,388.691 928.299,391.78 926.272,393.427 L855.26,451.184 Z M855.543,426.866 C853.516,428.513 851.004,425.424 853.03,423.776 L923.76,366.249 C925.786,364.602 928.299,367.691 926.272,369.338 L855.543,426.866 Z M865.571,370.531 L926.272,321.161 C928.299,319.513 925.786,316.424 923.76,318.072 L863.058,367.442 C861.032,369.09 863.546,372.178 865.571,370.531 Z" id="Fill-28" fill="#000000" fill-rule="nonzero"></path>
            <path d="M925.016,631.632 C930.881,631.632 935.677,636.531 935.677,642.516 L935.677,687.516 C935.677,693.501 930.881,698.4 925.016,698.4 L925.016,631.632 Z M925.016,330.097 C930.881,330.097 935.677,334.994 935.677,340.98 L935.677,433.136 C935.677,439.122 930.881,444.019 925.016,444.019 L925.016,330.097 Z" id="Stroke-29" stroke="#000000" stroke-width="7.937" stroke-linecap="round" stroke-linejoin="round"></path>
            <path d="M700.546,331.645 L700.546,458.564 C702.886,458.634 706.037,460.264 706.037,462.994 L706.037,479.694 C711.901,479.694 716.698,484.592 716.698,490.577 L716.698,535.577 C716.698,541.563 711.901,546.461 706.037,546.461 L706.037,567.465 C706.037,570.175 703.969,572.441 700.545,574.253 L700.546,696.257 L705.495,727.223 C696.826,746.484 642.504,746.528 635.567,727.223 L640.517,696.257 L640.517,574.429 C637.092,572.599 635.025,570.281 635.025,567.465 L635.025,462.994 C635.025,462.018 636.165,458.695 640.517,458.564 L640.517,331.899 C637.093,330.038 635.025,327.675 635.025,324.793 L635.025,285.172 C635.025,224.801 656.457,181.036 687.726,135.048 C705.104,109.488 706.037,124.143 706.037,141.9 L706.037,178.158 C711.901,178.158 716.698,183.056 716.698,189.042 L716.698,281.198 C716.698,287.184 711.901,292.081 706.037,292.081 L706.037,324.793 C706.037,327.52 703.97,329.809 700.546,331.645 Z" id="Stroke-30" stroke="#000000" stroke-width="7.937" stroke-linecap="round" stroke-linejoin="round"></path>
            <path d="M1438.2,331.645 L1438.2,458.564 C1435.86,458.634 1432.71,460.264 1432.71,462.995 L1432.71,479.694 C1426.84,479.694 1422.05,484.592 1422.05,490.577 L1422.05,535.578 C1422.05,541.563 1426.84,546.461 1432.71,546.461 L1432.71,567.465 C1432.71,570.175 1434.77,572.441 1438.2,574.254 L1438.2,696.257 L1433.25,727.223 C1441.92,746.484 1496.24,746.528 1503.18,727.223 L1498.23,696.257 L1498.23,574.429 C1501.65,572.599 1503.72,570.282 1503.72,567.465 L1503.72,462.995 C1503.72,462.018 1502.58,458.695 1498.23,458.564 L1498.23,331.899 C1501.65,330.039 1503.72,327.675 1503.72,324.793 L1503.72,285.172 C1503.72,224.801 1482.29,181.036 1451.02,135.048 C1433.64,109.489 1432.71,124.143 1432.71,141.9 L1432.71,178.159 C1426.84,178.159 1422.05,183.056 1422.05,189.042 L1422.05,281.198 C1422.05,287.184 1426.84,292.081 1432.71,292.081 L1432.71,324.793 C1432.71,327.52 1434.77,329.809 1438.2,331.645 Z" id="Stroke-31" stroke="#000000" stroke-width="7.937" stroke-linecap="round" stroke-linejoin="round"></path>
            <path d="M1341.07,483.584 L1341.07,610.502 C1338.73,610.573 1335.58,612.202 1335.58,614.933 L1335.58,631.632 C1329.72,631.632 1324.92,636.531 1324.92,642.516 L1324.92,687.516 C1324.92,693.502 1329.72,698.4 1335.58,698.4 L1335.58,719.404 C1335.58,722.114 1337.65,724.379 1341.07,726.193 L1341.07,848.196 L1336.12,879.161 C1344.79,898.422 1399.11,898.467 1406.05,879.161 L1401.1,848.196 L1401.1,726.367 C1404.52,724.538 1406.59,722.221 1406.59,719.404 L1406.59,614.933 C1406.59,613.956 1405.45,610.634 1401.1,610.502 L1401.1,483.837 C1404.52,481.977 1406.59,479.614 1406.59,476.732 L1406.59,437.111 C1406.59,376.739 1385.16,332.974 1353.89,286.986 C1336.51,261.427 1335.58,276.082 1335.58,293.838 L1335.58,330.097 C1329.72,330.097 1324.92,334.994 1324.92,340.98 L1324.92,433.136 C1324.92,439.122 1329.72,444.02 1335.58,444.02 L1335.58,476.732 C1335.58,479.459 1337.65,481.747 1341.07,483.584 Z" id="Stroke-32" stroke="#000000" stroke-width="7.937" stroke-linecap="round" stroke-linejoin="round"></path>
            <path d="M335.223,71.715 C335.223,69.03 331.082,69.001 331.082,71.715 L331.082,92.422 C331.082,95.108 335.223,95.135 335.223,92.422 L335.223,71.715 Z M335.223,113.129 C335.223,110.443 331.082,110.415 331.082,113.129 L331.082,133.835 C331.082,136.521 335.223,136.549 335.223,133.835 L335.223,113.129 Z M335.223,154.542 C335.223,151.857 331.082,151.828 331.082,154.542 L331.082,175.249 C331.082,177.935 335.223,177.962 335.223,175.249 L335.223,154.542 Z M335.223,195.955 C335.223,193.27 331.082,193.241 331.082,195.955 L331.082,216.662 C331.082,219.347 335.223,219.376 335.223,216.662 L335.223,195.955 Z M335.223,237.369 C335.223,234.684 331.082,234.656 331.082,237.369 L331.082,258.076 C331.082,260.761 335.223,260.789 335.223,258.076 L335.223,237.369 Z M335.223,278.782 C335.223,276.097 331.082,276.069 331.082,278.782 L331.082,299.489 C331.082,302.175 335.223,302.203 335.223,299.489 L335.223,278.782 Z M335.223,320.196 C335.223,317.51 331.082,317.482 331.082,320.196 L331.082,340.903 C331.082,343.588 335.223,343.616 335.223,340.903 L335.223,320.196 Z M335.223,361.61 C335.223,358.924 331.082,358.896 331.082,361.61 L331.082,382.316 C331.082,385.002 335.223,385.03 335.223,382.316 L335.223,361.61 Z M335.223,403.023 C335.223,400.338 331.082,400.309 331.082,403.023 L331.082,423.73 C331.082,426.415 335.223,426.444 335.223,423.73 L335.223,403.023 Z M335.223,444.436 C335.223,441.751 331.082,441.723 331.082,444.436 L331.082,465.143 C331.082,467.829 335.223,467.857 335.223,465.143 L335.223,444.436 Z M335.223,485.85 C335.223,483.164 331.082,483.136 331.082,485.85 L331.082,506.557 C331.082,509.242 335.223,509.271 335.223,506.557 L335.223,485.85 Z M335.223,527.263 C335.223,524.578 331.082,524.55 331.082,527.263 L331.082,547.97 C331.082,550.656 335.223,550.684 335.223,547.97 L335.223,527.263 Z M335.223,568.677 C335.223,565.991 331.082,565.963 331.082,568.677 L331.082,589.384 C331.082,592.07 335.223,592.097 335.223,589.384 L335.223,568.677 Z M335.223,610.09 C335.223,607.405 331.082,607.377 331.082,610.09 L331.082,630.797 C331.082,633.483 335.223,633.511 335.223,630.797 L335.223,610.09 Z M335.223,651.504 C335.223,648.819 331.082,648.79 331.082,651.504 L331.082,672.21 C331.082,674.896 335.223,674.924 335.223,672.21 L335.223,651.504 Z" id="Fill-33" fill="#000000" fill-rule="nonzero"></path>
            <path d="M993.759,19.73 C991.055,19.73 991.055,15.59 993.759,15.59 L1150.86,15.59 C1153.56,15.59 1153.56,19.73 1150.86,19.73 L993.759,19.73 Z" id="Fill-34" fill="#000000" fill-rule="nonzero"></path>
            <path d="M1015.5,215.197 C1015.5,217.917 1011.37,217.917 1011.37,215.197 L1011.37,2.04 C1011.37,-0.68 1015.5,-0.68 1015.5,2.04 L1015.5,215.197 Z" id="Fill-35" fill="#000000" fill-rule="nonzero"></path>
            <path d="M1137.65,215.197 C1137.65,217.917 1133.53,217.917 1133.53,215.197 L1133.53,2.04 C1133.53,-0.68 1137.65,-0.68 1137.65,2.04 L1137.65,215.197 Z" id="Fill-36" fill="#000000" fill-rule="nonzero"></path>
            <path d="M1003.11,30.819 C1001.26,32.667 998.427,29.835 1000.28,27.987 L1023.76,4.51 C1025.61,2.66 1028.44,5.49 1026.59,7.34 L1003.11,30.819 Z" id="Fill-37" fill="#000000" fill-rule="nonzero"></path>
            <path d="M1125.27,30.819 C1123.42,32.667 1120.58,29.835 1122.43,27.987 L1145.91,4.51 C1147.76,2.66 1150.59,5.49 1148.75,7.34 L1125.27,30.819 Z" id="Fill-38" fill="#000000" fill-rule="nonzero"></path>
            <path d="M271.014,152.435 C268.311,152.435 268.311,148.293 271.014,148.293 L387.453,148.293 C390.155,148.293 390.155,152.435 387.453,152.435 L271.014,152.435 Z" id="Fill-39" fill="#000000" fill-rule="nonzero"></path>
            <path d="M280.217,204.966 C277.515,204.966 277.515,200.824 280.217,200.824 L377.817,200.824 C380.52,200.824 380.52,204.966 377.817,204.966 L280.217,204.966 Z" id="Fill-40" fill="#000000" fill-rule="nonzero"></path>
            <path d="M555.423,920.298 C558.125,920.298 558.125,924.4403 555.423,924.4403 L110.998,924.4403 C108.295,924.4403 108.295,920.298 110.998,920.298 L555.423,920.298 Z" id="Fill-41" fill="#000000" fill-rule="nonzero"></path>
            <path d="M391.465,893.358 C394.167,893.358 394.167,897.499 391.465,897.499 L274.146,897.499 C271.444,897.499 271.444,893.358 274.146,893.358 L391.465,893.358 Z" id="Fill-42" fill="#000000" fill-rule="nonzero"></path>
            <path d="M292.753,450.726 C292.753,453.446 288.624,453.446 288.624,450.726 L288.624,134.74 C288.624,132.02 292.753,132.02 292.753,134.74 L292.753,450.726 Z" id="Fill-43" fill="#000000" fill-rule="nonzero"></path>
            <path d="M301.957,422.783 C301.957,425.504 297.827,425.504 297.827,422.783 L297.827,187.272 C297.827,184.551 301.957,184.551 301.957,187.272 L301.957,422.783 Z" id="Fill-44" fill="#000000" fill-rule="nonzero"></path>
            <path d="M533.683,744.215 C533.683,741.494 537.813,741.494 537.813,744.215 L537.813,937.9923 C537.813,940.7132 533.683,940.7132 533.683,937.9923 L533.683,744.215 Z" id="Fill-45" fill="#000000" fill-rule="nonzero"></path>
            <path d="M369.725,717.275 C369.725,714.554 373.855,714.554 373.855,717.275 L373.855,911.052 C373.855,913.773 369.725,913.773 369.725,911.052 L369.725,717.275 Z" id="Fill-46" fill="#000000" fill-rule="nonzero"></path>
            <path d="M374.246,450.726 C374.246,453.446 370.117,453.446 370.117,450.726 L370.117,134.74 C370.117,132.02 374.246,132.02 374.246,134.74 L374.246,450.726 Z" id="Fill-47" fill="#000000" fill-rule="nonzero"></path>
            <path d="M363.546,422.783 C363.546,425.504 359.416,425.504 359.416,422.783 L359.416,187.272 C359.416,184.551 363.546,184.551 363.546,187.272 L363.546,422.783 Z" id="Fill-48" fill="#000000" fill-rule="nonzero"></path>
            <path d="M125.269,744.215 C125.269,741.494 129.399,741.494 129.399,744.215 L129.399,937.9923 C129.399,940.7132 125.269,940.7132 125.269,937.9923 L125.269,744.215 Z" id="Fill-49" fill="#000000" fill-rule="nonzero"></path>
            <path d="M288.418,717.275 C288.418,714.554 292.547,714.554 292.547,717.275 L292.547,911.052 C292.547,913.773 288.418,913.773 288.418,911.052 L288.418,717.275 Z" id="Fill-50" fill="#000000" fill-rule="nonzero"></path>
            <path d="M280.364,163.52 C278.516,165.369 275.683,162.536 277.531,160.688 L301.012,137.207 C302.861,135.359 305.694,138.192 303.845,140.04 L280.364,163.52 Z" id="Fill-51" fill="#000000" fill-rule="nonzero"></path>
            <path d="M289.568,216.052 C287.719,217.901 284.886,215.068 286.735,213.219 L310.216,189.739 C312.064,187.89 314.897,190.723 313.049,192.572 L289.568,216.052 Z" id="Fill-52" fill="#000000" fill-rule="nonzero"></path>
            <path d="M546.072,909.212 C547.921,907.364 550.753,910.197 548.905,912.045 L525.424,935.5263 C523.575,937.3742 520.743,934.5412 522.591,932.6932 L546.072,909.212 Z" id="Fill-53" fill="#000000" fill-rule="nonzero"></path>
            <path d="M382.114,882.272 C383.962,880.423 386.795,883.256 384.947,885.105 L361.466,908.585 C359.617,910.434 356.785,907.601 358.633,905.752 L382.114,882.272 Z" id="Fill-54" fill="#000000" fill-rule="nonzero"></path>
            <path d="M361.858,163.52 C360.009,165.369 357.177,162.536 359.025,160.688 L382.506,137.207 C384.354,135.359 387.187,138.192 385.339,140.04 L361.858,163.52 Z" id="Fill-55" fill="#000000" fill-rule="nonzero"></path>
            <path d="M352.222,216.052 C350.374,217.901 347.541,215.068 349.389,213.219 L372.87,189.739 C374.718,187.89 377.552,190.723 375.703,192.572 L352.222,216.052 Z" id="Fill-56" fill="#000000" fill-rule="nonzero"></path>
            <path d="M136.593,909.212 C138.441,907.364 141.274,910.197 139.426,912.045 L115.945,935.5263 C114.096,937.3742 111.263,934.5412 113.112,932.6932 L136.593,909.212 Z" id="Fill-57" fill="#000000" fill-rule="nonzero"></path>
            <path d="M299.741,882.272 C301.59,880.423 304.423,883.256 302.574,885.105 L279.093,908.585 C277.245,910.434 274.412,907.601 276.26,905.752 L299.741,882.272 Z" id="Fill-58" fill="#000000" fill-rule="nonzero"></path>
            <path d="M833.918,209.615 C831.216,209.615 831.216,205.474 833.918,205.474 L940.351,205.474 C943.053,205.474 943.053,209.615 940.351,209.615 L833.918,209.615 Z" id="Fill-59" fill="#000000" fill-rule="nonzero"></path>
            <path d="M835.297,166.765 C832.594,166.765 832.594,162.624 835.297,162.624 L952.162,162.624 C954.864,162.624 954.864,166.765 952.162,166.765 L835.297,166.765 Z" id="Fill-60" fill="#000000" fill-rule="nonzero"></path>
            <path d="M855.657,433.732 C855.657,436.452 851.528,436.452 851.528,433.732 L851.528,153.263 C851.528,150.543 855.657,150.543 855.657,153.263 L855.657,433.732 Z" id="Fill-61" fill="#000000" fill-rule="nonzero"></path>
            <path d="M927.145,314.943 C927.145,317.663 923.015,317.663 923.015,314.943 L923.015,191.921 C923.015,189.201 927.145,189.201 927.145,191.921 L927.145,314.943 Z" id="Fill-62" fill="#000000" fill-rule="nonzero"></path>
            <path d="M938.956,354.05 C938.956,356.77 934.826,356.77 934.826,354.05 L934.826,149.072 C934.826,146.351 938.956,146.351 938.956,149.072 L938.956,354.05 Z" id="Fill-63" fill="#000000" fill-rule="nonzero"></path>
            <path d="M843.268,220.701 C841.421,222.55 838.588,219.717 840.436,217.869 L863.917,194.388 C865.765,192.539 868.597,195.372 866.75,197.221 L843.268,220.701 Z" id="Fill-64" fill="#000000" fill-rule="nonzero"></path>
            <path d="M844.647,177.852 C842.799,179.7 839.967,176.867 841.814,175.019 L865.296,151.538 C867.144,149.689 869.976,152.523 868.129,154.371 L844.647,177.852 Z" id="Fill-65" fill="#000000" fill-rule="nonzero"></path>
            <path d="M914.757,220.701 C912.908,222.55 910.075,219.717 911.924,217.869 L935.404,194.388 C937.253,192.539 940.086,195.372 938.237,197.221 L914.757,220.701 Z" id="Fill-66" fill="#000000" fill-rule="nonzero"></path>
            <path d="M926.567,177.852 C924.718,179.7 921.885,176.867 923.734,175.019 L947.215,151.538 C949.063,149.689 951.896,152.523 950.048,154.371 L926.567,177.852 Z" id="Fill-67" fill="#000000" fill-rule="nonzero"></path>
            <path d="M1175.03,1001.4452 C1177.73,1001.4452 1177.73,1005.5862 1175.03,1005.5862 L978.688,1005.5862 C975.986,1005.5862 975.986,1001.4452 978.688,1001.4452 L1175.03,1001.4452 Z" id="Fill-68" fill="#000000" fill-rule="nonzero"></path>
            <path d="M1153.29,885.71 C1153.29,882.989 1157.42,882.989 1157.42,885.71 L1157.42,1019.1392 C1157.42,1021.8603 1153.29,1021.8603 1153.29,1019.1392 L1153.29,885.71 Z" id="Fill-69" fill="#000000" fill-rule="nonzero"></path>
            <path d="M991.894,885.71 C991.894,882.989 996.023,882.989 996.023,885.71 L996.023,1019.1392 C996.023,1021.8603 991.894,1021.8603 991.894,1019.1392 L991.894,885.71 Z" id="Fill-70" fill="#000000" fill-rule="nonzero"></path>
            <path d="M1165.68,990.3592 C1167.53,988.5102 1170.36,991.3433 1168.51,993.1923 L1145.03,1016.6722 C1143.18,1018.5212 1140.35,1015.6883 1142.2,1013.8393 L1165.68,990.3592 Z" id="Fill-71" fill="#000000" fill-rule="nonzero"></path>
            <path d="M1004.28,990.3592 C1006.13,988.5102 1008.97,991.3433 1007.12,993.1923 L983.636,1016.6722 C981.787,1018.5212 978.954,1015.6883 980.802,1013.8393 L1004.28,990.3592 Z" id="Fill-72" fill="#000000" fill-rule="nonzero"></path>
            <path d="M1175.01,956.2763 C1177.71,956.2763 1177.71,960.4172 1175.01,960.4172 L1063.89,960.4172 C1061.19,960.4172 1061.19,956.2763 1063.89,956.2763 L1175.01,956.2763 Z" id="Fill-73" fill="#000000" fill-rule="nonzero"></path>
            <path d="M1077.1,885.71 C1077.1,882.989 1081.23,882.989 1081.23,885.71 L1081.23,973.9703 C1081.23,976.6912 1077.1,976.6912 1077.1,973.9703 L1077.1,885.71 Z" id="Fill-74" fill="#000000" fill-rule="nonzero"></path>
            <path d="M1165.66,945.1903 C1167.51,943.3413 1170.34,946.1742 1168.49,948.0232 L1145.01,971.5032 C1143.16,973.3522 1140.33,970.5192 1142.18,968.6702 L1165.66,945.1903 Z" id="Fill-75" fill="#000000" fill-rule="nonzero"></path>
            <path d="M1089.49,945.1903 C1091.33,943.3413 1094.17,946.1742 1092.32,948.0232 L1068.84,971.5032 C1066.99,973.3522 1064.16,970.5192 1066.01,968.6702 L1089.49,945.1903 Z" id="Fill-76" fill="#000000" fill-rule="nonzero"></path>
            <path d="M922.569,880.389 C922.569,877.668 926.698,877.668 926.698,880.389 L926.698,970.2282 C926.698,972.9482 922.569,972.9482 922.569,970.2282 L922.569,880.389 Z" id="Fill-77" fill="#000000" fill-rule="nonzero"></path>
            <path d="M944.286,950.9542 C946.988,950.9542 946.988,955.0962 944.286,955.0962 L838.482,955.0962 C835.779,955.0962 835.779,950.9542 838.482,950.9542 L944.286,950.9542 Z" id="Fill-78" fill="#000000" fill-rule="nonzero"></path>
            <path d="M851.688,880.389 C851.688,877.668 855.817,877.668 855.817,880.389 L855.817,968.6493 C855.817,971.3693 851.688,971.3693 851.688,968.6493 L851.688,880.389 Z" id="Fill-79" fill="#000000" fill-rule="nonzero"></path>
            <path d="M934.935,939.8692 C936.784,938.0202 939.616,940.8532 937.768,942.7012 L914.288,966.1822 C912.439,968.0312 909.605,965.1982 911.454,963.3493 L934.935,939.8692 Z" id="Fill-80" fill="#000000" fill-rule="nonzero"></path>
            <path d="M864.077,939.8692 C865.926,938.0202 868.758,940.8532 866.91,942.7012 L843.428,966.1822 C841.58,968.0312 838.747,965.1982 840.595,963.3493 L864.077,939.8692 Z" id="Fill-81" fill="#000000" fill-rule="nonzero"></path>
            <path d="M891.056,487.494 C893.76,487.494 893.76,491.636 891.056,491.636 L785.081,491.636 C782.379,491.636 782.379,487.494 785.081,487.494 L891.056,487.494 Z" id="Fill-82" fill="#000000" fill-rule="nonzero"></path>
            <path d="M921.838,271.545 C924.539,271.545 924.539,275.645 921.838,275.645 L748.566,275.645 C745.865,275.645 745.865,271.545 748.566,271.545 L921.838,271.545 Z" id="Fill-83" fill="#000000" fill-rule="nonzero"></path>
            <path d="M805.45,259.06 C805.45,256.384 809.591,256.384 809.591,259.06 L809.591,501.028 C809.591,503.704 805.45,503.704 805.45,501.028 L805.45,259.06 Z" id="Fill-84" fill="#000000" fill-rule="nonzero"></path>
            <path d="M766.574,259.06 C766.574,256.384 770.715,256.384 770.715,259.06 L770.715,872.956 C770.715,875.633 766.574,875.633 766.574,872.956 L766.574,259.06 Z" id="Fill-85" fill="#000000" fill-rule="nonzero"></path>
            <path d="M817.843,476.408 C819.692,474.56 822.525,477.393 820.677,479.241 L797.196,502.722 C795.347,504.571 792.514,501.738 794.363,499.89 L817.843,476.408 Z" id="Fill-86" fill="#000000" fill-rule="nonzero"></path>
            <path d="M778.968,847.272 C780.817,845.424 783.649,848.256 781.802,850.106 L758.32,873.586 C756.471,875.434 753.638,872.602 755.487,870.753 L778.968,847.272 Z" id="Fill-87" fill="#000000" fill-rule="nonzero"></path>
            <path d="M817.843,260.438 C819.692,258.59 822.525,261.423 820.677,263.271 L797.196,286.752 C795.347,288.6 792.514,285.767 794.363,283.919 L817.843,260.438 Z" id="Fill-88" fill="#000000" fill-rule="nonzero"></path>
            <path d="M778.968,260.438 C780.817,258.59 783.649,261.423 781.802,263.271 L758.32,286.752 C756.471,288.6 753.638,285.767 755.487,283.919 L778.968,260.438 Z" id="Fill-89" fill="#000000" fill-rule="nonzero"></path>
            <path d="M891.056,729.566 C893.76,729.566 893.76,733.707 891.056,733.707 L788.577,733.707 C785.875,733.707 785.875,729.566 788.577,729.566 L891.056,729.566 Z" id="Fill-90" fill="#000000" fill-rule="nonzero"></path>
            <path d="M331.382,693.727 C328.679,693.727 328.679,689.584 331.382,689.584 L596.499,689.584 C599.202,689.584 599.202,693.727 596.499,693.727 L331.382,693.727 Z" id="Fill-91" fill="#000000" fill-rule="nonzero"></path>
            <path d="M332.497,282.502 C329.795,282.502 329.795,278.36 332.497,278.36 L488.013,278.36 C490.716,278.36 490.716,282.502 488.013,282.502 L332.497,282.502 Z" id="Fill-92" fill="#000000" fill-rule="nonzero"></path>
            <path d="M290.467,789.915 C293.17,789.915 293.17,794.057 290.467,794.057 L2.0272,794.057 C-0.6757,794.057 -0.6757,789.915 2.0272,789.915 L290.467,789.915 Z" id="Fill-93" fill="#000000" fill-rule="nonzero"></path>
            <path d="M895.019,618.536 C897.72,618.536 897.72,622.637 895.019,622.637 L796.498,622.637 C793.798,622.637 793.798,618.536 796.498,618.536 L895.019,618.536 Z" id="Fill-94" fill="#000000" fill-rule="nonzero"></path>
            <path d="M330.86,875.61 C328.159,875.61 328.159,871.51 330.86,871.51 L588.21,871.51 C590.911,871.51 590.911,875.61 588.21,875.61 L330.86,875.61 Z" id="Fill-95" fill="#000000" fill-rule="nonzero"></path>
            <path d="M331.975,512.115 C329.274,512.115 329.274,508.015 331.975,508.015 L479.724,508.015 C482.425,508.015 482.425,512.115 479.724,512.115 L331.975,512.115 Z" id="Fill-96" fill="#000000" fill-rule="nonzero"></path>
            <path d="M294.43,748.555 C297.131,748.555 297.131,752.656 294.43,752.656 L82.7332,752.656 C80.0322,752.656 80.0322,748.555 82.7332,748.555 L294.43,748.555 Z" id="Fill-97" fill="#000000" fill-rule="nonzero"></path>
            <path d="M294.43,448.41 C297.131,448.41 297.131,452.51 294.43,452.51 L46.9673,452.51 C44.2663,452.51 44.2663,448.41 46.9673,448.41 L294.43,448.41 Z" id="Fill-98" fill="#000000" fill-rule="nonzero"></path>
            <path d="M331.096,278.36 C333.798,278.36 333.798,282.46 331.096,282.46 L8.0853,282.46 C5.3852,282.46 5.3852,278.36 8.0853,278.36 L331.096,278.36 Z" id="Fill-99" fill="#000000" fill-rule="nonzero"></path>
            <path d="M809.301,606.052 C809.301,603.375 813.442,603.375 813.442,606.052 L813.087,743.099 C813.087,745.776 808.945,745.776 808.945,743.099 L809.301,606.052 Z" id="Fill-100" fill="#000000" fill-rule="nonzero"></path>
            <path d="M575.407,888.095 C575.407,890.772 571.266,890.772 571.266,888.095 L571.99,680.193 C571.99,677.516 576.131,677.516 576.131,680.193 L575.407,888.095 Z" id="Fill-101" fill="#000000" fill-rule="nonzero"></path>
            <path d="M466.921,524.6 C466.921,527.276 462.781,527.276 462.781,524.6 L463.505,268.968 C463.505,266.292 467.645,266.292 467.645,268.968 L466.921,524.6 Z" id="Fill-102" fill="#000000" fill-rule="nonzero"></path>
            <path d="M95.5362,736.071 C95.5362,733.394 99.6772,733.394 99.6772,736.071 L99.3223,803.448 C99.3223,806.125 95.1803,806.125 95.1803,803.448 L95.5362,736.071 Z" id="Fill-103" fill="#000000" fill-rule="nonzero"></path>
            <path d="M59.7703,435.925 C59.7703,433.248 63.9112,433.248 63.9112,435.925 L63.5562,803.448 C63.5562,806.125 59.4153,806.125 59.4153,803.448 L59.7703,435.925 Z" id="Fill-104" fill="#000000" fill-rule="nonzero"></path>
            <path d="M20.8882,265.875 C20.8882,263.198 25.0292,263.198 25.0292,265.875 L24.4373,803.448 C24.4373,806.125 20.2963,806.125 20.2963,803.448 L20.8882,265.875 Z" id="Fill-105" fill="#000000" fill-rule="nonzero"></path>
            <path d="M821.34,718.48 C823.188,716.631 826.021,719.464 824.173,721.313 L800.692,744.793 C798.843,746.642 796.01,743.809 797.859,741.96 L821.34,718.48 Z" id="Fill-106" fill="#000000" fill-rule="nonzero"></path>
            <path d="M563.737,704.813 C561.888,706.66 559.055,703.827 560.904,701.979 L584.384,678.498 C586.233,676.65 589.066,679.483 587.218,681.331 L563.737,704.813 Z" id="Fill-107" fill="#000000" fill-rule="nonzero"></path>
            <path d="M455.251,293.588 C453.402,295.436 450.57,292.603 452.418,290.755 L475.899,267.274 C477.747,265.425 480.58,268.258 478.732,270.107 L455.251,293.588 Z" id="Fill-108" fill="#000000" fill-rule="nonzero"></path>
            <path d="M107.575,778.829 C109.424,776.981 112.257,779.814 110.408,781.662 L86.9272,805.143 C85.0793,806.991 82.2462,804.158 84.0943,802.31 L107.575,778.829 Z" id="Fill-109" fill="#000000" fill-rule="nonzero"></path>
            <path d="M71.8093,778.829 C73.6572,776.981 76.4903,779.814 74.6422,781.662 L51.1612,805.143 C49.3132,806.991 46.4802,804.158 48.3282,802.31 L71.8093,778.829 Z" id="Fill-110" fill="#000000" fill-rule="nonzero"></path>
            <path d="M32.6902,778.829 C34.5392,776.981 37.3712,779.814 35.5242,781.662 L12.0422,805.143 C10.1942,806.991 7.3612,804.158 9.2092,802.31 L32.6902,778.829 Z" id="Fill-111" fill="#000000" fill-rule="nonzero"></path>
            <path d="M821.695,607.43 C823.544,605.581 826.377,608.414 824.528,610.263 L801.048,633.743 C799.199,635.592 796.366,632.759 798.215,630.911 L821.695,607.43 Z" id="Fill-112" fill="#000000" fill-rule="nonzero"></path>
            <path d="M563.013,886.717 C561.164,888.566 558.331,885.733 560.18,883.884 L583.66,860.403 C585.509,858.555 588.342,861.388 586.493,863.236 L563.013,886.717 Z" id="Fill-113" fill="#000000" fill-rule="nonzero"></path>
            <path d="M454.527,523.222 C452.678,525.07 449.845,522.238 451.694,520.389 L475.175,496.908 C477.023,495.06 479.856,497.893 478.008,499.741 L454.527,523.222 Z" id="Fill-114" fill="#000000" fill-rule="nonzero"></path>
            <path d="M107.93,737.448 C109.779,735.6 112.612,738.433 110.763,740.281 L87.2822,763.763 C85.4343,765.611 82.6012,762.779 84.4493,760.929 L107.93,737.448 Z" id="Fill-115" fill="#000000" fill-rule="nonzero"></path>
            <path d="M72.1642,437.303 C74.0132,435.454 76.8463,438.287 74.9973,440.135 L51.5163,463.616 C49.6682,465.465 46.8353,462.632 48.6832,460.784 L72.1642,437.303 Z" id="Fill-116" fill="#000000" fill-rule="nonzero"></path>
            <path d="M33.2822,267.253 C35.1312,265.404 37.9643,268.238 36.1153,270.086 L12.6352,293.567 C10.7862,295.415 7.9532,292.582 9.8012,290.734 L33.2822,267.253 Z" id="Fill-117" fill="#000000" fill-rule="nonzero"></path>
            <path d="M891.056,892.145 C893.76,892.145 893.76,896.286 891.056,896.286 L786.51,896.286 C783.807,896.286 783.807,892.145 786.51,892.145 L891.056,892.145 Z" id="Fill-118" fill="#000000" fill-rule="nonzero"></path>
            <path d="M895.019,858.237 C897.72,858.237 897.72,862.337 895.019,862.337 L746.781,862.337 C744.081,862.337 744.081,858.237 746.781,858.237 L895.019,858.237 Z" id="Fill-119" fill="#000000" fill-rule="nonzero"></path>
            <path d="M807.233,845.752 C807.233,843.075 811.374,843.075 811.374,845.752 L811.018,905.678 C811.018,908.355 806.878,908.355 806.878,905.678 L807.233,845.752 Z" id="Fill-120" fill="#000000" fill-rule="nonzero"></path>
            <path d="M819.272,881.059 C821.121,879.21 823.954,882.043 822.104,883.892 L798.624,907.372 C796.776,909.221 793.942,906.388 795.791,904.54 L819.272,881.059 Z" id="Fill-121" fill="#000000" fill-rule="nonzero"></path>
            <path d="M819.628,847.13 C821.475,845.281 824.308,848.114 822.46,849.963 L798.979,873.444 C797.131,875.292 794.298,872.459 796.146,870.611 L819.628,847.13 Z" id="Fill-122" fill="#000000" fill-rule="nonzero"></path>
            <path d="M1072.7,844.973 C1070,844.973 1070,840.873 1072.7,840.873 L1309.93,840.873 C1312.63,840.873 1312.63,844.973 1309.93,844.973 L1072.7,844.973 Z" id="Fill-123" fill="#000000" fill-rule="nonzero"></path>
            <path d="M1248.71,857.457 C1248.71,860.134 1244.57,860.134 1244.57,857.457 L1245.45,32.547 C1245.45,29.87 1249.59,29.87 1249.59,32.547 L1248.71,857.457 Z" id="Fill-124" fill="#000000" fill-rule="nonzero"></path>
            <path d="M1237.2,58.232 C1235.35,60.08 1232.52,57.247 1234.37,55.399 L1257.85,31.918 C1259.7,30.07 1262.53,32.903 1260.68,34.751 L1237.2,58.232 Z" id="Fill-125" fill="#000000" fill-rule="nonzero"></path>
            <path d="M1236.31,856.079 C1234.46,857.928 1231.63,855.095 1233.48,853.246 L1256.96,829.766 C1258.81,827.917 1261.64,830.75 1259.79,832.599 L1236.31,856.079 Z" id="Fill-126" fill="#000000" fill-rule="nonzero"></path>
            <path d="M1074.72,47.267 C1072.02,47.267 1072.02,43.167 1074.72,43.167 L1269.39,43.167 C1272.09,43.167 1272.09,47.267 1269.39,47.267 L1074.72,47.267 Z" id="Fill-127" fill="#000000" fill-rule="nonzero"></path>
            <path d="M1068.82,232.214 C1066.12,232.214 1066.12,228.114 1068.82,228.114 L1214.06,228.114 C1216.77,228.114 1216.77,232.214 1214.06,232.214 L1068.82,232.214 Z" id="Fill-128" fill="#000000" fill-rule="nonzero"></path>
            <path d="M1201.26,244.698 C1201.26,247.375 1197.12,247.375 1197.12,244.698 L1197.48,33.142 C1197.48,30.465 1201.62,30.465 1201.62,33.142 L1201.26,244.698 Z" id="Fill-129" fill="#000000" fill-rule="nonzero"></path>
            <path d="M1189.22,57.761 C1187.37,59.61 1184.54,56.777 1186.39,54.928 L1209.87,31.447 C1211.72,29.599 1214.55,32.432 1212.7,34.28 L1189.22,57.761 Z" id="Fill-130" fill="#000000" fill-rule="nonzero"></path>
            <path d="M1188.87,243.321 C1187.02,245.169 1184.19,242.336 1186.03,240.488 L1209.52,217.007 C1211.36,215.158 1214.2,217.991 1212.35,219.84 L1188.87,243.321 Z" id="Fill-131" fill="#000000" fill-rule="nonzero"></path>
            <path d="M1075.25,656.563 C1072.54,656.563 1072.54,652.421 1075.25,652.421 L1217.96,652.421 C1220.66,652.421 1220.66,656.563 1217.96,656.563 L1075.25,656.563 Z" id="Fill-132" fill="#000000" fill-rule="nonzero"></path>
            <path d="M1071.28,771.774 C1068.58,771.774 1068.58,767.673 1071.28,767.673 L1210.04,767.673 C1212.74,767.673 1212.74,771.774 1210.04,771.774 L1071.28,771.774 Z" id="Fill-133" fill="#000000" fill-rule="nonzero"></path>
            <path d="M1197.24,784.258 C1197.24,786.935 1193.1,786.935 1193.1,784.258 L1193.45,643.03 C1193.45,640.353 1197.59,640.353 1197.59,643.03 L1197.24,784.258 Z" id="Fill-134" fill="#000000" fill-rule="nonzero"></path>
            <path d="M1185.2,667.649 C1183.35,669.497 1180.52,666.664 1182.37,664.816 L1205.85,641.334 C1207.69,639.486 1210.53,642.32 1208.68,644.168 L1185.2,667.649 Z" id="Fill-135" fill="#000000" fill-rule="nonzero"></path>
            <path d="M1184.84,782.88 C1182.99,784.729 1180.16,781.897 1182.01,780.048 L1205.49,756.567 C1207.34,754.718 1210.17,757.551 1208.32,759.4 L1184.84,782.88 Z" id="Fill-136" fill="#000000" fill-rule="nonzero"></path>
            <path d="M1075.25,808.11 C1072.54,808.11 1072.54,803.967 1075.25,803.967 L1217.96,803.967 C1220.66,803.967 1220.66,808.11 1217.96,808.11 L1075.25,808.11 Z" id="Fill-137" fill="#000000" fill-rule="nonzero"></path>
            <path d="M1197.24,858.836 C1197.24,861.512 1193.1,861.512 1193.1,858.836 L1193.45,794.576 C1193.45,791.899 1197.59,791.899 1197.59,794.576 L1197.24,858.836 Z" id="Fill-138" fill="#000000" fill-rule="nonzero"></path>
            <path d="M1185.2,819.195 C1183.35,821.043 1180.52,818.21 1182.37,816.362 L1205.85,792.881 C1207.69,791.032 1210.53,793.866 1208.68,795.714 L1185.2,819.195 Z" id="Fill-139" fill="#000000" fill-rule="nonzero"></path>
            <path d="M1184.84,857.458 C1182.99,859.306 1180.16,856.473 1182.01,854.625 L1205.49,831.144 C1207.34,829.296 1210.17,832.128 1208.32,833.977 L1184.84,857.458 Z" id="Fill-140" fill="#000000" fill-rule="nonzero"></path>
            <path d="M1106.44,905.899 C1103.74,905.899 1103.74,901.799 1106.44,901.799 L1303.7,901.799 C1306.4,901.799 1306.4,905.899 1303.7,905.899 L1106.44,905.899 Z" id="Fill-141" fill="#000000" fill-rule="nonzero"></path>
            <path d="M1290.89,918.384 C1290.89,921.061 1286.75,921.061 1286.75,918.384 L1287.11,832.432 C1287.11,829.755 1291.25,829.755 1291.25,832.432 L1290.89,918.384 Z" id="Fill-142" fill="#000000" fill-rule="nonzero"></path>
            <path d="M1278.85,856.252 C1277.01,858.101 1274.17,855.268 1276.02,853.419 L1299.5,829.938 C1301.35,828.09 1304.18,830.923 1302.33,832.771 L1278.85,856.252 Z" id="Fill-143" fill="#000000" fill-rule="nonzero"></path>
            <path d="M1278.5,917.006 C1276.65,918.855 1273.82,916.022 1275.67,914.173 L1299.15,890.692 C1300.99,888.844 1303.83,891.677 1301.98,893.526 L1278.5,917.006 Z" id="Fill-144" fill="#000000" fill-rule="nonzero"></path>
            <path d="M1318.02,335.114 C1320.58,335.114 1320.6,331.119 1318.02,331.119 L1310.03,331.119 C1307.47,331.119 1307.44,335.114 1310.03,335.114 L1318.02,335.114 Z M1130.27,438.894 C1127.71,438.894 1127.69,442.888 1130.27,442.888 L1138.26,442.888 C1140.82,442.888 1140.85,438.894 1138.26,438.894 L1130.27,438.894 Z M1150.25,438.894 C1147.68,438.894 1147.66,442.888 1150.25,442.888 L1158.23,442.888 C1160.8,442.888 1160.82,438.894 1158.23,438.894 L1150.25,438.894 Z M1170.22,438.894 C1167.66,438.894 1167.63,442.888 1170.22,442.888 L1178.21,442.888 C1180.77,442.888 1180.79,438.894 1178.21,438.894 L1170.22,438.894 Z M1190.19,438.894 C1187.63,438.894 1187.6,442.888 1190.19,442.888 L1198.18,442.888 C1200.74,442.888 1200.77,438.894 1198.18,438.894 L1190.19,438.894 Z M1210.16,438.894 C1207.6,438.894 1207.58,442.888 1210.16,442.888 L1218.15,442.888 C1220.72,442.888 1220.74,438.894 1218.15,438.894 L1210.16,438.894 Z M1230.14,438.894 C1227.58,438.894 1227.55,442.888 1230.14,442.888 L1238.13,442.888 C1240.69,442.888 1240.71,438.894 1238.13,438.894 L1230.14,438.894 Z M1250.11,438.894 C1247.55,438.894 1247.52,442.888 1250.11,442.888 L1258.1,442.888 C1260.66,442.888 1260.69,438.894 1258.1,438.894 L1250.11,438.894 Z M1270.08,438.894 C1267.52,438.894 1267.5,442.888 1270.08,442.888 L1278.07,442.888 C1280.63,442.888 1280.66,438.894 1278.07,438.894 L1270.08,438.894 Z M1290.06,438.894 C1287.49,438.894 1287.47,442.888 1290.06,442.888 L1298.05,442.888 C1300.61,442.888 1300.63,438.894 1298.05,438.894 L1290.06,438.894 Z M1310.03,438.894 C1307.47,438.894 1307.44,442.888 1310.03,442.888 L1318.02,442.888 C1320.58,442.888 1320.6,438.894 1318.02,438.894 L1310.03,438.894 Z M1130.27,628.28 C1127.71,628.28 1127.69,632.275 1130.27,632.275 L1138.26,632.275 C1140.82,632.275 1140.85,628.28 1138.26,628.28 L1130.27,628.28 Z M1150.25,628.28 C1147.68,628.28 1147.66,632.275 1150.25,632.275 L1158.23,632.275 C1160.8,632.275 1160.82,628.28 1158.23,628.28 L1150.25,628.28 Z M1170.22,628.28 C1167.66,628.28 1167.63,632.275 1170.22,632.275 L1178.21,632.275 C1180.77,632.275 1180.79,628.28 1178.21,628.28 L1170.22,628.28 Z M1190.19,628.28 C1187.63,628.28 1187.6,632.275 1190.19,632.275 L1198.18,632.275 C1200.74,632.275 1200.77,628.28 1198.18,628.28 L1190.19,628.28 Z M1210.16,628.28 C1207.6,628.28 1207.58,632.275 1210.16,632.275 L1218.15,632.275 C1220.72,632.275 1220.74,628.28 1218.15,628.28 L1210.16,628.28 Z M1230.14,628.28 C1227.58,628.28 1227.55,632.275 1230.14,632.275 L1238.13,632.275 C1240.69,632.275 1240.71,628.28 1238.13,628.28 L1230.14,628.28 Z M1250.11,628.28 C1247.55,628.28 1247.52,632.275 1250.11,632.275 L1258.1,632.275 C1260.66,632.275 1260.69,628.28 1258.1,628.28 L1250.11,628.28 Z M1270.08,628.28 C1267.52,628.28 1267.5,632.275 1270.08,632.275 L1278.07,632.275 C1280.63,632.275 1280.66,628.28 1278.07,628.28 L1270.08,628.28 Z M1290.06,628.28 C1287.49,628.28 1287.47,632.275 1290.06,632.275 L1298.05,632.275 C1300.61,632.275 1300.63,628.28 1298.05,628.28 L1290.06,628.28 Z M1310.03,628.28 C1307.47,628.28 1307.44,632.275 1310.03,632.275 L1318.02,632.275 C1320.58,632.275 1320.6,628.28 1318.02,628.28 L1310.03,628.28 Z M1130.27,695.131 C1127.71,695.131 1127.69,699.125 1130.27,699.125 L1138.26,699.125 C1140.82,699.125 1140.85,695.131 1138.26,695.131 L1130.27,695.131 Z M1150.25,695.131 C1147.68,695.131 1147.66,699.125 1150.25,699.125 L1158.23,699.125 C1160.8,699.125 1160.82,695.131 1158.23,695.131 L1150.25,695.131 Z M1170.22,695.131 C1167.66,695.131 1167.63,699.125 1170.22,699.125 L1178.21,699.125 C1180.77,699.125 1180.79,695.131 1178.21,695.131 L1170.22,695.131 Z M1190.19,695.131 C1187.63,695.131 1187.6,699.125 1190.19,699.125 L1198.18,699.125 C1200.74,699.125 1200.77,695.131 1198.18,695.131 L1190.19,695.131 Z M1210.16,695.131 C1207.6,695.131 1207.58,699.125 1210.16,699.125 L1218.15,699.125 C1220.72,699.125 1220.74,695.131 1218.15,695.131 L1210.16,695.131 Z M1230.14,695.131 C1227.58,695.131 1227.55,699.125 1230.14,699.125 L1238.13,699.125 C1240.69,699.125 1240.71,695.131 1238.13,695.131 L1230.14,695.131 Z M1250.11,695.131 C1247.55,695.131 1247.52,699.125 1250.11,699.125 L1258.1,699.125 C1260.66,699.125 1260.69,695.131 1258.1,695.131 L1250.11,695.131 Z M1270.08,695.131 C1267.52,695.131 1267.5,699.125 1270.08,699.125 L1278.07,699.125 C1280.63,699.125 1280.66,695.131 1278.07,695.131 L1270.08,695.131 Z M1290.06,695.131 C1287.49,695.131 1287.47,699.125 1290.06,699.125 L1298.05,699.125 C1300.61,699.125 1300.63,695.131 1298.05,695.131 L1290.06,695.131 Z M1310.03,695.131 C1307.47,695.131 1307.44,699.125 1310.03,699.125 L1318.02,699.125 C1320.58,699.125 1320.6,695.131 1318.02,695.131 L1310.03,695.131 Z M1130.27,331.119 C1127.71,331.119 1127.69,335.114 1130.27,335.114 L1138.26,335.114 C1140.82,335.114 1140.85,331.119 1138.26,331.119 L1130.27,331.119 Z M1150.25,331.119 C1147.68,331.119 1147.66,335.114 1150.25,335.114 L1158.23,335.114 C1160.8,335.114 1160.82,331.119 1158.23,331.119 L1150.25,331.119 Z M1170.22,331.119 C1167.66,331.119 1167.63,335.114 1170.22,335.114 L1178.21,335.114 C1180.77,335.114 1180.79,331.119 1178.21,331.119 L1170.22,331.119 Z M1190.19,331.119 C1187.63,331.119 1187.6,335.114 1190.19,335.114 L1198.18,335.114 C1200.74,335.114 1200.77,331.119 1198.18,331.119 L1190.19,331.119 Z M1210.16,331.119 C1207.6,331.119 1207.58,335.114 1210.16,335.114 L1218.15,335.114 C1220.72,335.114 1220.74,331.119 1218.15,331.119 L1210.16,331.119 Z M1230.14,331.119 C1227.58,331.119 1227.55,335.114 1230.14,335.114 L1238.13,335.114 C1240.69,335.114 1240.71,331.119 1238.13,331.119 L1230.14,331.119 Z M1250.11,331.119 C1247.55,331.119 1247.52,335.114 1250.11,335.114 L1258.1,335.114 C1260.66,335.114 1260.69,331.119 1258.1,331.119 L1250.11,331.119 Z M1270.08,331.119 C1267.52,331.119 1267.5,335.114 1270.08,335.114 L1278.07,335.114 C1280.63,335.114 1280.66,331.119 1278.07,331.119 L1270.08,331.119 Z M1290.06,331.119 C1287.49,331.119 1287.47,335.114 1290.06,335.114 L1298.05,335.114 C1300.61,335.114 1300.63,331.119 1298.05,331.119 L1290.06,331.119 Z" id="Fill-145" fill="#000000" fill-rule="nonzero"></path>
            <path d="M942.739,331.119 C940.121,331.119 940.108,335.114 942.739,335.114 L950.729,335.114 C953.347,335.114 953.36,331.119 950.729,331.119 L942.739,331.119 Z M1030.62,442.888 C1033.24,442.888 1033.25,438.894 1030.62,438.894 L1022.63,438.894 C1020.01,438.894 1020,442.888 1022.63,442.888 L1030.62,442.888 Z M1010.65,442.888 C1013.27,442.888 1013.28,438.894 1010.65,438.894 L1002.66,438.894 C1000.04,438.894 1000.03,442.888 1002.66,442.888 L1010.65,442.888 Z M990.675,442.888 C993.294,442.888 993.306,438.894 990.675,438.894 L982.685,438.894 C980.066,438.894 980.054,442.888 982.685,442.888 L990.675,442.888 Z M970.702,442.888 C973.321,442.888 973.334,438.894 970.702,438.894 L962.713,438.894 C960.094,438.894 960.081,442.888 962.713,442.888 L970.702,442.888 Z M950.729,442.888 C953.347,442.888 953.36,438.894 950.729,438.894 L942.739,438.894 C940.121,438.894 940.108,442.888 942.739,442.888 L950.729,442.888 Z M1030.62,632.275 C1033.24,632.275 1033.25,628.28 1030.62,628.28 L1022.63,628.28 C1020.01,628.28 1020,632.275 1022.63,632.275 L1030.62,632.275 Z M1010.65,632.275 C1013.27,632.275 1013.28,628.28 1010.65,628.28 L1002.66,628.28 C1000.04,628.28 1000.03,632.275 1002.66,632.275 L1010.65,632.275 Z M990.675,632.275 C993.294,632.275 993.306,628.28 990.675,628.28 L982.685,628.28 C980.066,628.28 980.054,632.275 982.685,632.275 L990.675,632.275 Z M970.702,632.275 C973.321,632.275 973.334,628.28 970.702,628.28 L962.713,628.28 C960.094,628.28 960.081,632.275 962.713,632.275 L970.702,632.275 Z M950.729,632.275 C953.347,632.275 953.36,628.28 950.729,628.28 L942.739,628.28 C940.121,628.28 940.108,632.275 942.739,632.275 L950.729,632.275 Z M1030.62,699.125 C1033.24,699.125 1033.25,695.131 1030.62,695.131 L1022.63,695.131 C1020.01,695.131 1020,699.125 1022.63,699.125 L1030.62,699.125 Z M1010.65,699.125 C1013.27,699.125 1013.28,695.131 1010.65,695.131 L1002.66,695.131 C1000.04,695.131 1000.03,699.125 1002.66,699.125 L1010.65,699.125 Z M990.675,699.125 C993.294,699.125 993.306,695.131 990.675,695.131 L982.685,695.131 C980.066,695.131 980.054,699.125 982.685,699.125 L990.675,699.125 Z M970.702,699.125 C973.321,699.125 973.334,695.131 970.702,695.131 L962.713,695.131 C960.094,695.131 960.081,699.125 962.713,699.125 L970.702,699.125 Z M950.729,699.125 C953.347,699.125 953.36,695.131 950.729,695.131 L942.739,695.131 C940.121,695.131 940.108,699.125 942.739,699.125 L950.729,699.125 Z M1030.62,335.114 C1033.24,335.114 1033.25,331.119 1030.62,331.119 L1022.63,331.119 C1020.01,331.119 1020,335.114 1022.63,335.114 L1030.62,335.114 Z M1010.65,335.114 C1013.27,335.114 1013.28,331.119 1010.65,331.119 L1002.66,331.119 C1000.04,331.119 1000.03,335.114 1002.66,335.114 L1010.65,335.114 Z M990.675,335.114 C993.294,335.114 993.306,331.119 990.675,331.119 L982.685,331.119 C980.066,331.119 980.054,335.114 982.685,335.114 L990.675,335.114 Z M970.702,335.114 C973.321,335.114 973.334,331.119 970.702,331.119 L962.713,331.119 C960.094,331.119 960.081,335.114 962.713,335.114 L970.702,335.114 Z" id="Fill-146" fill="#000000" fill-rule="nonzero"></path>
            <path d="M350.217,534.767 C347.61,534.767 347.592,538.761 350.217,538.761 L370.19,538.761 C372.796,538.761 372.814,534.767 370.19,534.767 L350.217,534.767 Z M1082.6,765.19 C1085.21,765.19 1085.23,761.195 1082.6,761.195 L1075.5,761.195 C1072.89,761.195 1072.88,765.19 1075.5,765.19 L1082.6,765.19 Z M1063.52,765.19 C1066.12,765.19 1066.14,761.195 1063.52,761.195 L1059.52,761.195 C1056.92,761.195 1056.9,765.19 1059.52,765.19 L1063.52,765.19 Z M1047.54,765.19 C1050.14,765.19 1050.16,761.195 1047.54,761.195 L1027.56,761.195 C1024.96,761.195 1024.94,765.19 1027.56,765.19 L1047.54,765.19 Z M1015.58,765.19 C1018.19,765.19 1018.2,761.195 1015.58,761.195 L1011.59,761.195 C1008.98,761.195 1008.96,765.19 1011.59,765.19 L1015.58,765.19 Z M999.601,765.19 C1002.21,765.19 1002.23,761.195 999.601,761.195 L979.629,761.195 C977.022,761.195 977.005,765.19 979.629,765.19 L999.601,765.19 Z M967.644,765.19 C970.251,765.19 970.268,761.195 967.644,761.195 L963.65,761.195 C961.044,761.195 961.025,765.19 963.65,765.19 L967.644,765.19 Z M951.666,765.19 C954.272,765.19 954.291,761.195 951.666,761.195 L931.693,761.195 C929.087,761.195 929.069,765.19 931.693,765.19 L951.666,765.19 Z M919.71,765.19 C922.315,765.19 922.334,761.195 919.71,761.195 L915.715,761.195 C913.108,761.195 913.091,765.19 915.715,765.19 L919.71,765.19 Z M903.731,765.19 C906.337,765.19 906.355,761.195 903.731,761.195 L883.758,761.195 C881.151,761.195 881.134,765.19 883.758,765.19 L903.731,765.19 Z M871.774,765.19 C874.38,765.19 874.398,761.195 871.774,761.195 L867.779,761.195 C865.174,761.195 865.155,765.19 867.779,765.19 L871.774,765.19 Z M855.796,765.19 C858.401,765.19 858.42,761.195 855.796,761.195 L835.822,761.195 C833.217,761.195 833.198,765.19 835.822,765.19 L855.796,765.19 Z M823.839,765.19 C826.445,765.19 826.463,761.195 823.839,761.195 L819.843,761.195 C817.238,761.195 817.219,765.19 819.843,765.19 L823.839,765.19 Z M807.86,765.19 C810.467,765.19 810.484,761.195 807.86,761.195 L787.886,761.195 C785.281,761.195 785.262,765.19 787.886,765.19 L807.86,765.19 Z M775.903,765.19 C778.509,765.19 778.527,761.195 775.903,761.195 L771.909,761.195 C769.302,761.195 769.284,765.19 771.909,765.19 L775.903,765.19 Z M759.925,765.19 C762.531,765.19 762.549,761.195 759.925,761.195 L739.951,761.195 C737.345,761.195 737.327,765.19 739.951,765.19 L759.925,765.19 Z M727.968,765.19 C730.574,765.19 730.592,761.195 727.968,761.195 L723.973,761.195 C721.367,761.195 721.349,765.19 723.973,765.19 L727.968,765.19 Z M711.989,765.19 C714.595,765.19 714.614,761.195 711.989,761.195 L692.016,761.195 C689.411,761.195 689.392,765.19 692.016,765.19 L711.989,765.19 Z M680.033,765.19 C682.639,765.19 682.657,761.195 680.033,761.195 L676.038,761.195 C673.432,761.195 673.414,765.19 676.038,765.19 L680.033,765.19 Z M664.054,765.19 C666.66,765.19 666.678,761.195 664.054,761.195 L644.081,761.195 C641.475,761.195 641.457,765.19 644.081,765.19 L664.054,765.19 Z M632.097,765.19 C634.703,765.19 634.721,761.195 632.097,761.195 L628.103,761.195 C625.496,761.195 625.479,765.19 628.103,765.19 L632.097,765.19 Z M616.119,765.19 C618.725,765.19 618.743,761.195 616.119,761.195 L596.146,761.195 C593.54,761.195 593.521,765.19 596.146,765.19 L616.119,765.19 Z M584.162,765.19 C586.768,765.19 586.786,761.195 584.162,761.195 L580.167,761.195 C577.561,761.195 577.543,765.19 580.167,765.19 L584.162,765.19 Z M568.183,765.19 C570.79,765.19 570.808,761.195 568.183,761.195 L548.211,761.195 C545.604,761.195 545.586,765.19 548.211,765.19 L568.183,765.19 Z M1082.6,538.761 C1085.21,538.761 1085.23,534.767 1082.6,534.767 L1069.25,534.767 C1066.64,534.767 1066.62,538.761 1069.25,538.761 L1082.6,538.761 Z M1057.26,538.761 C1059.87,538.761 1059.89,534.767 1057.26,534.767 L1053.27,534.767 C1050.66,534.767 1050.64,538.761 1053.27,538.761 L1057.26,538.761 Z M1041.28,538.761 C1043.89,538.761 1043.91,534.767 1041.28,534.767 L1021.31,534.767 C1018.71,534.767 1018.69,538.761 1021.31,538.761 L1041.28,538.761 Z M1009.33,538.761 C1011.93,538.761 1011.95,534.767 1009.33,534.767 L1005.33,534.767 C1002.73,534.767 1002.71,538.761 1005.33,538.761 L1009.33,538.761 Z M993.348,538.761 C995.955,538.761 995.973,534.767 993.348,534.767 L973.376,534.767 C970.77,534.767 970.752,538.761 973.376,538.761 L993.348,538.761 Z M961.392,538.761 C963.998,538.761 964.016,534.767 961.392,534.767 L957.397,534.767 C954.792,534.767 954.773,538.761 957.397,538.761 L961.392,538.761 Z M945.413,538.761 C948.019,538.761 948.038,534.767 945.413,534.767 L925.44,534.767 C922.835,534.767 922.816,538.761 925.44,538.761 L945.413,538.761 Z M913.457,538.761 C916.063,538.761 916.081,534.767 913.457,534.767 L909.463,534.767 C906.856,534.767 906.838,538.761 909.463,538.761 L913.457,538.761 Z M897.478,538.761 C900.084,538.761 900.102,534.767 897.478,534.767 L877.505,534.767 C874.899,534.767 874.881,538.761 877.505,538.761 L897.478,538.761 Z M865.521,538.761 C868.127,538.761 868.145,534.767 865.521,534.767 L861.526,534.767 C858.921,534.767 858.903,538.761 861.526,538.761 L865.521,538.761 Z M849.543,538.761 C852.149,538.761 852.167,534.767 849.543,534.767 L829.57,534.767 C826.964,534.767 826.945,538.761 829.57,538.761 L849.543,538.761 Z M817.586,538.761 C820.192,538.761 820.21,534.767 817.586,534.767 L813.592,534.767 C810.985,534.767 810.968,538.761 813.592,538.761 L817.586,538.761 Z M801.607,538.761 C804.214,538.761 804.232,534.767 801.607,534.767 L781.635,534.767 C779.028,534.767 779.01,538.761 781.635,538.761 L801.607,538.761 Z M769.65,538.761 C772.257,538.761 772.275,534.767 769.65,534.767 L765.655,534.767 C763.05,534.767 763.032,538.761 765.655,538.761 L769.65,538.761 Z M753.673,538.761 C756.278,538.761 756.297,534.767 753.673,534.767 L733.699,534.767 C731.093,534.767 731.074,538.761 733.699,538.761 L753.673,538.761 Z M721.715,538.761 C724.322,538.761 724.339,534.767 721.715,534.767 L717.72,534.767 C715.114,534.767 715.096,538.761 717.72,538.761 L721.715,538.761 Z M705.737,538.761 C708.343,538.761 708.361,534.767 705.737,534.767 L685.764,534.767 C683.157,534.767 683.139,538.761 685.764,538.761 L705.737,538.761 Z M673.78,538.761 C676.385,538.761 676.404,534.767 673.78,534.767 L669.785,534.767 C667.179,534.767 667.161,538.761 669.785,538.761 L673.78,538.761 Z M657.802,538.761 C660.407,538.761 660.426,534.767 657.802,534.767 L637.828,534.767 C635.222,534.767 635.204,538.761 637.828,538.761 L657.802,538.761 Z M625.844,538.761 C628.45,538.761 628.468,534.767 625.844,534.767 L621.85,534.767 C619.244,534.767 619.226,538.761 621.85,538.761 L625.844,538.761 Z M609.866,538.761 C612.472,538.761 612.49,534.767 609.866,534.767 L589.893,534.767 C587.287,534.767 587.269,538.761 589.893,538.761 L609.866,538.761 Z M577.909,538.761 C580.515,538.761 580.533,534.767 577.909,534.767 L573.914,534.767 C571.308,534.767 571.29,538.761 573.914,538.761 L577.909,538.761 Z M561.931,538.761 C564.537,538.761 564.555,534.767 561.931,534.767 L541.958,534.767 C539.351,534.767 539.334,538.761 541.958,538.761 L561.931,538.761 Z M529.974,538.761 C532.58,538.761 532.598,534.767 529.974,534.767 L525.979,534.767 C523.373,534.767 523.355,538.761 525.979,538.761 L529.974,538.761 Z M513.995,538.761 C516.601,538.761 516.619,534.767 513.995,534.767 L494.022,534.767 C491.416,534.767 491.398,538.761 494.022,538.761 L513.995,538.761 Z M482.039,538.761 C484.644,538.761 484.662,534.767 482.039,534.767 L478.044,534.767 C475.438,534.767 475.419,538.761 478.044,538.761 L482.039,538.761 Z M466.06,538.761 C468.666,538.761 468.684,534.767 466.06,534.767 L446.087,534.767 C443.481,534.767 443.463,538.761 446.087,538.761 L466.06,538.761 Z M434.103,538.761 C436.709,538.761 436.727,534.767 434.103,534.767 L430.109,534.767 C427.503,534.767 427.485,538.761 430.109,538.761 L434.103,538.761 Z M418.125,538.761 C420.731,538.761 420.749,534.767 418.125,534.767 L398.152,534.767 C395.546,534.767 395.528,538.761 398.152,538.761 L418.125,538.761 Z M386.168,538.761 C388.774,538.761 388.792,534.767 386.168,534.767 L382.174,534.767 C379.567,534.767 379.549,538.761 382.174,538.761 L386.168,538.761 Z" id="Fill-147" fill="#000000" fill-rule="nonzero"></path>
            <path d="M1413.19,188.475 C1415.55,187.352 1413.88,183.776 1411.51,184.855 L1404.27,188.232 C1401.92,189.355 1403.58,192.93 1405.95,191.852 L1413.19,188.475 Z M1142.38,418.141 C1140.03,419.264 1141.69,422.84 1144.07,421.761 L1148.49,419.7 C1150.84,418.577 1149.18,415.001 1146.8,416.08 L1142.38,418.141 Z M1157.66,411.015 C1155.31,412.137 1156.98,415.714 1159.35,414.635 L1166.59,411.258 C1168.94,410.135 1167.28,406.559 1164.9,407.638 L1157.66,411.015 Z M1175.77,402.573 C1173.41,403.696 1175.08,407.271 1177.45,406.193 L1184.69,402.816 C1187.04,401.693 1185.38,398.117 1183.01,399.196 L1175.77,402.573 Z M1193.87,394.131 C1191.51,395.254 1193.18,398.829 1195.55,397.751 L1202.79,394.374 C1205.15,393.251 1203.48,389.676 1201.11,390.754 L1193.87,394.131 Z M1211.97,385.689 C1209.62,386.812 1211.28,390.387 1213.65,389.309 L1220.89,385.932 C1223.25,384.809 1221.58,381.234 1219.21,382.312 L1211.97,385.689 Z M1230.07,377.247 C1227.72,378.37 1229.38,381.946 1231.76,380.867 L1239,377.49 C1241.35,376.367 1239.68,372.791 1237.31,373.87 L1230.07,377.247 Z M1248.17,368.805 C1245.82,369.927 1247.48,373.504 1249.86,372.425 L1257.1,369.049 C1259.45,367.925 1257.78,364.349 1255.41,365.428 L1248.17,368.805 Z M1266.27,360.363 C1263.92,361.486 1265.58,365.062 1267.96,363.983 L1275.2,360.607 C1277.55,359.484 1275.89,355.908 1273.51,356.987 L1266.27,360.363 Z M1284.37,351.921 C1282.02,353.045 1283.68,356.62 1286.06,355.542 L1293.3,352.165 C1295.65,351.042 1293.99,347.467 1291.61,348.545 L1284.37,351.921 Z M1386.17,304.448 C1383.81,305.571 1385.48,309.147 1387.85,308.068 L1395.09,304.692 C1397.45,303.569 1395.78,299.992 1393.41,301.072 L1386.17,304.448 Z M1404.27,296.006 C1401.92,297.13 1403.58,300.705 1405.95,299.626 L1413.19,296.25 C1415.55,295.127 1413.88,291.552 1411.51,292.63 L1404.27,296.006 Z M1147.82,604.99 C1145.47,606.114 1147.13,609.689 1149.51,608.611 L1156.75,605.234 C1159.1,604.111 1157.44,600.534 1155.06,601.614 L1147.82,604.99 Z M1165.92,596.548 C1163.57,597.671 1165.24,601.247 1167.61,600.168 L1174.85,596.792 C1177.2,595.668 1175.54,592.093 1173.16,593.172 L1165.92,596.548 Z M1184.02,588.107 C1181.67,589.23 1183.34,592.805 1185.71,591.727 L1192.95,588.35 C1195.3,587.227 1193.64,583.652 1191.27,584.73 L1184.02,588.107 Z M1202.13,579.664 C1199.77,580.787 1201.44,584.364 1203.81,583.284 L1211.05,579.907 C1213.41,578.785 1211.74,575.209 1209.37,576.287 L1202.13,579.664 Z M1220.23,571.222 C1217.88,572.345 1219.54,575.921 1221.91,574.843 L1229.15,571.466 C1231.51,570.343 1229.84,566.767 1227.47,567.846 L1220.23,571.222 Z M1238.33,562.781 C1235.98,563.904 1237.64,567.48 1240.01,566.401 L1247.26,563.024 C1249.61,561.902 1247.94,558.325 1245.57,559.404 L1238.33,562.781 Z M1256.43,554.339 C1254.08,555.462 1255.74,559.037 1258.12,557.959 L1265.36,554.582 C1267.71,553.459 1266.04,549.884 1263.67,550.962 L1256.43,554.339 Z M1274.53,545.897 C1272.18,547.02 1273.84,550.595 1276.22,549.517 L1283.46,546.14 C1285.81,545.017 1284.15,541.441 1281.77,542.52 L1274.53,545.897 Z M1292.63,537.455 C1290.28,538.578 1291.94,542.154 1294.32,541.075 L1301.56,537.698 C1303.91,536.575 1302.25,533 1299.87,534.078 L1292.63,537.455 Z M1310.73,529.013 C1308.38,530.136 1310.05,533.712 1312.42,532.634 L1319.66,529.257 C1322.01,528.134 1320.35,524.558 1317.97,525.637 L1310.73,529.013 Z M1142.38,674.378 C1140.03,675.501 1141.69,679.077 1144.07,677.997 L1150.36,675.066 C1152.71,673.943 1151.04,670.366 1148.67,671.446 L1142.38,674.378 Z M1159.53,666.38 C1157.18,667.503 1158.84,671.079 1161.22,670 L1168.46,666.624 C1170.81,665.5 1169.15,661.925 1166.77,663.003 L1159.53,666.38 Z M1177.63,657.939 C1175.28,659.062 1176.95,662.637 1179.32,661.559 L1186.56,658.182 C1188.91,657.059 1187.25,653.484 1184.87,654.562 L1177.63,657.939 Z M1195.73,649.496 C1193.38,650.619 1195.05,654.196 1197.42,653.116 L1204.66,649.739 C1207.01,648.616 1205.35,645.041 1202.98,646.119 L1195.73,649.496 Z M1213.84,641.055 C1211.48,642.178 1213.15,645.753 1215.52,644.675 L1222.76,641.298 C1225.11,640.175 1223.45,636.599 1221.08,637.678 L1213.84,641.055 Z M1231.94,632.613 C1229.58,633.736 1231.25,637.312 1233.62,636.233 L1240.86,632.856 C1243.22,631.733 1241.55,628.157 1239.18,629.236 L1231.94,632.613 Z M1250.04,624.17 C1247.69,625.294 1249.35,628.869 1251.72,627.79 L1258.96,624.414 C1261.32,623.291 1259.65,619.715 1257.28,620.794 L1250.04,624.17 Z M1268.14,615.729 C1265.79,616.852 1267.45,620.427 1269.83,619.349 L1277.07,615.972 C1279.42,614.849 1277.75,611.274 1275.38,612.352 L1268.14,615.729 Z M1286.24,607.286 C1283.89,608.409 1285.55,611.986 1287.93,610.906 L1295.17,607.531 C1297.52,606.407 1295.85,602.831 1293.48,603.91 L1286.24,607.286 Z M1304.34,598.845 C1301.99,599.968 1303.65,603.543 1306.03,602.465 L1313.27,599.088 C1315.62,597.966 1313.96,594.39 1311.58,595.468 L1304.34,598.845 Z M1322.44,590.404 C1320.09,591.527 1321.76,595.103 1324.13,594.024 L1331.37,590.647 C1333.72,589.525 1332.06,585.948 1329.68,587.027 L1322.44,590.404 Z M1150.85,306.418 C1148.5,307.541 1150.16,311.116 1152.54,310.038 L1159.78,306.661 C1162.13,305.538 1160.46,301.963 1158.09,303.041 L1150.85,306.418 Z M1168.95,297.976 C1166.6,299.099 1168.26,302.675 1170.64,301.596 L1177.88,298.219 C1180.23,297.096 1178.57,293.52 1176.19,294.599 L1168.95,297.976 Z M1187.05,289.534 C1184.7,290.657 1186.37,294.233 1188.74,293.154 L1195.98,289.778 C1198.33,288.655 1196.67,285.079 1194.29,286.157 L1187.05,289.534 Z M1205.15,281.092 C1202.8,282.215 1204.47,285.791 1206.84,284.712 L1214.08,281.335 C1216.43,280.212 1214.77,276.636 1212.4,277.715 L1205.15,281.092 Z M1223.26,272.65 C1220.9,273.773 1222.57,277.349 1224.94,276.27 L1232.18,272.893 C1234.54,271.77 1232.87,268.195 1230.5,269.273 L1223.26,272.65 Z M1241.36,264.208 C1239.01,265.331 1240.67,268.906 1243.04,267.828 L1250.28,264.451 C1252.64,263.328 1250.97,259.753 1248.6,260.831 L1241.36,264.208 Z M1259.46,255.766 C1257.11,256.889 1258.77,260.465 1261.14,259.386 L1268.39,256.01 C1270.74,254.886 1269.07,251.311 1266.7,252.389 L1259.46,255.766 Z M1277.56,247.324 C1275.21,248.448 1276.87,252.023 1279.25,250.944 L1286.49,247.568 C1288.84,246.445 1287.17,242.869 1284.8,243.948 L1277.56,247.324 Z M1295.66,238.882 C1293.31,240.005 1294.97,243.581 1297.35,242.502 L1304.59,239.125 C1306.94,238.003 1305.27,234.427 1302.9,235.506 L1295.66,238.882 Z M1313.76,230.44 C1311.41,231.563 1313.08,235.139 1315.45,234.06 L1322.69,230.683 C1325.04,229.561 1323.38,225.985 1321,227.064 L1313.76,230.44 Z M1331.86,221.998 C1329.51,223.121 1331.18,226.697 1333.55,225.618 L1340.79,222.241 C1343.14,221.118 1341.48,217.543 1339.1,218.622 L1331.86,221.998 Z M1349.97,213.556 C1347.61,214.679 1349.28,218.255 1351.65,217.177 L1358.89,213.8 C1361.24,212.677 1359.58,209.101 1357.21,210.179 L1349.97,213.556 Z M1368.07,205.114 C1365.71,206.238 1367.38,209.813 1369.75,208.735 L1376.99,205.358 C1379.34,204.235 1377.68,200.659 1375.31,201.738 L1368.07,205.114 Z M1386.17,196.673 C1383.81,197.796 1385.48,201.372 1387.85,200.293 L1395.09,196.916 C1397.45,195.793 1395.78,192.218 1393.41,193.296 L1386.17,196.673 Z" id="Fill-148" fill="#000000" fill-rule="nonzero"></path>
            <path d="M722.718,184.84 C720.328,183.807 718.746,187.463 721.127,188.491 L728.444,191.697 C730.835,192.729 732.416,189.073 730.036,188.046 L722.718,184.84 Z M1003.58,420.022 C1005.97,421.054 1007.55,417.399 1005.17,416.371 L997.853,413.164 C995.463,412.133 993.882,415.788 996.262,416.816 L1003.58,420.022 Z M985.285,412.006 C987.676,413.038 989.257,409.383 986.877,408.356 L979.559,405.149 C977.169,404.117 975.588,407.773 977.968,408.8 L985.285,412.006 Z M966.992,403.991 C969.382,405.023 970.963,401.367 968.583,400.34 L961.265,397.134 C958.875,396.102 957.294,399.757 959.674,400.785 L966.992,403.991 Z M855.639,355.202 C858.03,356.235 859.612,352.579 857.231,351.552 L850.776,348.723 C848.385,347.691 846.804,351.346 849.185,352.374 L855.639,355.202 Z M838.209,347.565 C840.598,348.597 842.18,344.942 839.8,343.914 L832.482,340.707 C830.092,339.675 828.51,343.331 830.89,344.358 L838.209,347.565 Z M819.915,339.549 C822.304,340.581 823.886,336.925 821.506,335.898 L814.188,332.692 C811.798,331.659 810.217,335.315 812.596,336.343 L819.915,339.549 Z M801.62,331.533 C804.01,332.565 805.593,328.909 803.212,327.882 L795.894,324.676 C793.504,323.643 791.923,327.299 794.302,328.326 L801.62,331.533 Z M783.326,323.517 C785.717,324.55 787.299,320.894 784.918,319.866 L777.6,316.66 C775.21,315.628 773.629,319.283 776.009,320.311 L783.326,323.517 Z M765.033,315.502 C767.423,316.534 769.004,312.879 766.624,311.851 L759.306,308.645 C756.916,307.613 755.334,311.268 757.715,312.296 L765.033,315.502 Z M746.738,307.487 C749.129,308.519 750.71,304.864 748.33,303.836 L741.012,300.63 C738.621,299.597 737.04,303.253 739.42,304.281 L746.738,307.487 Z M728.444,299.471 C730.835,300.504 732.416,296.848 730.036,295.821 L722.718,292.614 C720.328,291.582 718.746,295.238 721.127,296.265 L728.444,299.471 Z M998.345,607.114 C1000.74,608.147 1002.32,604.49 999.936,603.463 L992.619,600.257 C990.228,599.225 988.647,602.88 991.028,603.908 L998.345,607.114 Z M980.052,599.099 C982.442,600.131 984.022,596.475 981.642,595.448 L974.325,592.241 C971.934,591.209 970.353,594.864 972.733,595.893 L980.052,599.099 Z M961.758,591.083 C964.147,592.115 965.729,588.46 963.348,587.432 L956.031,584.226 C953.64,583.195 952.059,586.85 954.439,587.877 L961.758,591.083 Z M943.463,583.068 C945.853,584.1 947.434,580.445 945.054,579.417 L937.737,576.211 C935.346,575.179 933.765,578.834 936.145,579.862 L943.463,583.068 Z M838.209,536.95 C840.599,537.983 842.18,534.327 839.8,533.3 L832.482,530.093 C830.093,529.061 828.51,532.716 830.89,533.744 L838.209,536.95 Z M819.915,528.934 C822.304,529.967 823.886,526.311 821.506,525.283 L814.188,522.077 C811.798,521.045 810.217,524.701 812.596,525.728 L819.915,528.934 Z M801.62,520.918 C804.01,521.951 805.593,518.295 803.212,517.268 L795.894,514.061 C793.504,513.029 791.923,516.685 794.302,517.712 L801.62,520.918 Z M783.326,512.903 C785.717,513.935 787.299,510.28 784.918,509.252 L777.6,506.046 C775.21,505.014 773.629,508.669 776.009,509.698 L783.326,512.903 Z M765.033,504.888 C767.423,505.92 769.004,502.264 766.624,501.237 L759.306,498.031 C756.916,496.999 755.334,500.654 757.715,501.682 L765.033,504.888 Z M746.738,496.872 C749.129,497.905 750.71,494.249 748.33,493.221 L741.012,490.015 C738.621,488.983 737.04,492.639 739.42,493.666 L746.738,496.872 Z M728.444,488.857 C730.835,489.889 732.416,486.234 730.036,485.206 L722.718,482 C720.328,480.968 718.746,484.623 721.127,485.651 L728.444,488.857 Z M999.87,674.633 C1002.26,675.665 1003.84,672.01 1001.46,670.983 L994.143,667.776 C991.754,666.744 990.172,670.4 992.552,671.427 L999.87,674.633 Z M981.576,666.617 C983.967,667.65 985.548,663.994 983.168,662.967 L975.85,659.761 C973.46,658.729 971.879,662.384 974.259,663.411 L981.576,666.617 Z M963.282,658.602 C965.673,659.634 967.254,655.979 964.874,654.951 L957.555,651.745 C955.166,650.713 953.585,654.368 955.965,655.397 L963.282,658.602 Z M814.373,593.358 C816.763,594.391 818.344,590.735 815.965,589.706 L815.6,589.547 L815.236,589.388 L814.872,589.228 L814.508,589.069 L814.188,588.929 C811.798,587.897 810.217,591.552 812.596,592.579 L812.917,592.72 L813.28,592.879 L813.644,593.038 L814.009,593.198 L814.373,593.358 Z M801.621,587.77 C804.01,588.803 805.593,585.148 803.212,584.119 L802.851,583.961 L802.487,583.802 L802.123,583.643 L801.759,583.483 L801.394,583.323 L801.03,583.163 L800.667,583.004 L800.302,582.844 L799.937,582.685 L799.574,582.526 L799.21,582.365 L798.845,582.206 L798.481,582.046 L798.117,581.887 L797.753,581.727 L797.388,581.568 L797.024,581.408 L796.66,581.248 L796.296,581.089 L795.931,580.929 L795.894,580.913 C793.504,579.881 791.923,583.536 794.302,584.564 L794.34,584.58 L794.704,584.739 L795.068,584.9 L795.432,585.059 L795.797,585.218 L796.161,585.378 L796.525,585.538 L796.889,585.698 L797.254,585.857 L797.618,586.017 L797.982,586.176 L798.346,586.335 L798.711,586.495 L799.075,586.656 L799.439,586.815 L799.803,586.974 L800.168,587.134 L800.532,587.293 L800.896,587.453 L801.26,587.613 L801.621,587.77 Z M783.327,579.755 C785.717,580.787 787.299,577.131 784.918,576.104 L784.639,575.982 L784.275,575.823 L783.911,575.662 L783.547,575.503 L783.182,575.343 L782.818,575.184 L782.454,575.024 L782.09,574.864 L781.725,574.704 L781.361,574.545 L780.997,574.386 L780.633,574.227 L780.268,574.067 L779.904,573.906 L779.54,573.747 L779.176,573.587 L778.811,573.428 L778.447,573.269 L778.083,573.11 L777.718,572.949 L777.6,572.897 C775.21,571.865 773.629,575.521 776.009,576.548 L776.128,576.6 L776.492,576.76 L776.856,576.92 L777.22,577.079 L777.585,577.239 L777.949,577.399 L778.313,577.558 L778.677,577.718 L779.042,577.877 L779.405,578.036 L779.77,578.197 L780.135,578.356 L780.499,578.516 L780.863,578.675 L781.227,578.835 L781.591,578.994 L781.956,579.154 L782.32,579.314 L782.684,579.473 L783.049,579.633 L783.327,579.755 Z M765.033,571.739 C767.423,572.771 769.005,569.115 766.624,568.088 L766.427,568.002 L766.063,567.842 L765.699,567.683 L765.334,567.524 L764.97,567.364 L764.606,567.204 L764.242,567.044 L763.878,566.885 L763.513,566.725 L763.149,566.566 L762.785,566.406 L762.421,566.246 L762.056,566.087 L761.692,565.927 L761.328,565.768 L760.964,565.608 L760.599,565.448 L760.235,565.289 L759.871,565.129 L759.507,564.97 L759.306,564.882 C756.916,563.85 755.334,567.505 757.715,568.532 L757.915,568.62 L758.279,568.781 L758.643,568.94 L759.008,569.1 L759.372,569.259 L759.736,569.419 L760.1,569.578 L760.465,569.738 L760.829,569.897 L761.193,570.057 L761.557,570.217 L761.922,570.376 L762.286,570.536 L762.65,570.696 L763.014,570.856 L763.38,571.015 L763.743,571.174 L764.107,571.334 L764.471,571.493 L764.836,571.653 L765.033,571.739 Z M746.738,563.724 C749.129,564.755 750.71,561.1 748.33,560.073 L748.215,560.022 L747.851,559.863 L747.487,559.703 L747.123,559.544 L746.758,559.384 L746.394,559.224 L746.03,559.065 L745.665,558.905 L745.301,558.745 L744.937,558.586 L744.572,558.427 L744.208,558.267 L743.844,558.107 L743.48,557.948 L743.115,557.788 L742.751,557.628 L742.387,557.469 L742.023,557.309 L741.659,557.15 L741.295,556.99 L741.012,556.866 C738.621,555.834 737.04,559.489 739.42,560.517 L739.703,560.641 L740.067,560.801 L740.432,560.96 L740.796,561.12 L741.16,561.28 L741.524,561.439 L741.888,561.599 L742.253,561.758 L742.617,561.917 L742.981,562.077 L743.345,562.237 L743.709,562.397 L744.074,562.556 L744.438,562.716 L744.802,562.875 L745.167,563.034 L745.531,563.195 L745.895,563.355 L746.26,563.514 L746.623,563.673 L746.738,563.724 Z M728.444,555.708 C730.835,556.74 732.416,553.085 730.036,552.057 L730.003,552.042 L729.638,551.883 L729.275,551.723 L728.91,551.564 L728.546,551.405 L728.181,551.245 L727.818,551.085 L727.453,550.926 L727.089,550.766 L726.725,550.606 L726.361,550.447 L725.996,550.287 L725.632,550.128 L725.268,549.968 L724.904,549.809 L724.54,549.649 L724.176,549.489 L723.811,549.33 L723.447,549.17 L723.083,549.01 L722.718,548.851 C720.328,547.819 718.746,551.474 721.127,552.502 L721.491,552.661 L721.855,552.821 L722.219,552.981 L722.584,553.14 L722.948,553.3 L723.312,553.46 L723.676,553.619 L724.04,553.779 L724.405,553.938 L724.769,554.098 L725.133,554.258 L725.498,554.417 L725.862,554.577 L726.226,554.737 L726.59,554.896 L726.954,555.055 L727.319,555.215 L727.683,555.374 L728.047,555.534 L728.411,555.694 L728.444,555.708 Z M1000.25,310.787 C1002.64,311.82 1004.22,308.164 1001.84,307.136 L994.52,303.93 C992.13,302.897 990.548,306.553 992.928,307.581 L1000.25,310.787 Z M981.952,302.771 C984.343,303.803 985.924,300.148 983.544,299.12 L976.225,295.914 C973.836,294.882 972.254,298.537 974.635,299.565 L981.952,302.771 Z M963.658,294.756 C966.049,295.788 967.63,292.133 965.25,291.105 L957.932,287.899 C955.542,286.866 953.96,290.522 956.341,291.55 L963.658,294.756 Z M874.797,255.822 C877.187,256.853 878.768,253.198 876.388,252.17 L869.07,248.964 C866.679,247.931 865.098,251.587 867.479,252.615 L874.797,255.822 Z M856.503,247.805 C858.892,248.838 860.474,245.182 858.093,244.154 L850.776,240.948 C848.385,239.915 846.804,243.572 849.184,244.599 L856.503,247.805 Z M838.209,239.789 C840.598,240.822 842.18,237.166 839.8,236.138 L832.482,232.932 C830.092,231.9 828.51,235.555 830.89,236.583 L838.209,239.789 Z M819.915,231.774 C822.304,232.806 823.886,229.151 821.506,228.122 L814.188,224.916 C811.798,223.884 810.217,227.54 812.596,228.567 L819.915,231.774 Z M801.62,223.758 C804.01,224.79 805.593,221.135 803.212,220.107 L795.894,216.901 C793.504,215.868 791.923,219.525 794.302,220.552 L801.62,223.758 Z M783.326,215.743 C785.717,216.775 787.299,213.119 784.918,212.092 L777.6,208.885 C775.21,207.853 773.629,211.509 776.009,212.537 L783.326,215.743 Z M765.033,207.727 C767.423,208.76 769.004,205.104 766.624,204.076 L759.306,200.87 C756.916,199.838 755.334,203.493 757.715,204.522 L765.033,207.727 Z M746.738,199.712 C749.129,200.744 750.71,197.089 748.33,196.061 L741.012,192.855 C738.621,191.823 737.04,195.478 739.42,196.506 L746.738,199.712 Z" id="Fill-149" fill="#000000" fill-rule="nonzero"></path>
        </g>
    </g>
</svg>