<?xml version="1.0" encoding="UTF-8"?>
<svg width="1235px" height="966px" viewBox="0 0 1235 966" version="1.1" xmlns="http://www.w3.org/2000/svg" xmlns:xlink="http://www.w3.org/1999/xlink">
    <!-- Generator: Sketch 43.2 (39069) - http://www.bohemiancoding.com/sketch -->
    <title>rocket-schematic</title>
    <desc>Created with Sketch.</desc>
    <defs></defs>
    <g id="Page-7" stroke="none" stroke-width="1" fill="none" fill-rule="evenodd">
        <g id="rocket-schematic">
            <path d="M869.468106,774.822149 C871.584304,774.527717 872.038956,777.779697 869.914491,778.074128 C830.541633,783.506224 790.209873,777.563836 754.127041,760.871389 C752.185264,759.976515 753.55666,756.998291 755.499264,757.893164 C790.998487,774.317646 830.73176,780.166577 869.468106,774.822149 Z M661.901309,670.952337 C662.936262,672.828098 660.063688,674.415216 659.028735,672.539455 C619.681503,601.52026 625.895355,510.724531 675.283782,445.505471 C744.603323,353.965392 875.833233,335.862817 967.325736,405.216324 C1029.10054,452.046647 1059.64488,530.329038 1047.13782,605.679519 C1046.78236,607.795125 1043.54193,607.255885 1043.89739,605.140279 C1056.20606,530.974967 1026.14943,453.920753 965.341801,407.826509 C875.295917,339.569676 746.115248,357.394361 677.891831,447.48544 C629.282925,511.676471 623.174883,601.052974 661.901309,670.952337 Z" id="Fill-1" fill="#000000"></path>
            <path d="M1019.7595,299.982699 C1017.9657,298.802491 1019.77604,296.052534 1021.56158,297.232741 C1044.98855,312.646562 1066.42333,331.052666 1085.20459,351.881214 C1086.63467,353.472467 1084.20435,355.674914 1082.766,354.082834 C1064.17487,333.460223 1042.94675,315.243514 1019.7595,299.982699 Z M1113.43434,393.911312 C1112.26878,392.115776 1115.01322,390.322721 1116.18705,392.11743 C1131.23189,415.155041 1143.34217,440.084954 1152.13762,466.15951 C1152.81546,468.194065 1149.69903,469.233673 1149.02118,467.199945 C1140.31667,441.3917 1128.33039,416.712385 1113.43434,393.911312 Z M1163.0906,527.077885 C1162.80127,524.95649 1166.04997,524.505745 1166.34756,526.62714 C1169.22426,547.509447 1170.11703,568.652276 1168.96801,589.701647 C1168.86054,591.839584 1165.58705,591.668384 1165.69451,589.531274 C1166.83527,568.694455 1165.9425,547.748466 1163.0906,527.077885 Z M1157.55211,646.009192 C1142.375,710.342476 1107.85452,768.176764 1059.66968,812.016457 C944.998193,916.350247 769.93405,924.811017 645.362724,830.382863 C502.869846,722.370334 474.678946,517.845473 582.638116,375.281075 C675.101921,253.174705 844.668909,213.03112 980.965295,278.088077 C982.899632,279.012724 984.313186,276.050214 982.378849,275.125567 C844.701975,209.40862 673.432108,249.955808 580.02924,373.300279 C470.972293,517.31533 499.440117,723.880536 643.382922,832.993048 C769.212393,928.374796 946.048025,919.844553 1061.88507,814.451307 C1110.54936,770.177409 1145.40877,711.757567 1160.7512,646.762639 C1161.23892,644.677634 1158.04809,643.925014 1157.55211,646.009192 Z" id="Fill-2" fill="#000000"></path>
            <path d="M581.300612,532.957418 L578.315616,515.466863 L582.977038,516.881127 C600.265385,458.694514 637.409622,398.089592 683.447677,357.985705 C686.450033,355.354017 690.477423,359.91357 687.497386,362.573378 C641.821399,403.88642 607.218253,460.033515 588.835435,518.659295 L593.495204,520.073558 L581.300612,532.957418 Z" id="Fill-3" fill="#000000"></path>
            <path d="M1009.6001,258.379361 C1013.12985,259.100553 1015.6511,253.37568 1009.89769,252.213668 C1006.17781,251.461875 1002.4166,250.762187 998.647122,250.303171 C995.150435,249.877238 992.868909,255.596322 998.754585,256.468038 L1009.6001,258.379361 Z M762.341362,733.214676 C759.750673,730.209159 755.098343,734.156692 757.66258,737.191983 C759.805231,739.655779 761.471737,742.657161 762.638952,745.70155 C764.117811,749.558933 769.709203,747.020702 768.276637,743.274144 C766.770499,739.604502 764.899813,736.262373 762.341362,733.214676 Z M771.465813,762.571813 C771.533598,758.589545 765.467714,758.53744 765.360251,762.501514 C765.28172,766.353108 764.770857,770.217935 763.877259,773.966147 C762.983661,777.869019 768.90323,779.17163 769.824106,775.315074 C770.795408,771.131003 771.378189,766.867536 771.465813,762.571813 Z M762.52157,793.168705 C764.327778,790.21033 760.070582,785.774836 756.784689,790.862877 C754.861098,793.841928 752.643223,796.544743 750.217861,799.1235 C747.665197,801.837894 751.273481,806.892026 755.333936,802.566529 C758.035395,799.687551 760.458276,796.534818 762.52157,793.168705 Z M739.112781,814.924382 C742.159776,813.282678 740.706543,807.290666 735.393728,810.026563 C732.182232,811.679846 728.867406,813.019675 725.464956,814.218077 C722.161703,815.380916 722.532865,821.671495 728.520218,819.589798 C732.167353,818.321096 735.716944,816.763752 739.112781,814.924382 Z M708.670114,823.87725 C712.342048,823.528233 712.870271,817.408027 707.316904,817.887719 C703.673076,818.202827 700.016021,818.221022 696.363926,818.075461 C692.707697,817.929899 691.166014,824.017022 697.130221,824.205591 C700.98071,824.327168 704.832025,824.230402 708.670114,823.87725 Z M677.252011,821.20669 C680.647848,822.124721 683.638631,816.706685 678.056332,815.089793 C674.593537,814.088229 671.192741,812.857572 667.916767,811.351505 C664.499438,809.780928 661.098641,815.031899 666.161811,817.266601 C669.748601,818.849584 673.464347,820.188586 677.252011,821.20669 Z M649.282651,806.643082 C652.323032,809.177178 656.278504,804.498529 653.22655,801.955336 C650.185341,799.439435 647.308635,796.716771 644.56667,793.877491 C641.797426,791.044829 637.406315,795.255365 640.1458,798.111185 C643.043999,801.11174 646.067021,803.984928 649.282651,806.643082 Z M627.970221,784.159598 C630.131884,786.845045 635.846446,784.219973 632.092674,779.51982 C629.821068,776.675579 627.629645,773.771789 625.544859,770.788603 C623.47826,767.831055 617.735592,770.34282 621.09423,775.109964 C623.277386,778.209765 625.582058,781.215283 627.970221,784.159598 Z M610.772805,758.420825 C612.443444,761.507394 618.476262,759.884712 615.687179,754.623817 C613.980167,751.404092 612.36326,748.128128 610.881094,744.797579 C609.394796,741.457932 603.334699,743.019411 605.688969,748.188503 C607.267851,751.656344 608.969903,755.062983 610.772805,758.420825 Z M598.560027,730.037132 C599.858678,733.810156 605.508762,731.836803 604.363039,728.050546 L600.939923,716.585086 C599.861158,712.633418 594.082118,714.39918 595.081526,718.354156 C596.078454,722.299207 597.487048,726.118546 598.560027,730.037132 Z M591.100428,700.027449 C591.772487,703.948515 597.7524,702.889885 597.125807,698.982051 L595.411355,687.054267 C594.95009,683.101772 588.881727,683.880858 589.341339,687.815985 C589.81583,691.902462 590.415144,695.971572 591.100428,700.027449 Z M587.899679,669.326348 C588.049301,673.01005 594.186275,673.76267 593.968869,668.110577 L593.794448,656.976765 C593.809327,652.988707 587.713685,653.035022 587.688059,656.991652 L587.899679,669.326348 Z M588.400622,638.496226 C588.154284,642.509096 594.228434,642.796911 594.501225,638.819604 C594.775669,634.817486 595.117898,630.806271 595.601483,626.824002 C596.109039,622.642413 589.90676,622.391815 589.492614,626.53536 C589.095,630.519283 588.659361,634.49907 588.400622,638.496226 Z M592.118849,607.865425 C591.422818,611.984158 597.474649,612.594524 598.178119,608.52955 L600.378635,596.9177 C601.176342,593.006558 595.227841,591.85199 594.397068,595.735012 L592.118849,607.865425 Z M598.611278,577.695293 C597.588725,581.561774 603.487627,583.0513 604.524234,579.20963 L607.771275,567.494399 C608.902945,563.670098 603.048681,562.021777 601.924451,565.821267 L598.611278,577.695293 Z M607.577015,548.19094 C606.270924,551.939979 611.94498,554.162276 613.537088,549.599414 L617.496693,538.72199 C618.968112,534.909267 613.218005,532.790353 611.649869,536.976077 L607.577015,548.19094 Z M618.74244,519.427628 C617.104039,523.261027 622.831827,525.356784 624.461135,521.558949 L629.318471,510.690622 C631.057721,506.992033 625.482035,504.462072 623.608869,508.541933 L618.74244,519.427628 Z M631.909987,491.517837 C630.14511,494.972445 635.30913,498.226906 637.687373,493.601188 L643.055572,483.498714 C644.983297,479.992829 639.61923,477.122122 637.699772,480.61312 L631.909987,491.517837 Z M646.918461,464.528558 C644.836155,467.937678 650.060519,471.051539 652.140345,467.646555 C654.245797,464.173752 656.302477,460.657942 658.541844,457.268671 C660.809317,453.838048 655.456824,450.663812 653.30508,454.171351 L646.918461,464.528558 Z M663.624026,438.560692 C661.34002,441.839137 666.349458,445.262317 668.624371,441.997932 C670.933176,438.67069 673.156011,435.214428 675.670649,432.040192 C678.191074,428.858512 672.992336,425.187216 670.685184,428.564908 L663.624026,438.560692 Z M681.905167,413.682057 C679.370689,416.934036 684.281757,420.466387 686.817888,417.244182 L694.337005,407.886884 C696.864869,404.795353 692.214193,400.995036 689.642517,404.045214 L681.905167,413.682057 Z M701.6817,389.944757 C699.379508,392.546671 702.858009,397.762079 706.989555,393.115685 L714.43758,384.935286 C717.271302,381.94631 712.755368,377.782916 709.651335,381.160608 L701.6817,389.944757 Z M722.869307,367.435634 C720.0174,370.250101 724.310967,374.558229 727.157088,371.749551 L735.898805,363.216827 C738.882149,360.379202 734.652232,355.996639 731.392791,359.1105 L722.869307,367.435634 Z M745.386978,346.272128 C742.306918,348.982387 746.346707,353.520437 749.752463,350.514092 L758.652068,342.863009 C761.748661,340.226358 757.813029,335.671767 754.682544,338.263757 L745.386978,346.272128 Z M769.201647,326.556796 C765.924019,329.09999 769.83072,333.753 773.113307,331.214769 L782.663477,324.023527 C785.797269,321.733413 782.674224,316.491539 778.547637,319.517733 L769.201647,326.556796 Z M794.30422,308.466627 C790.89929,310.76005 794.286034,315.768693 798.057165,313.250312 L807.907406,306.866276 C811.100716,304.856533 808.575331,299.268123 803.985,302.169432 L794.30422,308.466627 Z M820.626088,292.183572 C817.520402,293.941063 819.310077,299.90661 824.493936,296.979663 L834.311111,291.612904 C837.832597,289.73549 835.270013,284.228959 830.897088,286.548021 L820.626088,292.183572 Z M848.13253,277.9665 C844.429183,279.705796 846.983501,285.185861 851.075368,283.282808 L861.796888,278.508221 C865.698628,276.854111 862.96245,271.382317 859.110308,273.048005 L848.13253,277.9665 Z M876.742537,266.063527 C872.989592,267.44719 875.006593,273.139808 878.767805,271.795844 C881.512249,270.811649 888.208032,268.772959 890.274632,267.83756 C893.920114,266.196683 892.366031,261.03917 888.406426,262.056447 C884.455087,263.068762 880.561613,264.676557 876.742537,266.063527 Z M906.319712,256.865024 C902.5833,257.847565 903.50087,263.876795 908.468976,262.595687 L919.628614,259.989637 C923.092236,259.251904 923.241031,252.996062 917.363621,254.260628 L906.319712,256.865024 Z M936.74006,250.796096 C932.805254,251.346914 933.574029,257.366219 937.525368,256.819536 L949.561245,255.425122 C953.090997,255.092646 954.0251,248.860788 947.957564,249.459575 L936.74006,250.796096 Z M967.664659,248.39681 C963.59759,248.466283 963.754652,254.50461 967.838253,254.474009 C971.806124,254.443408 975.782262,254.464911 979.741867,254.689043 C983.965997,254.928062 983.924665,248.735902 979.708802,248.583724 C975.699598,248.43899 971.682129,248.343878 967.664659,248.39681 Z" id="Fill-4" fill="#000000"></path>
            <path d="M902.161714,217.989313 C900.409237,219.227414 902.244378,221.895493 904.021653,220.69461 L917.652945,211.534151 C919.331024,210.450709 918.000134,207.381509 915.354886,209.11088 L902.161714,217.989313 Z M1178.17677,457.386113 C1177.27574,459.333 1180.21857,460.719144 1181.14441,458.786317 C1183.30194,454.266462 1186.27784,448.345577 1188.04685,443.790159 C1188.83216,441.753123 1185.98852,440.57457 1185.02135,442.499127 C1183.21101,446.094334 1180.20204,453.126781 1178.17677,457.386113 Z M1191.50221,427.360716 C1190.68384,429.339031 1193.7176,430.592846 1194.53598,428.611223 C1196.62738,423.521527 1198.67744,418.406193 1200.58698,413.24289 C1201.24829,411.466377 1198.47905,409.531068 1197.26389,412.740041 L1191.50221,427.360716 Z M1203.05863,396.638111 C1202.38079,398.681764 1205.49722,399.722199 1206.17507,397.691779 C1207.92754,392.474717 1209.71309,387.252693 1211.2341,381.962024 C1211.85408,379.804238 1208.72112,379.051618 1208.04327,381.174668 L1203.05863,396.638111 Z M1212.57326,365.236495 C1212.08554,367.055188 1215.04491,368.705163 1215.92115,365.379575 C1217.26857,360.286572 1218.58293,355.156351 1219.64103,349.993875 C1220.08742,347.831954 1216.92139,347.259632 1216.40887,349.393433 C1215.15238,354.680795 1213.95375,359.97808 1212.57326,365.236495 Z M1219.6245,333.215414 C1219.26904,335.326058 1222.5012,335.879358 1222.85666,333.770368 C1223.79076,328.334137 1224.6422,322.884673 1225.31178,317.40957 C1225.53497,315.617342 1222.42681,314.168342 1221.95562,317.788361 C1221.28604,322.947529 1220.51727,328.090156 1219.6245,333.215414 Z M1223.64197,300.707199 C1223.50144,303.020471 1226.77493,302.938592 1226.94026,300.684041 C1227.31225,295.259389 1227.55197,289.807443 1227.55197,284.368731 C1227.55197,282.22914 1224.29501,282.038918 1224.26195,284.76489 C1224.20408,290.08368 1224.01396,295.399988 1223.64197,300.707199 Z M1223.79903,268.021166 C1223.94782,270.240981 1227.21305,269.973015 1227.04772,267.443055 C1226.70054,262.037425 1226.13015,256.640065 1225.32005,251.282404 C1225.01419,249.239579 1221.7159,249.346269 1222.15402,252.313741 C1222.92279,257.521705 1223.46011,262.768541 1223.79903,268.021166 Z M1218.93012,235.790841 C1219.39304,237.616978 1222.78226,237.633519 1221.93082,234.267406 C1220.62473,229.129741 1219.08718,224.044182 1217.23551,219.07689 C1216.475,217.043163 1213.3751,218.039764 1214.3092,220.650776 C1216.09475,225.624683 1217.64883,230.663928 1218.93012,235.790841 Z M1207.59689,205.3453 C1208.62192,207.268202 1211.58956,205.862209 1210.31653,203.438938 C1207.78701,198.637058 1204.94337,194.027055 1201.82694,189.587425 C1200.77711,188.088801 1197.52841,189.185476 1199.58675,192.103325 C1202.56265,196.319651 1205.22443,200.765897 1207.59689,205.3453 Z M1188.7991,179.038341 C1190.28705,180.582452 1192.76697,178.402336 1190.8409,176.428983 C1187.05489,172.550096 1182.96302,168.935039 1178.60663,165.706217 C1177.21787,164.678188 1174.2833,166.534926 1177.32533,168.848199 C1181.3924,171.949654 1185.23628,175.358774 1188.7991,179.038341 Z M1162.97487,159.68774 C1164.60335,160.529682 1166.9758,158.078291 1163.80977,156.423354 C1159.10619,153.964521 1154.20422,151.850568 1149.20305,150.09225 C1147.19431,149.386772 1145.92129,152.402214 1148.5004,153.323553 C1153.46851,155.09924 1158.30435,157.233868 1162.97487,159.68774 Z M1132.49665,148.795428 C1134.58805,149.23294 1135.25763,146.009908 1133.15797,145.571568 C1127.74347,144.437676 1122.22979,143.474985 1116.70783,143.04657 C1114.42631,142.86958 1114.40151,146.095094 1116.6169,146.339075 C1121.95699,146.926284 1127.23922,147.688829 1132.49665,148.795428 Z M1100.14197,145.547584 C1102.29123,145.530216 1102.44003,142.248462 1099.70385,142.25756 C1094.31416,142.276582 1088.9162,142.513947 1083.54304,142.983714 C1081.49297,143.163185 1081.37724,146.445765 1084.37795,146.207574 C1089.62711,145.791565 1094.87627,145.54593 1100.14197,145.547584 Z M1067.61369,148.239647 C1069.74642,147.879878 1069.37443,144.626245 1066.67132,145.062103 C1061.35602,145.917277 1056.06553,146.925457 1050.82463,148.127168 C1048.7415,148.604378 1049.29535,151.830719 1051.97366,151.23524 C1057.15669,150.081498 1062.37279,149.069183 1067.61369,148.239647 Z M1035.69712,155.375476 C1037.53226,154.834582 1037.4,151.471777 1034.10171,152.417928 C1029.0344,153.874372 1024.00017,155.457354 1019.00726,157.156125 C1016.8084,157.902128 1018.16409,160.915089 1020.30509,160.183146 C1025.39719,158.450466 1030.53062,156.847634 1035.69712,155.375476 Z M1004.68159,165.897267 C1006.401,165.234796 1006.09515,161.807481 1002.75552,163.11919 L988.223193,169.176539 C986.371519,169.980437 987.189893,173.219183 990.107932,171.939729 C994.918976,169.829913 999.779618,167.812726 1004.68159,165.897267 Z M974.649766,179.070596 C976.584103,178.141813 975.154016,175.183438 973.219679,176.115529 L958.488956,183.59045 C956.670348,184.550661 957.86071,187.632267 960.456359,186.261837 L974.649766,179.070596 Z M945.651238,194.400057 C947.494645,193.314134 945.890964,190.508764 944.014491,191.55168 C939.228246,194.254495 934.4916,197.078887 929.812818,199.960346 C927.886747,201.144688 929.771486,203.830962 931.672758,202.664815 L945.651238,194.400057 Z" id="Fill-5" fill="#000000"></path>
            <path d="M767.259043,566.560654 C783.442172,562.291397 786.80081,550.415717 774.708722,538.692216 C791.318397,541.084058 798.649866,531.400074 791.855713,516.049937 C806.408708,524.524767 816.926874,518.074567 816.65491,501.33167 C827.011881,514.598455 839.940529,512.813671 846.330455,497.237748 C850.595917,513.429827 862.466466,516.790151 874.179953,504.691166 C871.790964,521.309178 881.470917,528.645981 896.813353,521.845937 C888.340295,536.405409 894.788086,546.930509 911.519277,546.658408 C898.259973,557.023058 900.045515,569.959022 915.619411,576.346366 C899.433802,580.615623 896.077644,592.49213 908.163119,604.215632 C891.555924,601.823789 884.223628,611.508601 891.018608,626.858738 C876.469746,618.383908 865.94662,624.832454 866.219411,641.576178 C855.861613,628.311046 842.932965,630.093349 836.551305,645.670099 C832.277577,629.478848 820.409508,626.117697 808.692714,638.215854 C811.08253,621.597842 801.403404,614.262693 786.061794,621.061084 C794.532373,606.500784 788.085408,595.977339 771.35091,596.250267 C784.611041,585.884789 782.827152,572.950479 767.259043,566.560654 Z" id="Stroke-6" stroke="#000000" stroke-width="7.4344" stroke-linecap="round" stroke-linejoin="round"></path>
            <path d="M797.689311,577.489356 C794.358778,553.320334 811.247858,531.017147 835.402276,527.684943 C859.56496,524.351086 881.851171,541.249469 885.18253,565.419318 C888.513889,589.588341 871.625636,611.891527 847.471218,615.224558 C823.312667,618.557589 801.021496,601.659205 797.689311,577.489356 Z" id="Stroke-7" stroke="#000000" stroke-width="7.4341" stroke-linecap="round" stroke-linejoin="round"></path>
            <path d="M797.274337,571.000284 C797.28839,569.487601 797.379321,567.988151 797.544649,566.507723 L822.768738,531.401728 C824.121121,530.771512 825.512356,530.207461 826.937483,529.712882 L797.274337,571.000284 Z M801.494334,552.60824 L810.850244,539.587089 C806.97413,543.31876 803.796526,547.734406 801.494334,552.60824 Z M834.319378,527.8487 L797.855465,578.593474 C798.034019,579.681878 798.250599,580.753741 798.504378,581.809063 L837.568072,527.440135 C836.848896,527.503818 836.129719,527.584043 835.402276,527.684943 C835.038554,527.734567 834.674833,527.789979 834.319378,527.8487 Z M843.693474,527.322693 L800.342825,587.651378 C800.686707,588.525575 801.053735,589.385712 801.448869,590.230135 L846.487517,527.550134 C845.56168,527.444271 844.627577,527.370663 843.693474,527.322693 Z M851.835877,528.502901 L804.058571,595.000587 C804.514876,595.72426 804.993501,596.432219 805.489485,597.125291 L854.30753,529.181086 C853.497423,528.932142 852.670783,528.704702 851.835877,528.502901 Z M859.077242,530.945193 L808.680315,601.087711 C809.22755,601.692288 809.792145,602.279497 810.369967,602.851818 L861.292637,531.987283 C860.565194,531.62007 859.829485,531.27188 859.077242,530.945193 Z M865.558099,534.445289 L814.060914,606.118685 C814.68916,606.615745 815.331459,607.093783 815.986158,607.556106 L867.533768,535.815719 C866.888989,535.341817 866.227677,534.884455 865.558099,534.445289 Z M871.328046,538.932889 L820.14829,610.165464 C820.857547,610.556661 821.57755,610.926354 822.3083,611.277853 L873.072256,540.626697 C872.510141,540.046932 871.923226,539.480399 871.328046,538.932889 Z M876.378815,544.426187 C876.891332,545.091139 877.387316,545.774286 877.866767,546.470666 L829.376071,613.964954 C828.557697,613.733378 827.755857,613.481127 826.962282,613.20489 L876.378815,544.426187 Z M880.619478,551.048414 C881.032798,551.853966 881.429585,552.675231 881.801573,553.512211 L837.295281,615.451998 C836.385977,615.366812 835.48494,615.251851 834.583902,615.112079 L880.619478,551.048414 Z M883.835107,559.085733 C884.124431,560.084815 884.388956,561.101265 884.603882,562.131776 L846.355254,615.362676 C845.313688,615.481772 844.263855,615.559515 843.230556,615.602522 L883.835107,559.085733 Z M885.546252,569.231214 C885.612383,570.602471 885.620649,571.965457 885.571051,573.314384 L857.258635,612.716101 C855.993876,613.199101 854.696051,613.625034 853.381693,613.993901 L885.546252,569.231214 Z M883.686312,584.330753 C880.850937,593.640909 874.99006,601.773339 867.103916,607.417988 L883.686312,584.330753 Z" id="Fill-8" fill="#000000"></path>
            <path d="M1140.96971,362.695783 C1143.24297,365.604534 1148.76493,362.643678 1145.28477,358.26525 C1144.09441,356.771589 1142.78832,355.363942 1141.4161,354.042308 C1138.67992,351.416409 1134.01767,355.315146 1137.53089,358.821858 C1138.75432,360.041764 1139.91988,361.324526 1140.96971,362.695783 Z M1151.53417,368.5993 C1152.31121,370.393182 1152.96426,372.239168 1153.50157,374.120717 C1154.93993,379.179812 1148.76493,380.060625 1147.78122,376.394291 C1147.33484,374.736046 1146.76446,373.124116 1146.12795,371.530382 C1144.18534,366.669781 1150.10408,365.262134 1151.53417,368.5993 Z M1154.48527,394.434837 C1155.20445,390.441817 1149.14518,389.273188 1148.36814,393.812065 C1148.07882,395.523241 1147.5663,397.198854 1147.04552,398.850483 C1145.91302,402.425841 1151.43497,405.299029 1153.13785,399.931443 C1153.70823,398.130118 1154.14635,396.291575 1154.48527,394.434837 Z M1142.61473,417.597334 C1145.18558,414.935045 1141.50703,410.090158 1137.80368,413.747394 C1136.60505,414.937526 1135.34029,416.103673 1133.97634,417.105236 C1130.9839,419.297759 1134.04247,424.858875 1138.29967,421.515092 C1139.82895,420.314209 1141.25904,418.992575 1142.61473,417.597334 Z M1119.89866,430.25458 C1123.51108,429.469705 1123.13909,423.379274 1118.03046,424.377529 L1112.97142,425.052406 C1109.06968,425.400596 1108.96222,431.607642 1114.16178,431.109755 C1116.09612,430.924495 1118.00566,430.665627 1119.89866,430.25458 Z M1093.97523,428.154688 C1097.48019,429.529253 1100.43956,424.13851 1095.65331,422.224705 C1094.09096,421.60276 1092.52861,420.871644 1091.10679,419.987522 C1087.9325,418.019959 1084.00596,423.075745 1088.67647,425.663599 C1090.37935,426.611404 1092.16489,427.439286 1093.97523,428.154688 Z M1073.57376,412.010579 C1075.78089,415.195567 1081.07139,412.147043 1078.34347,408.123421 C1077.36804,406.684346 1076.5166,405.182414 1075.72303,403.636649 C1073.97882,400.245724 1068.01874,402.253813 1070.64746,407.186368 C1071.53196,408.851229 1072.5074,410.459024 1073.57376,412.010579 Z M1065.56362,387.272543 C1065.64629,391.284586 1071.77995,391.164663 1071.70556,387.159236 C1071.66422,385.24874 1071.84608,383.382904 1072.00315,381.483986 C1072.32554,377.582769 1066.39026,376.17264 1065.81988,381.589022 C1065.62975,383.473053 1065.52229,385.37776 1065.56362,387.272543 Z M1072.63966,362.22188 C1070.65572,365.357245 1075.21878,369.361844 1078.12028,365.028077 L1081.18712,360.992877 C1083.56784,357.960067 1079.55037,353.408784 1075.99582,357.645786 C1074.78066,359.095613 1073.65643,360.628973 1072.63966,362.22188 Z M1092.42115,345.317707 C1088.75914,346.895728 1090.96627,352.647894 1095.29786,350.758074 C1096.87674,350.065829 1098.53829,349.510875 1100.2081,349.052687 C1104.20077,347.89481 1102.71282,341.942497 1097.82738,343.360068 C1095.98397,343.894346 1094.18189,344.551854 1092.42115,345.317707 Z M1118.23712,342.27001 C1114.35191,341.574457 1112.88049,347.582183 1117.7742,348.416682 C1119.43574,348.699534 1121.07249,349.185842 1122.6679,349.699443 C1126.35472,350.882959 1128.8925,345.196957 1123.89133,343.650365 C1122.03139,343.075562 1120.15492,342.610757 1118.23712,342.27001 Z" id="Fill-9" fill="#000000"></path>
            <path d="M1192.7587,608.441055 C1195.03196,611.349807 1200.54565,608.38895 1197.0655,604.010522 C1195.87513,602.516861 1194.56904,601.108387 1193.19682,599.78758 C1190.46064,597.160854 1185.80666,601.059591 1189.31988,604.56713 C1190.54331,605.787036 1191.7006,607.069798 1192.7587,608.441055 Z M1203.31489,614.344572 C1204.1002,616.139281 1204.75325,617.983613 1205.2823,619.866817 C1206.72065,624.925084 1200.55392,625.80507 1199.56195,622.139563 C1199.11556,620.481318 1198.54518,618.869389 1197.90867,617.276481 C1195.96606,612.415053 1201.88481,611.007406 1203.31489,614.344572 Z M1206.266,640.179283 C1206.98517,636.187916 1200.9259,635.017634 1200.15713,639.557337 C1199.85954,641.268514 1199.34702,642.9433 1198.82624,644.595755 C1197.67721,648.22239 1203.27356,650.996332 1204.91857,645.676716 C1205.47242,643.87539 1205.96014,642.040156 1206.266,640.179283 Z M1194.39545,663.342606 C1196.9663,660.680317 1193.28775,655.83543 1189.59267,659.492666 C1188.38578,660.682798 1187.12928,661.848118 1185.75706,662.850509 C1182.76463,665.043031 1185.82319,670.604147 1190.08039,667.260365 C1191.60967,666.059481 1193.04803,664.737021 1194.39545,663.342606 Z M1171.68765,675.999853 C1175.2918,675.214151 1174.92808,669.124546 1169.81118,670.121974 L1164.76041,670.798505 C1160.85867,671.145868 1160.74294,677.352087 1165.9425,676.8542 C1167.87684,676.669767 1169.78638,676.410899 1171.68765,675.999853 Z M1145.76422,673.899961 C1149.26091,675.274526 1152.22028,669.881301 1147.43404,667.969978 C1145.87995,667.348033 1144.3176,666.616089 1142.88752,665.732795 C1139.71322,663.766058 1135.78668,668.819363 1140.4572,671.408045 C1142.16007,672.355849 1143.94562,673.186212 1145.76422,673.899961 Z M1125.36275,657.755024 C1127.56161,660.940839 1132.86037,657.892315 1130.13246,653.868693 C1129.15703,652.429618 1128.29732,650.927687 1127.50375,649.381921 C1125.7678,645.99017 1119.80773,647.999086 1122.42818,652.93164 C1123.31268,654.597329 1124.28812,656.203469 1125.36275,657.755024 Z M1117.34434,633.017815 C1117.42701,637.029858 1123.56894,636.909108 1123.48628,632.903682 C1123.44495,630.994012 1123.63507,629.128176 1123.79214,627.228432 C1124.10626,623.326387 1118.17098,621.919567 1117.60887,627.334295 C1117.41048,629.218325 1117.30301,631.123033 1117.34434,633.017815 Z M1124.42038,607.967152 C1122.44471,611.102517 1126.9995,615.107116 1129.901,610.772522 L1132.9761,606.738149 C1135.34856,603.710301 1131.33936,599.150748 1127.77654,603.391885 C1126.56138,604.840885 1125.43715,606.372591 1124.42038,607.967152 Z M1144.21014,591.062152 C1140.53986,592.640173 1142.74699,598.391512 1147.07858,596.504173 C1148.66573,595.811928 1150.31901,595.256147 1151.98882,594.797132 C1155.81616,593.748426 1154.55141,587.670401 1149.61637,589.104514 C1147.77296,589.640445 1145.97088,590.297127 1144.21014,591.062152 Z M1170.01784,588.014455 C1166.13263,587.318902 1164.66948,593.327455 1169.56319,594.161954 C1171.22473,594.444807 1172.85321,594.930288 1174.45689,595.444716 C1177.95358,596.568683 1181.00388,591.00095 1175.42406,589.312104 C1173.64679,588.774519 1171.84471,588.339488 1170.01784,588.014455 Z" id="Fill-10" fill="#000000"></path>
            <path d="M1194.21359,480.604849 C1180.08631,462.368291 1153.84876,459.04105 1135.62135,473.173762 C1117.39394,487.307301 1114.07085,513.558021 1128.19813,531.793752 C1142.3254,550.03031 1168.56295,553.357551 1186.79036,539.224839 C1205.01777,525.0913 1208.34086,498.841408 1194.21359,480.604849 Z" id="Stroke-11" stroke="#000000" stroke-width="7.4341" stroke-linecap="round" stroke-linejoin="round"></path>
            <path d="M1193.18029,479.328704 C1192.65124,478.696007 1192.10566,478.081505 1191.54354,477.48768 L1143.66456,544.124312 C1144.4168,544.469193 1145.16904,544.790091 1145.93782,545.089485 L1193.18029,479.328704 Z M1187.94766,474.098409 L1139.30817,541.786228 C1138.63032,541.367738 1137.96074,540.930226 1137.29943,540.469557 L1186.05465,472.608884 C1186.69943,473.08444 1187.32768,473.582327 1187.94766,474.098409 Z M1181.94625,469.926745 L1133.44729,537.423514 C1132.85211,536.887582 1132.26519,536.334283 1131.68655,535.759479 L1179.81352,468.783755 C1180.5327,469.14187 1181.24361,469.524796 1181.94625,469.926745 Z M1175.18434,466.822808 L1128.35519,531.993072 C1128.30559,531.92608 1128.24772,531.860743 1128.19813,531.793752 C1127.73521,531.191656 1127.28882,530.581289 1126.85897,529.961825 L1172.77882,466.054474 C1173.58892,466.286877 1174.39076,466.54161 1175.18434,466.822808 Z M1167.56272,464.906522 L1124.10626,525.389866 C1123.68467,524.57439 1123.28788,523.74899 1122.92416,522.915318 L1164.84307,464.579836 C1165.75238,464.66006 1166.66168,464.767577 1167.56272,464.906522 Z M1158.87473,464.48307 L1120.93196,517.283075 C1120.6509,516.254219 1120.41118,515.21792 1120.21278,514.177485 L1155.70044,464.778329 C1156.75853,464.639384 1157.81663,464.540964 1158.87473,464.48307 Z M1148.50867,466.382815 L1119.45228,506.828276 C1119.42748,505.376795 1119.48534,503.925313 1119.6176,502.482103 L1144.44987,467.92031 C1145.78076,467.334755 1147.13645,466.821154 1148.50867,466.382815 Z M1133.14143,475.259594 C1128.65278,479.322914 1125.23876,484.181034 1122.9407,489.451027 L1133.14143,475.259594 Z M1150.83153,546.670813 L1196.24712,483.468113 C1196.71831,484.202538 1197.17296,484.946887 1197.60281,485.701161 L1153.38584,547.237346 C1152.52614,547.075243 1151.68297,546.885848 1150.83153,546.670813 Z M1158.9326,547.918012 L1200.0166,490.743714 C1200.38032,491.650166 1200.70271,492.566543 1201.0003,493.489536 L1161.85064,547.975906 C1160.8752,547.989966 1159.89977,547.971771 1158.9326,547.918012 Z M1168.32323,547.374637 L1202.47999,499.828084 C1202.66185,501.01408 1202.79411,502.205039 1202.87677,503.397652 L1171.81991,546.617882 C1170.66262,546.922238 1169.49705,547.172836 1168.32323,547.374637 Z M1180.13591,543.446127 L1202.51305,512.30007 C1202.22373,514.315603 1201.77734,516.308805 1201.19043,518.263135 L1185.37681,540.266101 C1183.69046,541.470293 1181.93799,542.528923 1180.13591,543.446127 Z" id="Fill-12" fill="#000000"></path>
            <path d="M1052.93256,272.527788 C1038.80529,254.292057 1012.56774,250.964815 994.340328,265.097527 C976.112918,279.23024 972.789826,305.481786 986.917102,323.717517 C1001.03611,341.954075 1027.28193,345.281317 1045.50107,331.148604 C1063.72848,317.015065 1067.05984,290.764346 1052.93256,272.527788 Z" id="Stroke-13" stroke="#000000" stroke-width="7.4341" stroke-linecap="round" stroke-linejoin="round"></path>
            <path d="M1050.34518,269.499113 C1049.78307,268.904461 1049.21268,268.326349 1048.62577,267.769741 L1000.30867,335.020048 C1001.02784,335.40132 1001.75529,335.759435 1002.491,336.096873 L1050.34518,269.499113 Z M1044.86456,264.603776 L996.109337,332.459486 C995.456292,332.003779 994.811513,331.527396 994.175,331.03199 L1042.90542,263.223421 C1043.56673,263.662587 1044.21978,264.123257 1044.86456,264.603776 Z M1038.63169,260.760452 L990.488186,327.767604 C989.909538,327.194455 989.355689,326.601457 988.810107,325.98861 L1036.4163,259.732423 C1037.16027,260.05332 1037.90425,260.394894 1038.63169,260.760452 Z M1031.61352,258.012976 L985.644076,321.988973 C985.148092,321.27936 984.685174,320.558168 984.238788,319.828705 L1029.11707,257.367046 C1029.95197,257.555615 1030.78688,257.77313 1031.61352,258.012976 Z M1023.69431,256.516007 L981.692738,314.963142 C981.312483,314.090599 980.957028,313.208959 980.634639,312.319875 L1020.85067,256.353904 C1021.80131,256.376235 1022.74367,256.429993 1023.69431,256.516007 Z M1014.57647,256.682245 L978.95656,306.25839 C978.733367,305.136077 978.551506,304.007147 978.42751,302.875736 L1011.21205,257.252086 C1012.32801,257.014721 1013.45224,256.826152 1014.57647,256.682245 Z M1003.3755,259.748964 L978.31178,294.635789 C978.452309,292.896493 978.708568,291.166295 979.072289,289.458426 L998.713253,262.126747 C1000.23427,261.228565 1001.78835,260.436247 1003.3755,259.748964 Z M1007.21938,337.923837 L1053.58561,273.393714 C1054.08986,274.085132 1054.56931,274.786474 1055.03223,275.498568 L1009.6745,338.626007 C1008.84786,338.417589 1008.02948,338.182705 1007.21938,337.923837 Z M1015.00633,339.609375 L1057.66921,280.231803 C1058.066,281.07788 1058.43799,281.933055 1058.78517,282.797327 L1017.7921,339.847567 C1016.858,339.799598 1015.93216,339.719373 1015.00633,339.609375 Z M1023.92577,339.715238 L1060.60378,288.661973 C1060.85177,289.741279 1061.05843,290.827202 1061.22376,291.918087 L1027.19926,339.269455 C1026.1081,339.462159 1025.01693,339.610202 1023.92577,339.715238 Z M1034.72169,337.201818 L1061.64535,299.728793 C1061.58748,301.319219 1061.43869,302.90551 1061.1907,304.477741 L1039.07808,335.254104 C1037.65626,335.992664 1036.20137,336.641075 1034.72169,337.201818 Z" id="Fill-14" fill="#000000"></path>
            <path d="M762.482718,730.510207 C759.528307,732.996334 755.719977,728.465728 758.674388,725.979601 C780.624157,707.519738 770.512697,668.501774 751.480141,652.388265 C721.246613,626.791747 673.588343,633.931711 645.447041,658.721024 C613.985127,686.436457 605.423618,732.568747 625.052182,769.295769 C657.781335,830.530906 733.402353,834.013634 793.427982,817.246752 C846.942169,802.29939 906.881827,769.695236 966.242838,721.631774 C969.243541,719.210985 972.955154,723.815199 969.946185,726.236815 C909.973461,774.800646 849.289826,807.776974 795.010171,822.938543 C732.130981,840.502705 653.934153,835.871199 619.833604,772.070538 C598.917135,732.934305 608.025054,683.818002 641.546128,654.289664 C671.934237,627.520382 722.832108,620.381245 755.311616,647.879163 C777.197734,666.407671 787.286048,709.648577 762.482718,730.510207 Z M1095.08293,598.566021 C1092.70221,601.600485 1088.05649,597.949865 1090.43722,594.915401 C1105.11007,576.238022 1118.96456,556.917195 1131.90147,536.993445 C1134.0094,533.752217 1138.96924,536.980212 1136.86131,540.22144 C1123.83347,560.289925 1109.86325,579.753005 1095.08293,598.566021 Z" id="Fill-15" fill="#000000"></path>
            <path d="M653.133139,708.644533 C663.370248,679.848966 695.012369,664.803185 723.793491,675.044604 C752.573785,685.286851 767.612018,716.944854 757.375736,745.740421 C747.138628,774.535161 715.496506,789.581769 686.715385,779.339522 C657.93509,769.097276 642.896031,737.440099 653.133139,708.644533 Z" id="Stroke-16" stroke="#000000" stroke-width="7.937" stroke-linecap="round" stroke-linejoin="round"></path>
            <path d="M666.100639,700.550974 C670.059418,689.414682 685.693658,689.580092 676.260044,680.056557 C690.034344,671.587515 707.378902,669.203943 723.793491,675.044604 C743.737831,689.990312 739.726148,705.60676 727.143862,701.330887 C713.438173,696.672087 725.183072,716.4602 718.493076,713.296716 C701.88836,705.448793 687.326272,714.569553 694.89664,715.01699 C712.468524,716.053289 696.45155,725.250139 699.62254,727.983555 C706.064545,733.535574 699.22906,741.410789 703.358126,746.144024 C723.437209,769.165921 707.941017,764.860274 697.377386,761.228676 C682.113481,755.981841 678.364669,743.965562 673.507333,744.150822 C664.288645,744.500666 664.084465,743.249332 660.62167,735.62306 C659.118839,732.314014 659.199023,727.737092 661.878163,723.257764 C664.471332,718.919861 677.902577,719.168805 684.147015,710.105938 C687.630475,705.050152 667.171965,715.20225 664.345683,709.32768 C662.630405,705.764728 664.988809,703.677241 666.100639,700.550974 Z" id="Stroke-17" stroke="#000000" stroke-width="7.937" stroke-linecap="round" stroke-linejoin="round"></path>
            <path d="M673.054334,692.049678 C676.812239,689.20461 680.249408,687.303211 678.961503,683.827926 L684.731449,675.798051 C686.038367,675.275353 687.365124,674.800623 688.710067,674.377998 L664.068758,708.672652 C663.402487,706.826666 663.845566,705.37105 664.53829,703.901373 L673.054334,692.049678 Z M696.014257,672.614717 L668.283795,711.208402 C669.226165,711.248928 670.271864,711.177801 671.365509,711.035548 L699.301804,672.156529 C698.199893,672.277279 697.103768,672.427803 696.014257,672.614717 Z M705.571867,671.833151 L678.442373,709.589856 C679.760863,709.274748 680.968584,708.988587 681.955592,708.815733 L708.463454,671.924954 C707.497112,671.869541 706.53325,671.838113 705.571867,671.833151 Z M714.057326,672.541937 L664.074545,742.106342 C664.62674,742.729115 665.24672,743.186476 666.022935,743.511509 L716.665375,673.029899 C715.796576,672.844639 714.926951,672.683363 714.057326,672.541937 Z M721.745904,674.361457 C722.429535,674.575664 723.111513,674.802277 723.793491,675.044604 C723.885248,675.11325 723.972871,675.182723 724.063802,675.252195 L698.509883,710.817205 C696.826017,711.219154 695.454622,711.752604 694.481667,712.305904 L721.745904,674.361457 Z M727.851466,678.383425 C728.467313,678.943341 729.0534,679.501603 729.607249,680.057384 L707.883153,710.292853 C706.905238,710.190298 705.957908,710.137366 705.043645,710.125788 L727.851466,678.383425 Z M732.931168,683.832062 C733.470137,684.532577 733.959508,685.224822 734.400107,685.906315 L723.82573,700.622928 C720.510904,700.49887 719.965321,702.966801 720.114116,705.787058 L715.589916,712.08508 C714.780636,711.789822 713.979622,711.532608 713.188527,711.31013 L732.931168,683.832062 Z M736.870107,690.870298 L728.997189,701.828774 C730.011476,702.028094 730.957152,702.087642 731.820164,702.016515 L737.59259,693.982505 C737.481821,693.005753 737.244575,691.964491 736.870107,690.870298 Z M692.975529,714.402488 C693.228481,714.728348 693.85094,714.954961 694.89664,715.01699 C695.0909,715.028568 695.277721,715.041801 695.463715,715.055861 L674.471195,744.272399 C674.152112,744.18225 673.832202,744.137589 673.507333,744.149995 C672.809649,744.176461 672.164869,744.194656 671.564729,744.200445 L692.975529,714.402488 Z M700.807942,716.021034 C701.78999,716.391555 702.432289,716.840646 702.814197,717.345976 L680.041094,749.04037 C679.450873,748.396921 678.900331,747.79069 678.376242,747.239045 L700.807942,716.021034 Z M700.55003,728.900759 C701.170837,729.608717 701.615569,730.347277 701.923079,731.106514 L685.287778,754.259086 C684.656225,753.714057 684.061871,753.169854 683.499756,752.629788 L700.55003,728.900759 Z M702.123952,739.228192 C701.946225,740.696214 701.830495,742.11544 702.071874,743.418051 L691.250331,758.477892 C690.532808,758.070981 689.849177,757.650837 689.196131,757.220769 L702.123952,739.228192 Z M704.87749,747.916402 L695.745599,760.624926 C696.275475,760.834171 696.817751,761.0368 697.377386,761.228676 L698.094083,761.473485 L706.459679,749.831034 C705.964521,749.21736 705.436299,748.578873 704.87749,747.916402 Z M709.557925,753.921647 C710.093588,754.689981 710.564772,755.406211 710.969826,756.072817 L705.540455,763.630443 C704.727041,763.456762 703.883042,763.245863 703.02747,763.010979 L709.557925,753.921647 Z M713.100904,761.510702 C713.11165,762.773615 712.477617,763.508039 711.411252,763.861192 L713.100904,761.510702 Z M661.422684,737.39213 C661.173865,736.84462 660.908514,736.256584 660.62167,735.62306 C660.505114,735.368327 660.398477,735.105324 660.302587,734.835704 L672.226867,718.240022 C673.636288,717.717324 675.080428,717.129288 676.490676,716.422983 L661.422684,737.39213 Z M660.492714,726.16817 L663.857965,721.485385 C662.973461,721.998159 662.289003,722.569654 661.878163,723.257764 C661.297861,724.227899 660.839076,725.202997 660.492714,726.16817 Z" id="Fill-18" fill="#000000"></path>
            <path d="M767.587219,654.556803 C766.068681,653.236824 763.563136,655.421902 765.776051,657.334053 C769.748882,660.769639 773.386098,664.569128 776.72655,668.619216 C777.915258,670.059945 781.007718,668.630795 778.854321,666.035497 C775.418805,661.893606 771.629488,658.103214 767.587219,654.556803 Z M755.552169,804.718526 C753.884009,805.788735 755.21738,808.848837 757.729538,807.216231 C760.434304,805.45874 763.002674,803.523432 765.532192,801.526094 C767.130087,800.264009 765.356944,797.478488 763.200241,799.188837 C760.728588,801.147303 758.180057,802.979229 755.552169,804.718526 Z M775.076576,787.74488 C773.673768,789.359291 776.152035,791.512942 777.558149,789.893568 C781.25075,785.629274 784.369662,781.10363 787.362925,776.334832 C788.453263,774.481402 785.625328,772.811579 784.54243,774.652603 C781.911235,779.294861 778.56417,783.717123 775.076576,787.74488 Z M791.580442,760.106363 C790.92905,761.900245 793.709039,763.759464 794.857242,760.706805 C796.763474,755.643575 798.100977,750.453807 799.229341,745.171408 C799.621168,743.334519 796.513002,741.959954 795.899635,745.053139 C794.883695,750.180051 793.435422,755.219296 791.580442,760.106363 Z M797.643845,728.488885 C797.611606,730.429156 800.922299,731.135461 800.937179,727.976938 C800.960325,722.583714 800.618922,717.145002 799.688126,711.826212 C799.354163,709.91737 796.05339,709.823913 796.527055,712.854241 C797.335509,718.023334 797.724029,723.25611 797.643845,728.488885 Z M792.457507,696.703515 C793.092366,698.573486 796.416285,698.031765 795.397038,695.152788 C793.585044,690.036627 791.299384,685.116478 788.682242,680.365875 C787.658862,678.509137 784.682959,679.966408 785.97169,682.249079 C788.564033,686.844195 790.724043,691.721337 792.457507,696.703515 Z" id="Fill-19" fill="#000000"></path>
            <polygon id="Stroke-20" stroke="#000000" stroke-width="7.0489" stroke-linecap="round" stroke-linejoin="round" points="190.037072 674.04883 262.372195 674.04883 262.372195 630.905517 190.037072 630.905517"></polygon>
            <path d="M194.734039,674.04883 L198.355549,674.04883 L251.653983,630.905517 L248.0333,630.905517 L194.734039,674.04883 Z M205.74571,674.04883 L259.044143,630.905517 L262.372195,630.905517 L262.372195,631.142055 L209.366392,674.04883 L205.74571,674.04883 Z M216.756553,674.04883 L262.372195,637.124969 L262.372195,640.056051 L220.377236,674.04883 L216.756553,674.04883 Z M227.767396,674.04883 L262.372195,646.038139 L262.372195,648.968394 L231.388079,674.04883 L227.767396,674.04883 Z M238.77824,674.04883 L262.372195,654.950481 L262.372195,657.881563 L242.399749,674.04883 L238.77824,674.04883 Z M249.78991,674.04883 L262.372195,663.863651 L262.372195,666.794733 L253.409766,674.04883 L249.78991,674.04883 Z M240.643139,630.905517 L190.037072,671.869541 L190.037072,668.938459 L237.022456,630.905517 L240.643139,630.905517 Z M229.632296,630.905517 L190.037072,662.955545 L190.037072,660.024462 L226.010786,630.905517 L229.632296,630.905517 Z M218.620626,630.905517 L190.037072,654.043202 L190.037072,651.11212 L214.999943,630.905517 L218.620626,630.905517 Z M207.609782,630.905517 L190.037072,645.130033 L190.037072,642.19895 L203.9891,630.905517 L207.609782,630.905517 Z M196.598939,630.905517 L190.037072,636.216863 L190.037072,633.286608 L192.978256,630.905517 L196.598939,630.905517 Z" id="Fill-21" fill="#000000"></path>
            <path d="M262.372195,630.90469 C264.786811,621.888139 267.053457,612.877377 269.191975,603.877366 L254.920863,588.430464 L264.810783,453.203697 L289.624859,485.901308 C306.548658,330.522524 282.587674,187.121974 226.20422,89.4128938 C169.81994,187.121974 145.859782,330.521697 162.783581,485.901308 L187.597657,453.203697 L197.487577,588.430464 L183.216466,603.877366 C185.354983,612.877377 187.62163,621.888139 190.037072,630.90469 L262.372195,630.90469 Z" id="Stroke-22" stroke="#000000" stroke-width="7.0492" stroke-linecap="round" stroke-linejoin="round"></path>
            <path d="M226.20422,323.251885 C247.561288,323.251885 264.880221,305.92426 264.880221,284.5573 C264.880221,263.189512 247.561288,245.861887 226.20422,245.861887 C204.847152,245.861887 187.52822,263.189512 187.52822,284.5573 C187.52822,305.92426 204.847152,323.251885 226.20422,323.251885 Z" id="Stroke-23" stroke="#000000" stroke-width="7.0492" stroke-linecap="round" stroke-linejoin="round"></path>
            <path d="M228.702326,323.16918 C230.139853,323.077377 231.556714,322.909485 232.947122,322.664676 L262.048153,299.108502 C262.583815,297.790176 263.05004,296.437115 263.439388,295.051798 L228.702326,323.16918 Z M264.723159,288.030103 L221.555197,322.973168 C220.535124,322.850764 219.526623,322.689488 218.532175,322.489341 L264.875261,284.976616 C264.863688,286.004646 264.813263,287.02275 264.723159,288.030103 Z M264.520633,279.28069 C264.401596,278.41311 264.256934,277.5538 264.082513,276.705241 L248.084552,289.654438 C247.761335,291.04968 247.30751,292.394471 246.737129,293.676406 L264.520633,279.28069 Z M226.626633,307.024243 C228.065813,306.997777 229.471101,306.835675 230.83175,306.550341 L213.041633,320.951019 C212.221606,320.654106 211.415633,320.329074 210.622058,319.979229 L226.626633,307.024243 Z M262.730957,271.816521 L248.625174,283.234839 C248.573096,282.32756 248.467286,281.433514 248.310224,280.55849 L261.874558,269.579337 C262.182895,270.313762 262.467259,271.059765 262.730957,271.816521 Z M217.680736,305.352765 L204.123842,316.325301 C204.777714,316.781836 205.445639,317.219348 206.127617,317.635356 L220.225961,306.222827 C219.355509,305.982981 218.505723,305.691031 217.680736,305.352765 Z M259.76084,265.307599 C259.378932,264.642647 258.975532,263.991755 258.556426,263.352442 L245.841051,273.644312 C246.218825,274.323324 246.562707,275.023012 246.870218,275.74255 L259.76084,265.307599 Z M211.440432,301.49042 L198.725884,311.783116 C199.264853,312.326491 199.819528,312.854979 200.38991,313.366926 L213.277226,302.934457 C212.639886,302.485366 212.026519,302.003193 211.440432,301.49042 Z M255.774782,259.621598 C255.283758,259.040178 254.778681,258.472818 254.255418,257.921173 L241.581376,268.179961 C242.136878,268.701832 242.666754,269.250997 243.166044,269.827454 L255.774782,259.621598 Z M206.981536,296.186517 C207.377497,296.83989 207.806523,297.47176 208.265308,298.078818 L195.655743,308.285502 C195.189518,307.685887 194.741479,307.071385 194.309973,306.444478 L206.981536,296.186517 Z M250.824036,254.716336 L237.763952,265.28775 C237.058829,264.862644 236.327252,264.476409 235.574183,264.129873 L248.975669,253.281396 C249.605569,253.742065 250.223069,254.219276 250.824036,254.716336 Z M204.280904,289.46008 C204.461938,290.273075 204.686784,291.069529 204.952135,291.846961 L191.891225,302.420029 C191.53081,301.729438 191.191061,301.027269 190.872805,300.314348 L204.280904,289.46008 Z M244.840817,250.646399 L230.258062,262.450952 C229.217323,262.260729 228.151784,262.144115 227.066406,262.102762 L242.618809,249.514161 C243.372704,249.86814 244.1142,250.245277 244.840817,250.646399 Z M204.070937,280.716457 L188.521014,293.303404 C188.709488,294.118053 188.925241,294.921123 189.16414,295.715096 L203.753507,283.90558 C203.784093,282.822139 203.891556,281.756892 204.070937,280.716457 Z M237.62177,247.577199 C236.728999,247.301789 235.823002,247.056981 234.904605,246.845255 L187.536486,285.187515 C187.552192,286.134493 187.600964,287.072373 187.682801,288.000329 L207.735432,271.768551 C210.169886,268.25605 213.579776,265.470529 217.573273,263.805668 L237.62177,247.577199 Z M228.632888,245.93963 C227.829394,245.890007 227.020114,245.861887 226.20422,245.861887 C225.830579,245.861887 225.458591,245.868503 225.08743,245.879255 L188.621864,275.396014 C188.34494,276.537349 188.11844,277.697707 187.944846,278.87626 L228.632888,245.93963 Z M216.048949,247.212467 L191.822614,266.823591 C192.937751,264.664978 194.248802,262.624634 195.733447,260.726543 L209.296128,249.749045 C211.442912,248.70282 213.702118,247.850127 216.048949,247.212467 Z" id="Fill-24" fill="#000000"></path>
            <path d="M262.372195,630.90469 C264.786811,621.889793 267.06007,612.879858 269.196934,603.882329 L254.920863,588.430464 L256.634488,564.995866 L195.773952,564.995866 L197.487577,588.430464 L183.211506,603.881502 C185.34837,612.879858 187.622456,621.889793 190.037072,630.90469 L262.372195,630.90469 Z" id="Stroke-25" stroke="#000000" stroke-width="7.0492" stroke-linecap="round" stroke-linejoin="round"></path>
            <path d="M151.418936,500.875962 L187.597657,453.203697 L197.487577,588.430464 L165.178357,623.400822 C167.649183,577.409132 162.677771,534.728969 151.418936,500.875962 Z M300.990331,500.876789 L264.810783,453.203697 L254.920863,588.430464 L287.230084,623.400822 C284.759257,577.409132 289.730669,534.728969 300.990331,500.876789 Z" id="Stroke-26" stroke="#000000" stroke-width="7.0489" stroke-linecap="round" stroke-linejoin="round"></path>
            <path d="M226.20422,307.029205 C238.607125,307.029205 248.665679,296.96643 248.665679,284.5573 C248.665679,272.14817 238.607125,262.084567 226.20422,262.084567 C213.801315,262.084567 203.742761,272.14817 203.742761,284.5573 C203.742761,296.96643 213.801315,307.029205 226.20422,307.029205 Z" id="Stroke-27" stroke="#000000" stroke-width="7.0492" stroke-linecap="round" stroke-linejoin="round"></path>
            <path d="M154.708963,698.928293 C173.707627,614.073298 167.464843,530.374526 142.394508,478.408192 C117.325,530.374526 111.081389,614.073298 130.08088,698.928293 L154.708963,698.928293 Z M322.32756,698.928293 C341.326225,614.073298 335.08344,530.374526 310.013932,478.408192 C284.943598,530.374526 278.700813,614.073298 297.699478,698.928293 L322.32756,698.928293 Z" id="Stroke-28" stroke="#000000" stroke-width="7.0492" stroke-linecap="round" stroke-linejoin="round"></path>
            <path d="M154.708963,698.928293 C157.606335,685.984885 159.914314,673.067943 161.660177,660.286639 L123.129665,660.286639 C124.874702,673.067943 127.183507,685.984885 130.08088,698.928293 L154.708963,698.928293 Z M290.747436,660.286639 L329.278775,660.286639 C327.532912,673.067943 325.224933,685.984885 322.32756,698.928293 L297.699478,698.928293 C294.801278,685.984885 292.494127,673.067943 290.747436,660.286639 Z" id="Stroke-29" stroke="#000000" stroke-width="7.0489" stroke-linecap="round" stroke-linejoin="round"></path>
            <path d="M321.201677,698.928293 L322.574726,697.817558 L322.32756,698.928293 L321.201677,698.928293 Z M324.113929,690.589099 C324.352828,689.422125 324.586767,688.255978 324.815746,687.08983 L310.190007,698.928293 L313.811516,698.928293 L324.113929,690.589099 Z M326.14829,680.030091 C326.354123,678.888755 326.555823,677.748247 326.752564,676.609392 L299.179163,698.928293 L302.799846,698.928293 L326.14829,680.030091 Z M327.894153,669.703485 L296.809187,694.8658 C296.629806,694.031301 296.453732,693.19763 296.279311,692.363132 L328.40915,666.356394 C328.241342,667.470437 328.069401,668.586961 327.894153,669.703485 Z M328.516613,660.286639 L295.236918,687.22464 C295.070763,686.380217 294.907088,685.535795 294.745067,684.691372 L324.89593,660.286639 L328.516613,660.286639 Z M317.50577,660.286639 L293.781205,679.490024 C293.62745,678.634849 293.477001,677.780502 293.328206,676.926154 L313.885087,660.286639 L317.50577,660.286639 Z M306.494926,660.286639 L302.874244,660.286639 L292.032035,669.062517 C292.167604,669.927616 292.304826,670.793543 292.445355,671.659469 L306.494926,660.286639 Z M295.484083,660.286639 L291.862574,660.286639 L290.859859,661.097979 C290.980549,661.974658 291.104545,662.851336 291.231021,663.728841 L295.484083,660.286639 Z" id="Fill-30" fill="#000000"></path>
            <path d="M155.043752,697.421399 C155.304143,696.236229 155.560402,695.052714 155.8117,693.868372 L149.560649,698.928293 L153.181332,698.928293 L155.043752,697.421399 Z M157.273199,686.703596 L142.170489,698.928293 L138.549806,698.928293 L157.938645,683.234101 C157.722065,684.389497 157.499699,685.546546 157.273199,686.703596 Z M159.19927,676.231428 L131.159645,698.928293 L130.08088,698.928293 C129.950271,698.346873 129.822142,697.765454 129.694013,697.184034 L159.770479,672.837195 C159.584485,673.968606 159.394357,675.100017 159.19927,676.231428 Z M160.845937,665.985046 C161.011265,664.876793 161.17246,663.770193 161.329521,662.663594 L128.087025,689.571822 C128.257313,690.409628 128.428427,691.246608 128.602848,692.085241 L160.845937,665.985046 Z M156.875586,660.286639 L153.254903,660.286639 L126.595766,681.865325 C126.752001,682.713884 126.911543,683.561615 127.073564,684.410173 L156.875586,660.286639 Z M145.864742,660.286639 L142.24406,660.286639 L125.222718,674.064545 C125.365726,674.923027 125.512041,675.78151 125.660837,676.64082 L145.864742,660.286639 Z M134.853899,660.286639 L124.368799,668.773048 C124.23323,667.903813 124.100967,667.033752 123.970358,666.164517 L131.233216,660.286639 L134.853899,660.286639 Z M123.843056,660.286639 L123.129665,660.286639 L123.200756,660.806029 L123.843056,660.286639 Z" id="Fill-31" fill="#000000"></path>
            <path d="M310.013932,479.970498 C307.976265,479.970498 307.976265,476.846712 310.013932,476.846712 L393.697995,476.846712 C395.734836,476.846712 395.734836,479.970498 393.697995,479.970498 L310.013932,479.970498 Z" id="Fill-32" fill="#000000"></path>
            <path d="M167.344153,66.9335445 C165.306486,66.9335445 165.306486,63.8072774 167.344153,63.8072774 L281.745328,63.8072774 C283.782169,63.8072774 283.782169,66.9335445 281.745328,66.9335445 L167.344153,66.9335445 Z" id="Fill-33" fill="#000000"></path>
            <path d="M133.876811,31.6265753 C131.833357,31.6265753 131.833357,28.4920377 133.876811,28.4920377 L313.38249,28.4920377 C315.425944,28.4920377 315.425944,31.6265753 313.38249,31.6265753 L133.876811,31.6265753 Z" id="Fill-34" fill="#000000"></path>
            <path d="M98.6801372,741.146132 C96.6623092,741.146132 96.6623092,738.024 98.6801372,738.024 L171.994829,738.024 C174.012657,738.024 174.012657,741.146132 171.994829,741.146132 L98.6801372,741.146132 Z" id="Fill-35" fill="#000000"></path>
            <path d="M226.20422,90.9760274 C224.1649,90.9760274 224.1649,87.8497603 226.20422,87.8497603 L362.452661,87.8497603 C364.491981,87.8497603 364.491981,90.9760274 362.452661,90.9760274 L226.20422,90.9760274 Z" id="Fill-36" fill="#000000"></path>
            <path d="M263.97009,198.240072 C261.932423,198.240072 261.932423,195.115459 263.97009,195.115459 L361.898812,195.115459 C363.936479,195.115459 363.936479,198.240072 361.898812,198.240072 L263.97009,198.240072 Z" id="Fill-37" fill="#000000"></path>
            <path d="M217.922115,286.122087 C215.880315,286.122087 215.880315,282.991685 217.922115,282.991685 L348.247681,282.991685 C350.290308,282.991685 350.290308,286.122087 348.247681,286.122087 L217.922115,286.122087 Z" id="Fill-38" fill="#000000"></path>
            <path d="M200.457694,247.423366 C198.420027,247.423366 198.420027,244.29958 200.457694,244.29958 L272.383631,244.29958 C274.420472,244.29958 274.420472,247.423366 272.383631,247.423366 L200.457694,247.423366 Z" id="Fill-39" fill="#000000"></path>
            <path d="M68.6764157,454.770139 C66.6337885,454.770139 66.6337885,451.637255 68.6764157,451.637255 L201.037169,451.637255 C203.080622,451.637255 203.080622,454.770139 201.037169,454.770139 L68.6764157,454.770139 Z" id="Fill-40" fill="#000000"></path>
            <path d="M46.6588621,90.9842979 C44.6145817,90.9842979 44.6145817,87.8497603 46.6588621,87.8497603 L226.20422,87.8497603 C228.247674,87.8497603 228.247674,90.9842979 226.20422,90.9842979 L46.6588621,90.9842979 Z" id="Fill-41" fill="#000000"></path>
            <path d="M319.974943,700.474058 C317.938929,700.474058 317.938929,697.382527 319.974943,697.382527 L391.08664,697.382527 C393.122654,697.382527 393.122654,700.474058 391.08664,700.474058 L319.974943,700.474058 Z" id="Fill-42" fill="#000000"></path>
            <path d="M33.1647925,632.466997 C31.1279518,632.466997 31.1279518,629.344038 33.1647925,629.344038 L190.037072,629.344038 C192.073912,629.344038 192.073912,632.466997 190.037072,632.466997 L33.1647925,632.466997 Z" id="Fill-43" fill="#000000"></path>
            <path d="M182.794053,741.187485 C180.757212,741.187485 180.757212,738.064526 182.794053,738.064526 L274.642838,738.064526 C276.679679,738.064526 276.679679,741.187485 274.642838,741.187485 L182.794053,741.187485 Z" id="Fill-44" fill="#000000"></path>
            <path d="M108.613042,763.143308 C106.567108,763.143308 106.567108,760.035236 108.613042,760.035236 L343.082835,760.035236 C345.128768,760.035236 345.128768,763.143308 343.082835,763.143308 L108.613042,763.143308 Z" id="Fill-45" fill="#000000"></path>
            <path d="M329.278775,661.871276 C327.58499,661.871276 327.58499,658.702002 329.278775,658.702002 L365.082202,658.702002 C365.790633,658.702002 366.365147,659.410788 366.365147,660.286639 C366.365147,661.160836 365.790633,661.871276 365.082202,661.871276 L329.278775,661.871276 Z" id="Fill-46" fill="#000000"></path>
            <path d="M356.900947,710.273003 C356.900947,712.310866 353.778728,712.310866 353.778728,710.273003 L353.778728,635.621384 C353.778728,633.584348 356.900947,633.584348 356.900947,635.621384 L356.900947,710.273003 Z" id="Fill-47" fill="#000000"></path>
            <path d="M191.597768,749.959228 C191.597768,751.997091 188.475549,751.997091 188.475549,749.959228 L188.475549,674.048003 C188.475549,672.01014 191.597768,672.01014 191.597768,674.048003 L191.597768,749.959228 Z" id="Fill-48" fill="#000000"></path>
            <path d="M263.932892,749.959228 C263.932892,751.997091 260.810673,751.997091 260.810673,749.959228 L260.810673,674.048003 C260.810673,672.01014 263.932892,672.01014 263.932892,674.048003 L263.932892,749.959228 Z" id="Fill-49" fill="#000000"></path>
            <path d="M381.435619,709.890077 C381.435619,711.909745 378.314227,711.909745 378.314227,709.890077 L378.314227,469.763815 C378.314227,467.744974 381.435619,467.744974 381.435619,469.763815 L381.435619,709.890077 Z" id="Fill-50" fill="#000000"></path>
            <path d="M87.7238521,67.4463185 C87.7238521,65.4034932 90.8452443,65.4034932 90.8452443,67.4463185 L90.8452443,462.900914 C90.8452443,463.762705 90.1467336,464.462394 89.2845482,464.462394 C88.4223628,464.462394 87.7238521,463.762705 87.7238521,462.900914 L87.7238521,67.4463185 Z" id="Fill-51" fill="#000000"></path>
            <path d="M159.105033,376.690377 C159.105033,378.729067 155.982815,378.729067 155.982815,376.690377 L155.982815,13.538887 C155.982815,11.4960616 159.105033,11.4960616 159.105033,13.538887 L159.105033,376.690377 Z" id="Fill-52" fill="#000000"></path>
            <path d="M117.42585,600.093591 C117.42585,598.021818 120.539803,598.021818 120.539803,600.093591 L120.539803,787.717587 C120.539803,789.78936 117.42585,789.78936 117.42585,787.717587 L117.42585,600.093591 Z" id="Fill-53" fill="#000000"></path>
            <path d="M331.851278,600.093591 C331.851278,598.045803 334.959444,598.045803 334.959444,600.093591 L334.959444,783.098486 C334.959444,785.146274 331.851278,785.146274 331.851278,783.098486 L331.851278,600.093591 Z" id="Fill-54" fill="#000000"></path>
            <path d="M183.730636,196.677765 C183.730636,198.729688 180.618337,198.729688 180.618337,196.677765 L180.618337,53.5848801 C180.618337,51.5337842 183.730636,51.5337842 183.730636,53.5848801 L183.730636,196.677765 Z" id="Fill-55" fill="#000000"></path>
            <path d="M296.425626,376.690377 C296.425626,378.729067 293.303407,378.729067 293.303407,376.690377 L293.303407,13.538887 C293.303407,11.4960616 296.425626,11.4960616 296.425626,13.538887 L296.425626,376.690377 Z" id="Fill-56" fill="#000000"></path>
            <path d="M164.240947,600.093591 C164.240947,598.075577 167.363166,598.075577 167.363166,600.093591 L167.363166,747.215887 C167.363166,749.234728 164.240947,749.234728 164.240947,747.215887 L164.240947,600.093591 Z" id="Fill-57" fill="#000000"></path>
            <path d="M271.790104,196.677765 C271.790104,198.729688 268.676978,198.729688 268.676978,196.677765 L268.676978,53.5848801 C268.676978,51.5337842 271.790104,51.5337842 271.790104,53.5848801 L271.790104,196.677765 Z" id="Fill-58" fill="#000000"></path>
            <path d="M347.874039,213.147735 C347.874039,215.188906 344.748514,215.188906 344.748514,213.147735 L344.748514,77.7845034 C344.748514,75.7416781 347.874039,75.7416781 347.874039,77.7845034 L347.874039,213.147735 Z" id="Fill-59" fill="#000000"></path>
            <path d="M58.5517303,645.766865 C58.5517303,646.655122 57.8540462,647.375486 56.9926874,647.375486 C56.130502,647.375486 55.4319913,646.655122 55.4319913,645.766865 L55.4319913,70.0267295 C55.4319913,67.9342808 58.5517303,67.9342808 58.5517303,70.0267295 L58.5517303,645.766865 Z" id="Fill-60" fill="#000000"></path>
            <path d="M322.045676,302.634236 C322.045676,304.672099 318.923457,304.672099 318.923457,302.634236 L318.923457,187.953991 C318.923457,185.916128 322.045676,185.916128 322.045676,187.953991 L322.045676,302.634236 Z" id="Fill-61" fill="#000000"></path>
            <path d="M266.44257,308.851207 C266.44257,310.890724 263.317871,310.890724 263.317871,308.851207 L263.317871,237.665774 C263.317871,235.626257 266.44257,235.626257 266.44257,237.665774 L266.44257,308.851207 Z" id="Fill-62" fill="#000000"></path>
            <path d="M218.671051,294.302486 C217.230218,295.744043 215.022262,293.534979 216.463096,292.093423 L272.289394,236.239104 C273.730228,234.797548 275.939009,237.006611 274.497349,238.448168 L218.671051,294.302486 Z" id="Fill-63" fill="#000000"></path>
            <path d="M270.525345,196.677765 C259.383066,156.951015 244.326647,120.816164 226.20422,89.4128938 C208.081794,120.816164 193.608156,156.951015 182.465877,196.677765 L270.525345,196.677765 Z" id="Stroke-64" stroke="#000000" stroke-width="7.0492" stroke-linecap="round" stroke-linejoin="round"></path>
            <path d="M269.165522,191.918065 C268.936543,191.126574 268.705084,190.336736 268.471971,189.548553 L259.66495,196.677765 L263.285633,196.677765 L269.165522,191.918065 Z M267.025351,184.737575 L252.274789,196.677765 L248.654106,196.677765 L266.302041,182.392048 C266.545074,183.172788 266.785626,183.954354 267.025351,184.737575 Z M264.795077,177.629866 L241.263946,196.677765 L237.643263,196.677765 L264.042835,175.308324 C264.29496,176.080793 264.546258,176.854089 264.795077,177.629866 Z M262.477179,170.593284 L230.253102,196.677765 L226.631593,196.677765 L261.695177,168.295726 C261.957222,169.059925 262.217614,169.825777 262.477179,170.593284 Z M260.070003,163.628656 L219.241432,196.677765 L215.621576,196.677765 L259.258243,161.355082 C259.530207,162.111837 259.800519,162.86942 260.070003,163.628656 Z M257.572724,156.736808 C257.294147,155.985015 257.013916,155.235704 256.732031,154.487219 L204.609906,196.677765 L208.231416,196.677765 L257.572724,156.736808 Z M254.986995,149.916914 C254.698497,149.173392 254.408347,148.431524 254.116543,147.690483 L193.599063,196.677765 L197.219746,196.677765 L254.986995,149.916914 Z M252.311988,143.169801 C252.013571,142.433723 251.712674,141.700125 251.411777,140.967354 L182.58822,196.677765 L186.208902,196.677765 L252.311988,143.169801 Z M249.546051,136.497123 C249.237714,135.769315 248.927724,135.041507 248.616908,134.313699 L185.826168,185.143659 C185.437647,186.428075 185.05326,187.7158 184.672179,189.008486 L249.546051,136.497123 Z M246.690837,129.897226 C246.371754,129.177688 246.051844,128.458151 245.730281,127.738613 L189.5849,173.187755 C189.15422,174.505253 188.727674,175.827714 188.306088,177.15431 L246.690837,129.897226 Z M243.743039,123.363493 C243.414863,122.652226 243.084207,121.949229 242.752724,121.237962 L193.767697,160.88945 C193.28742,162.24582 192.812102,163.607979 192.340917,164.974274 L243.743039,123.363493 Z M240.703484,116.912466 L196.852718,152.409658 C197.382594,150.99374 197.916603,149.584438 198.455572,148.180926 L239.68341,114.811747 C240.024813,115.506473 240.365388,116.209469 240.703484,116.912466 Z M237.571345,110.535873 L201.940686,139.378582 C202.541653,137.903116 203.14758,136.430959 203.760947,134.975342 L236.520686,108.459966 C236.872008,109.146421 237.222503,109.841147 237.571345,110.535873 Z M234.34497,104.233716 L207.746178,125.761952 C208.438902,124.21536 209.13824,122.668767 209.845017,121.138716 L233.262898,102.18262 C233.624967,102.860805 233.986208,103.54726 234.34497,104.233716 Z M231.023531,98.0142637 C230.654023,97.3278082 230.282861,96.6578938 229.910873,95.9797089 L216.952467,106.466764 C216.12004,108.104332 215.296707,109.750171 214.48164,111.404281 L231.023531,98.0142637 Z" id="Fill-65" fill="#000000"></path>
            <path d="M224.643524,712.323272 C224.643524,714.348729 227.764916,714.369406 227.764916,712.323272 L227.764916,696.706824 C227.764916,694.681366 224.643524,694.659863 224.643524,696.706824 L224.643524,712.323272 Z M227.764916,40.8068836 C227.764916,38.7805993 224.643524,38.7557877 224.643524,40.8068836 L224.643524,56.4216781 C224.643524,58.4479623 227.764916,58.4645034 227.764916,56.4216781 L227.764916,40.8068836 Z M227.764916,72.0364726 C227.764916,70.0101884 224.643524,69.9936473 224.643524,72.0364726 L224.643524,87.6512671 C224.643524,89.6775514 227.764916,89.702363 227.764916,87.6512671 L227.764916,72.0364726 Z M227.764916,103.274332 C227.764916,101.248048 224.643524,101.223236 224.643524,103.274332 L224.643524,118.889127 C224.643524,120.915411 227.764916,120.931952 227.764916,118.889127 L227.764916,103.274332 Z M227.764916,134.503921 C227.764916,132.477637 224.643524,132.461096 224.643524,134.503921 L224.643524,150.121197 C224.643524,152.146654 227.764916,152.168158 227.764916,150.121197 L227.764916,134.503921 Z M227.764916,165.738473 C227.764916,163.713015 224.643524,163.691512 224.643524,165.738473 L224.643524,181.354921 C224.643524,183.380378 227.764916,183.401882 227.764916,181.354921 L227.764916,165.738473 Z M227.764916,196.97137 C227.764916,194.94674 224.643524,194.925236 224.643524,196.97137 L224.643524,212.588646 C224.643524,214.613276 227.764916,214.634779 227.764916,212.588646 L227.764916,196.97137 Z M227.764916,228.205094 C227.764916,226.179637 224.643524,226.158134 224.643524,228.205094 L224.643524,243.821543 C224.643524,245.847 227.764916,245.868503 227.764916,243.821543 L227.764916,228.205094 Z M227.764916,259.438818 C227.764916,257.413361 224.643524,257.391858 224.643524,259.438818 L224.643524,275.055267 C224.643524,277.080724 227.764916,277.101401 227.764916,275.055267 L227.764916,259.438818 Z M227.764916,290.671716 C227.764916,288.646259 224.643524,288.625582 224.643524,290.671716 L224.643524,306.288991 C224.643524,308.313622 227.764916,308.335125 227.764916,306.288991 L227.764916,290.671716 Z M227.764916,321.90544 C227.764916,319.879983 224.643524,319.858479 224.643524,321.90544 L224.643524,337.521889 C224.643524,339.547346 227.764916,339.568849 227.764916,337.521889 L227.764916,321.90544 Z M227.764916,353.139164 C227.764916,351.113707 224.643524,351.092204 224.643524,353.139164 L224.643524,368.755613 C224.643524,370.78107 227.764916,370.802574 227.764916,368.755613 L227.764916,353.139164 Z M227.764916,384.372062 C227.764916,382.347432 224.643524,382.325928 224.643524,384.372062 L224.643524,399.989337 C224.643524,402.013967 227.764916,402.035471 227.764916,399.989337 L227.764916,384.372062 Z M227.764916,415.605786 C227.764916,413.580329 224.643524,413.558825 224.643524,415.605786 L224.643524,431.222235 C224.643524,433.247692 227.764916,433.269195 227.764916,431.222235 L227.764916,415.605786 Z M227.764916,446.838683 C227.764916,444.813226 224.643524,444.79255 224.643524,446.838683 L224.643524,462.455959 C224.643524,464.481416 227.764916,464.50292 227.764916,462.455959 L227.764916,446.838683 Z M227.764916,478.072408 C227.764916,476.04695 224.643524,476.026274 224.643524,478.072408 L224.643524,493.688856 C224.643524,495.714313 227.764916,495.735817 227.764916,493.688856 L227.764916,478.072408 Z M227.764916,509.306132 C227.764916,507.280675 224.643524,507.259171 224.643524,509.306132 L224.643524,524.92258 C224.643524,526.948038 227.764916,526.968714 227.764916,524.92258 L227.764916,509.306132 Z M227.764916,540.539856 C227.764916,538.513572 224.643524,538.492896 224.643524,540.539856 L224.643524,556.155478 C224.643524,558.181762 227.764916,558.202438 227.764916,556.155478 L227.764916,540.539856 Z M227.764916,571.772753 C227.764916,569.747296 224.643524,569.72662 224.643524,571.772753 L224.643524,587.389202 C224.643524,589.414659 227.764916,589.436163 227.764916,587.389202 L227.764916,571.772753 Z M227.764916,603.006478 C227.764916,600.981021 224.643524,600.959517 224.643524,603.006478 L224.643524,618.622926 C224.643524,620.648384 227.764916,620.66906 227.764916,618.622926 L227.764916,603.006478 Z M227.764916,634.239375 C227.764916,632.213918 224.643524,632.193241 224.643524,634.239375 L224.643524,649.855824 C224.643524,651.882108 227.764916,651.902784 227.764916,649.855824 L227.764916,634.239375 Z M227.764916,665.473099 C227.764916,663.447642 224.643524,663.426966 224.643524,665.473099 L224.643524,681.089548 C224.643524,683.115005 227.764916,683.136509 227.764916,681.089548 L227.764916,665.473099 Z" id="Fill-66" fill="#000000"></path>
            <path d="M138.01745,375.129724 C135.993009,375.129724 135.972343,378.251856 138.01745,378.251856 L153.625238,378.251856 C155.649679,378.251856 155.670345,375.129724 153.625238,375.129724 L138.01745,375.129724 Z M339.11083,378.251856 C341.135271,378.251856 341.155937,375.129724 339.11083,375.129724 L325.31173,375.129724 C323.288116,375.129724 323.26745,378.251856 325.31173,378.251856 L339.11083,378.251856 Z M309.703942,378.251856 C311.728384,378.251856 311.74905,375.129724 309.703942,375.129724 L294.096155,375.129724 C292.071714,375.129724 292.051048,378.251856 294.096155,378.251856 L309.703942,378.251856 Z M278.488367,378.251856 C280.512808,378.251856 280.533474,375.129724 278.488367,375.129724 L262.880579,375.129724 C260.856138,375.129724 260.835472,378.251856 262.880579,378.251856 L278.488367,378.251856 Z M247.272791,378.251856 C249.296406,378.251856 249.317898,375.129724 247.272791,375.129724 L231.665003,375.129724 C229.640562,375.129724 229.619896,378.251856 231.665003,378.251856 L247.272791,378.251856 Z M216.056389,378.251856 C218.08083,378.251856 218.102323,375.129724 216.056389,375.129724 L200.449428,375.129724 C198.42416,375.129724 198.403494,378.251856 200.449428,378.251856 L216.056389,378.251856 Z M184.840813,378.251856 C186.865254,378.251856 186.88592,375.129724 184.840813,375.129724 L169.233025,375.129724 C167.209411,375.129724 167.187918,378.251856 169.233025,378.251856 L184.840813,378.251856 Z" id="Fill-67" fill="#000000"></path>
            <polygon id="Stroke-68" stroke="#000000" stroke-width="7.4341" stroke-linecap="round" stroke-linejoin="round" points="962.283233 713.188372 977.592604 728.34994 986.627778 719.216774 971.310141 704.056033"></polygon>
            <path d="M986.627778,719.216774 C989.025033,717.814089 991.389224,716.38163 993.728614,714.92436 L993.943541,708.663555 L1024.34736,682.110134 L1022.76021,694.233103 C1058.86784,664.888372 1083.8241,629.511103 1092.34675,597.009503 C1059.95074,605.875531 1024.85987,631.209046 995.902677,667.648253 L1008.00469,665.927152 L981.783668,696.625772 L975.526004,696.90449 C974.095917,699.258288 972.690629,701.641033 971.310141,704.056033 C976.418775,709.109337 981.519143,714.162642 986.627778,719.216774 Z" id="Stroke-69" stroke="#000000" stroke-width="7.4341" stroke-linecap="round" stroke-linejoin="round"></path>
            <path d="M992.795323,671.844984 L998.790101,670.992253 L980.005686,692.984367 L977.166122,693.11091 C983.705309,686.192064 989.039867,678.943304 992.795323,671.844984 Z M1018.59024,697.390862 C1011.53674,701.221135 1004.35075,706.630837 997.505123,713.242785 L997.602851,710.402615 L1019.37972,691.383609 L1018.59024,697.390862 Z" id="Stroke-70" stroke="#000000" stroke-width="7.4339"></path>
            <path d="M1046.78236,643.075628 C1049.41108,645.675889 1053.64347,645.652731 1056.24739,643.026005 C1058.84304,640.400106 1058.81824,636.16145 1056.19779,633.56119 C1053.56908,630.962584 1049.32841,630.984087 1046.73276,633.61164 C1044.13712,636.237539 1044.16191,640.476195 1046.78236,643.075628 Z" id="Stroke-71" stroke="#000000" stroke-width="7.4341" stroke-linecap="round" stroke-linejoin="round"></path>
            <path d="M949.594311,711.051262 C971.384538,697.069901 987.58668,678.043505 993.158233,661.78857 C976.972624,667.534947 958.125234,683.943714 944.378213,705.888786 C946.114157,707.60906 947.858367,709.330161 949.594311,711.051262 Z M985.073695,746.182068 C1006.86392,732.201534 1023.06606,713.175139 1028.64588,696.920204 C1012.45201,702.66658 993.604618,719.075348 979.865863,741.02042 C981.601807,742.741521 983.337751,744.461795 985.073695,746.182068 Z" id="Stroke-72" stroke="#000000" stroke-width="7.4341" stroke-linecap="round" stroke-linejoin="round"></path>
            <path d="M81.5025602,99.3375514 C80.1088454,100.727003 77.9736345,98.5932021 79.3665228,97.20375 L97.0665361,79.4882363 C98.460251,78.0987842 100.595462,80.2325856 99.2025736,81.6303082 L81.5025602,99.3375514 Z" id="Fill-73" fill="#000000"></path>
            <path d="M49.2098728,99.3375514 C47.816158,100.727003 45.6809471,98.5932021 47.0738353,97.20375 L64.7746754,79.4882363 C66.1675636,78.0987842 68.3036011,80.2325856 66.9098862,81.6303082 L49.2098728,99.3375514 Z" id="Fill-74" fill="#000000"></path>
            <path d="M149.761523,39.9798288 C148.368635,41.3775514 146.232597,39.24375 147.626312,37.8460274 L165.326325,20.1387842 C166.72004,18.7410616 168.855251,20.8831336 167.461536,22.2725856 L149.761523,39.9798288 Z" id="Fill-75" fill="#000000"></path>
            <path d="M174.392912,75.2950685 C172.999197,76.6927911 170.863986,74.5507192 172.256874,73.1612671 L189.956888,55.4457534 C191.350602,54.0563014 193.485813,56.1901027 192.092925,57.5878253 L174.392912,75.2950685 Z" id="Fill-76" fill="#000000"></path>
            <path d="M287.082115,39.9798288 C285.689227,41.3775514 283.553189,39.24375 284.946904,37.8460274 L302.646091,20.1387842 C304.039806,18.7410616 306.175017,20.8831336 304.782129,22.2725856 L287.082115,39.9798288 Z" id="Fill-77" fill="#000000"></path>
            <path d="M262.451553,75.2950685 C261.057838,76.6927911 258.922627,74.5507192 260.315515,73.1612671 L278.016355,55.4457534 C279.409244,54.0563014 281.545281,56.1901027 280.151566,57.5878253 L262.451553,75.2950685 Z" id="Fill-78" fill="#000000"></path>
            <path d="M262.451553,75.2950685 C261.057838,76.6927911 258.922627,74.5507192 260.315515,73.1612671 L278.016355,55.4457534 C279.409244,54.0563014 281.545281,56.1901027 280.151566,57.5878253 L262.451553,75.2950685 Z" id="Fill-79" fill="#000000"></path>
            <path d="M338.385867,99.3375514 C336.992152,100.727003 334.856941,98.5932021 336.249829,97.20375 L353.949843,79.4882363 C355.343558,78.0987842 357.478768,80.2325856 356.08588,81.6303082 L338.385867,99.3375514 Z" id="Fill-80" fill="#000000"></path>
            <path d="M338.528876,206.599942 C337.135987,207.994356 334.99995,205.858074 336.392838,204.463659 L354.092851,186.754762 C355.486566,185.361175 357.621777,187.497457 356.228889,188.891045 L338.528876,206.599942 Z" id="Fill-81" fill="#000000"></path>
            <path d="M312.75507,206.599942 C311.362182,207.994356 309.226145,205.858074 310.619859,204.463659 L328.319873,186.754762 C329.713588,185.361175 331.848799,187.497457 330.45591,188.891045 L312.75507,206.599942 Z" id="Fill-82" fill="#000000"></path>
            <path d="M312.75507,294.479476 C311.362182,295.87389 309.226145,293.737608 310.619859,292.343193 L328.319873,274.634296 C329.713588,273.240709 331.848799,275.376991 330.45591,276.771406 L312.75507,294.479476 Z" id="Fill-83" fill="#000000"></path>
            <path d="M81.5025602,463.1267 C80.1088454,464.520288 77.9736345,462.384005 79.3665228,460.989591 L97.0665361,443.280693 C98.460251,441.887106 100.595462,444.023389 99.2025736,445.417803 L81.5025602,463.1267 Z" id="Fill-84" fill="#000000"></path>
            <path d="M49.2098728,640.827693 C47.816158,642.222108 45.6809471,640.085825 47.0738353,638.691411 L64.7746754,620.982514 C66.1675636,619.588926 68.3036011,621.725209 66.9098862,623.118796 L49.2098728,640.827693 Z" id="Fill-85" fill="#000000"></path>
            <path d="M372.092935,488.332022 C370.69922,489.72561 368.564009,487.5885 369.956898,486.194913 L387.656911,468.486015 C389.050626,467.091601 391.185837,469.228711 389.792948,470.622298 L372.092935,488.332022 Z" id="Fill-86" fill="#000000"></path>
            <path d="M347.557436,670.208815 C346.164548,671.602402 344.028511,669.46612 345.422226,668.072533 L363.122239,650.363635 C364.515954,648.969221 366.651165,651.10633 365.25745,652.499918 L347.557436,670.208815 Z" id="Fill-87" fill="#000000"></path>
            <path d="M325.622547,771.512276 C324.229659,772.90669 322.093621,770.76958 323.487336,769.375166 L341.187349,751.666269 C342.581064,750.271854 344.716275,752.408964 343.32256,753.803378 L325.622547,771.512276 Z" id="Fill-88" fill="#000000"></path>
            <path d="M254.589381,749.840959 C253.196493,751.234546 251.060455,749.097437 252.45417,747.703849 L270.154183,729.994952 C271.547072,728.600538 273.683109,730.737647 272.289394,732.132062 L254.589381,749.840959 Z" id="Fill-89" fill="#000000"></path>
            <path d="M182.254257,749.548182 C180.861369,750.942596 178.725331,748.806313 180.119046,747.411072 L197.81906,729.703002 C199.211948,728.308587 201.347985,730.445697 199.95427,731.839284 L182.254257,749.548182 Z" id="Fill-90" fill="#000000"></path>
            <path d="M111.200425,749.508483 C109.807537,750.90207 107.671499,748.765788 109.065214,747.371373 L126.765228,729.661649 C128.158942,728.268062 130.294153,730.405171 128.900438,731.798759 L111.200425,749.508483 Z" id="Fill-91" fill="#000000"></path>
            <path d="M158.019655,749.508483 C156.626767,750.90207 154.49073,748.765788 155.884444,747.371373 L173.584458,729.661649 C174.978173,728.268062 177.113384,730.405171 175.719669,731.798759 L158.019655,749.508483 Z" id="Fill-92" fill="#000000"></path>
            <path d="M111.200425,771.512276 C109.807537,772.90669 107.671499,770.76958 109.065214,769.375166 L126.765228,751.666269 C128.158942,750.271854 130.294153,752.408964 128.900438,753.803378 L111.200425,771.512276 Z" id="Fill-93" fill="#000000"></path>
            <path d="M347.557436,708.851296 C346.164548,710.245711 344.028511,708.108601 345.422226,706.714187 L363.122239,689.006116 C364.515954,687.611702 366.651165,689.748812 365.25745,691.142399 L347.557436,708.851296 Z" id="Fill-94" fill="#000000"></path>
            <path d="M372.092935,708.851296 C370.69922,710.245711 368.564009,708.108601 369.956898,706.714187 L387.656911,689.006116 C389.050626,687.611702 391.185837,689.748812 389.792948,691.142399 L372.092935,708.851296 Z" id="Fill-95" fill="#000000"></path>
            <path d="M446.948484,222.354509 C452.334869,222.23045 501.070251,221.606024 485.727815,226.963685 C479.289116,229.212447 421.684716,226.815642 419.357724,225.880243 C411.747677,222.817659 436.155047,222.602625 446.948484,222.354509 Z M659.890094,215.405594 C659.375924,215.379128 657.768936,215.316272 655.798226,215.304693 C657.359749,209.704705 664.587888,188.354286 666.685074,181.795741 C675.155653,180.125918 679.843527,181.098534 681.007436,180.351704 C685.343989,177.568664 656.785234,175.011411 657.857386,180.015092 C658.171509,181.478979 660.491888,183.54 658.683199,188.159928 C652.497453,203.969908 651.550124,211.922039 652.258554,215.346873 C647.497108,215.504841 642.953069,216.144981 646.52002,218.196077 C649.074337,219.665753 669.427038,218.373067 670.156961,217.78255 C672.540991,215.852204 663.780261,215.611531 659.890094,215.405594 Z M628.338902,201.556562 C630.202149,197.22693 647.54588,158.352046 647.129254,173.661658 C646.955659,180.087873 623.391463,224.171548 621.619973,225.452656 C615.824401,229.642515 624.60497,210.231539 628.338902,201.556562 Z M516.151469,220.243865 C511.328852,220.35469 500.365954,220.19755 504.316466,223.943281 C505.524187,225.087925 530.451513,224.740562 532.362704,223.490882 C538.859267,219.243955 518.557818,220.188452 516.151469,220.243865 Z M515.347975,228.503661 C510.442694,228.61614 499.297935,228.693884 503.512972,232.203077 C506.221044,234.458455 528.016232,233.790195 531.504652,231.739926 C538.159103,227.827957 517.831201,228.446594 515.347975,228.503661 Z M556.193079,228.48133 C553.704893,241.877137 565.784582,239.538226 573.845147,235.469116 C581.860248,231.423164 585.214752,241.098051 566.245847,243.054863 C542.555174,245.49881 547.597677,219.695527 562.785532,211.793846 C575.004096,205.437103 585.324695,212.688719 584.97668,218.478103 C584.582373,225.040783 571.779374,230.608515 556.193079,228.48133 Z M558.380368,224.178164 C565.283638,224.868755 575.906787,222.273457 577.960161,219.278692 C579.556402,216.949705 574.245241,213.784567 569.072955,215.564389 C565.186094,216.867 561.61005,219.755902 558.380368,224.178164 Z M607.994468,204.925156 C603.921613,213.065856 600.94075,219.391171 602.101352,204.704332 C602.975937,193.639993 608.630154,179.637128 602.782503,176.614243 C594.168916,172.160553 595.867661,210.31838 597.476302,216.861211 C599.079983,223.382538 603.946412,220.102438 606.053517,217.560899 C608.154009,215.026803 617.250355,196.422205 624.873628,186.834159 C625.910234,185.529067 627.324615,181.614616 625.873035,181.177932 C618.485355,178.957289 613.363494,194.192466 607.994468,204.925156 Z M461.87512,232.320519 C451.127975,226.926467 449.019217,268.767997 446.348343,258.089065 C443.339374,246.062861 449.63589,233.435389 445.2051,231.276776 C435.907882,226.747824 423.3909,272.528615 428.942614,275.903825 C437.387567,281.039836 432.77409,261.666077 437.651265,247.420885 C443.925462,229.095005 436.796519,265.946913 448.09834,265.804659 C452.396867,265.750901 452.323297,258.268536 455.465355,248.501846 C459.515064,235.914072 460.024274,240.262726 459.666339,250.69106 C458.370994,288.412202 466.915144,275.999764 467.016821,272.54681 C467.375582,260.360985 467.035007,234.9092 461.87512,232.320519 Z M473.0174,172.502954 C463.401098,166.118918 451.413166,209.229149 450.597272,198.249997 C449.678876,185.886354 457.97338,173.747671 453.998896,171.182147 C445.657272,165.797193 429.77008,211.390243 433.850375,214.704252 C441.193417,220.669798 436.700629,200.635223 443.878343,186.74401 C453.112738,168.873837 438.020773,205.171618 451.010592,206.166565 C455.226456,206.489116 458.210626,195.107188 462.934873,185.56463 C469.023076,173.266325 467.857513,183.987437 466.492731,192.147159 C460.983176,225.085443 471.088849,216.715649 471.511262,213.132021 C472.792554,202.243017 477.634183,175.568019 473.0174,172.502954 Z M484.821817,204.321406 C480.872959,207.011815 478.898116,203.597733 480.661339,202.703687 C483.783558,201.11905 493.103922,195.490942 492.006971,202.367902 C490.261108,213.307356 492.190485,221.217308 487.017373,219.07689 C485.021864,218.25149 486.152707,213.178336 486.878497,208.717202 C487.476158,205.037635 489.404709,201.200101 484.821817,204.321406 Z M481.594615,278.307247 C493.959495,275.533305 491.587038,280.718938 487.045479,281.094421 C481.693812,281.536896 476.058608,283.611976 473.308377,280.20451 C469.452928,275.426615 490.895967,266.387733 482.246007,264.373027 C479.354421,263.698978 476.018929,270.321205 473.73823,265.655789 C471.76752,261.624724 485.670776,258.479435 488.483005,264.234909 C490.333025,268.021993 482.808949,273.009134 479.171734,276.582837 C477.570532,278.155068 477.41595,279.2443 481.594615,278.307247 Z" id="Fill-96" fill="#000000"></path>
            <path d="M570.920495,88.2550171 C560.623869,114.919264 579.143909,114.075668 588.286546,102.025479 C595.280746,92.812089 590.726787,90.4797945 587.555797,94.8631849 C570.215371,118.806421 571.399946,95.2105479 579.11415,82.3084932 C588.36177,71.2673116 590.770599,67.2891781 593.4051,60.7719863 C598.891509,47.2082877 589.487654,40.1700514 570.920495,88.2550171 Z M715.229501,64.8080137 C721.116831,67.2230137 718.836131,94.4661986 717.1192,107.541935 C716.633963,111.24714 705.119695,125.13339 710.650743,84.6325171 C712.1792,73.4424658 712.031232,68.8192295 705.866151,82.5814212 C701.082386,93.2586986 700.379742,101.264589 695.242175,101.620223 C681.72992,102.554795 694.136131,62.5832363 684.707477,82.6475856 C677.379314,98.245839 680.842935,118.682363 671.300204,113.761387 C665.027661,110.527603 684.80998,60.6231164 695.433956,64.8328253 C700.496299,66.8425685 691.643812,80.8032534 693.96667,93.4820034 C696.02831,104.729949 702.965472,59.77125 715.229501,64.8080137 Z M725.369066,0.702996575 C730.004036,3.71347603 722.831282,32.5032534 720.6349,44.2226199 C719.913243,48.0766952 708.600676,57.612637 716.964618,22.082363 C719.035351,13.2742295 721.094511,1.75335616 713.718404,15.2508904 C707.994749,25.7296747 703.964053,38.0693322 699.540703,37.9618151 C685.909411,37.6558048 704.645204,-2.02628425 693.516978,17.6162671 C684.867845,32.8836986 688.058675,54.0397603 680.771017,48.0849658 C676.721309,44.7850171 697.015318,-4.87962329 705.40158,0.396986301 C709.397557,2.90296233 699.704378,16.3591438 699.717604,29.5258562 C699.727523,41.2121404 715.714739,-5.56607877 725.369066,0.702996575 Z M734.233952,37.6971575 C739.018544,34.1160103 737.055274,38.3009075 736.494813,42.2459589 C735.815315,47.0180651 734.71919,52.4683562 736.846135,53.2292466 C742.358996,55.2059075 740.161787,46.9188185 741.792748,35.2077226 C742.817781,27.8469349 733.071697,34.3558562 729.801509,36.225 C727.954796,37.2753596 730.110673,40.7820719 734.233952,37.6971575 Z M732.278122,116.416233 C727.877918,117.656815 728.0201,116.490668 729.682473,114.729041 C733.458564,110.726096 741.316603,104.986336 739.285549,101.074366 C736.198876,95.136113 721.558256,99.2796575 723.720746,103.439743 C726.223812,108.261473 729.621302,101.041284 732.692269,101.58714 C741.880371,103.224709 719.381714,114.067397 723.552938,118.913938 C726.528015,122.371027 732.44593,119.84024 738.096841,119.054538 C742.893005,118.392894 745.300181,112.75238 732.278122,116.416233 Z M690.55678,55.7765753 C680.605689,56.5540068 658.096285,57.9434589 665.201255,60.8298801 C667.373665,61.7148288 720.580341,61.5080651 726.457751,58.820137 C740.462684,52.4021918 695.52158,55.3878596 690.55678,55.7765753 Z M548.742574,82.7385616 C551.201001,82.5400685 553.332078,84.1445548 553.500713,86.3031678 C553.669347,88.4617808 551.812714,90.3722774 549.353461,90.5707705 C546.895033,90.7609932 544.763956,89.1647774 544.595321,86.9978938 C544.426687,84.8392808 546.28332,82.9287842 548.742574,82.7385616 Z M533.352192,67.4297774 C538.34923,66.7681336 549.432818,65.5606336 547.94156,63.4102911 C547.485254,62.7569178 523.148976,63.2614212 518.848795,65.3538699 C511.480954,68.9267466 520.921181,68.6041952 527.731867,68.0169863 C525.299893,72.0033904 521.847018,81.6964726 519.016603,101.347295 C518.222202,106.872021 517.565023,110.577226 512.024056,109.105068 C507.28493,107.847945 503.125278,116.441045 511.068461,114.836558 C515.837346,113.868904 527.583072,114.141832 538.037587,113.364401 C545.103705,112.843356 540.893628,111.966678 538.55837,111.867432 C530.174588,111.528339 526.371218,111.503527 520.531007,110.33738 C527.970766,107.186301 529.247098,73.913887 530.662306,67.8598459 C530.672226,67.8184932 530.679665,67.7771404 530.688758,67.7357877 C531.96509,67.6034589 532.934739,67.4794007 533.352192,67.4297774 Z M485.115274,98.4608733 C480.448066,98.8247774 469.791024,100.048818 474.026727,96.0127911 C475.321245,94.7804795 499.476489,92.6797603 501.196727,93.7053082 C507.046857,97.20375 487.445572,98.2789212 485.115274,98.4608733 Z M485.221911,90.4880651 C480.473691,90.8602397 469.666201,91.8775171 474.133363,88.0482534 C477.002631,85.5919007 498.083601,84.1032021 501.248805,85.7573116 C507.28741,88.916661 487.626606,90.306113 485.221911,90.4880651 Z M452.647339,100.429264 C456.983892,86.5264726 460.76081,67.2147432 467.955884,68.6372774 C469.370264,68.918476 468.306379,73.8973459 467.413608,75.6589726 C460.84678,88.5610274 453.530191,112.628322 451.71241,116.060599 C449.889669,119.492877 445.492771,124.289795 443.493956,116.67262 C441.489354,109.030634 429.077356,64.1380993 437.601667,68.058339 C443.389799,70.7214555 442.764859,87.4858562 444.757062,101.487894 C447.303939,119.39363 449.357313,110.982483 452.647339,100.429264 Z M603.237982,97.3029966 C620.16922,75.3281507 632.885422,73.2935959 627.769347,81.9280479 C614.476978,104.341233 626.525254,102.141267 624.638862,105.763767 C621.322383,112.132089 611.406011,102.290137 619.731928,88.5279452 C605.995653,94.6481507 604.777185,109.146421 597.315107,108.600565 C591.67825,108.187038 606.117169,68.8109589 610.833149,78.8183219 C612.496349,82.3498459 604.110914,95.5165582 603.237982,97.3029966 Z M672.613735,23.8688014 C654.546693,38.6234589 635.312436,79.5874829 645.800017,112.843356 C646.505967,115.076404 648.848665,115.713236 649.477738,113.281695 C652.809923,100.387911 641.08321,82.7881849 655.184859,55.1314726 C661.853363,42.0474658 678.969769,22.4628082 672.613735,23.8688014 Z M756.309371,18.972637 C761.154307,17.9057363 786.580097,65.7756678 752.301821,107.120137 C746.836904,113.711764 746.602139,110.577226 751.069301,102.827723 C771.325284,67.7027055 762.468665,47.0594178 754.304769,23.8605308 C753.572366,21.7763527 754.06835,19.4688699 756.309371,18.972637 Z" id="Fill-97" fill="#000000"></path>
            <path d="M296.389254,377.064205 C296.389254,374.891533 297.94995,374.891533 297.94995,377.064205 L297.94995,798.749671 C297.94995,799.668529 297.600281,800.413705 297.169602,800.413705 C296.738096,800.413705 296.389254,799.668529 296.389254,798.749671 L296.389254,377.064205 Z" id="Fill-98" fill="#000000"></path>
            <path d="M333.300378,182.201825 C333.300378,180.029152 334.861074,180.029152 334.861074,182.201825 L334.861074,603.886464 C334.861074,604.806976 334.511406,605.552152 334.080726,605.552152 C333.650047,605.552152 333.300378,604.806976 333.300378,603.886464 L333.300378,182.201825 Z" id="Fill-99" fill="#000000"></path>
            <path d="M118.056576,208.445101 C118.056576,206.272428 119.617272,206.272428 119.617272,208.445101 L119.617272,630.130567 C119.617272,631.049425 119.267604,631.794601 118.836924,631.794601 C118.405418,631.794601 118.056576,631.049425 118.056576,630.130567 L118.056576,208.445101 Z" id="Fill-100" fill="#000000"></path>
            <path d="M110.890435,632.466997 C109.071827,632.466997 109.071827,630.90469 110.890435,630.90469 L463.744153,630.90469 C464.513755,630.90469 465.137041,631.254534 465.137041,631.686257 C465.137041,632.117152 464.513755,632.466997 463.744153,632.466997 L110.890435,632.466997 Z" id="Fill-101" fill="#000000"></path>
            <path d="M1.73594378,479.189759 C-0.578647925,479.189759 -0.578647925,477.628279 1.73594378,477.628279 L450.874197,477.628279 C451.853765,477.628279 452.647339,477.977296 452.647339,478.408192 C452.647339,478.839914 451.853765,479.189759 450.874197,479.189759 L1.73594378,479.189759 Z" id="Fill-102" fill="#000000"></path>
            <path d="M3.45866131,324.537128 C1.16142905,324.537128 1.16142905,322.975649 3.45866131,322.975649 L449.151479,322.975649 C450.123608,322.975649 450.911396,323.325493 450.911396,323.756389 C450.911396,324.188111 450.123608,324.537128 449.151479,324.537128 L3.45866131,324.537128 Z" id="Fill-103" fill="#000000"></path>
            <path d="M4.75648594,285.296687 C2.73700469,285.296687 2.73700469,283.735207 4.75648594,283.735207 L396.714404,283.735207 C397.56915,283.735207 398.262701,284.084224 398.262701,284.51512 C398.262701,284.946842 397.56915,285.296687 396.714404,285.296687 L4.75648594,285.296687 Z" id="Fill-104" fill="#000000"></path>
            <path d="M4.75648594,196.677765 C2.73700469,196.677765 2.73700469,195.116286 4.75648594,195.116286 L396.714404,195.116286 C397.56915,195.116286 398.262701,195.465303 398.262701,195.897026 C398.262701,196.327921 397.56915,196.677765 396.714404,196.677765 L4.75648594,196.677765 Z" id="Fill-105" fill="#000000"></path>
            <path d="M186.122105,287.440413 C186.122105,286.579449 187.682801,286.579449 187.682801,287.440413 L187.682801,454.48894 C187.682801,454.852844 187.333133,455.148103 186.902453,455.148103 C186.470947,455.148103 186.122105,454.852844 186.122105,454.48894 L186.122105,287.440413 Z" id="Fill-106" fill="#000000"></path>
            <path d="M264.321412,287.440413 C264.321412,286.579449 265.882108,286.579449 265.882108,287.440413 L265.882108,454.48894 C265.882108,454.852844 265.53244,455.148103 265.10176,455.148103 C264.670254,455.148103 264.321412,454.852844 264.321412,454.48894 L264.321412,287.440413 Z" id="Fill-107" fill="#000000"></path>
            <path d="M179.675141,454.096089 C178.273986,454.096089 178.273986,452.53461 179.675141,452.53461 L451.573534,452.53461 C452.167062,452.53461 452.647339,452.884454 452.647339,453.315349 C452.647339,453.747072 452.167062,454.096089 451.573534,454.096089 L179.675141,454.096089 Z" id="Fill-108" fill="#000000"></path>
            <path d="M451.91411,573.204385 C447.898293,573.204385 447.898293,571.642079 451.91411,571.642079 L1231.23052,571.642079 C1232.92513,571.642079 1234.30562,571.991923 1234.30562,572.422818 C1234.30562,572.854541 1232.92513,573.204385 1231.23052,573.204385 L451.91411,573.204385 Z" id="Fill-109" fill="#000000"></path>
            <path d="M840.825033,182.53761 C840.825033,178.519777 842.387383,178.519777 842.387383,182.53761 L842.387383,962.24269 C842.387383,963.943115 842.031928,965.321815 841.602075,965.321815 C841.172222,965.321815 840.825033,963.943115 840.825033,962.24269 L840.825033,182.53761 Z" id="Fill-110" fill="#000000"></path>
        </g>
    </g>
</svg>