<svg id="illustration" xmlns="http://www.w3.org/2000/svg" xmlns:xlink="http://www.w3.org/1999/xlink" viewBox="0 0 970.15 646.58"><defs><linearGradient id="linear-gradient" x1="52.03" y1="839.34" x2="1082.37" y2="91.12" gradientUnits="userSpaceOnUse"><stop offset="0" stop-color="#a737d5"/><stop offset="1" stop-color="#ef497a"/></linearGradient><linearGradient id="linear-gradient-2" x1="959.14" y1="267.05" x2="83.94" y2="683.37" gradientUnits="userSpaceOnUse"><stop offset="0" stop-color="#ed539f"/><stop offset="1" stop-color="#a061c2"/></linearGradient><linearGradient id="linear-gradient-3" x1="-32.5" y1="-123.73" x2="194.35" y2="276.5" gradientTransform="translate(942.79 335.74) rotate(18.88)" gradientUnits="userSpaceOnUse"><stop offset="0" stop-color="#2b3582"/><stop offset="1" stop-color="#150e42"/></linearGradient><linearGradient id="linear-gradient-4" x1="-168.6" y1="-380.73" x2="-41.5" y2="-156.5" gradientTransform="matrix(0.97, 0.25, -0.25, 0.97, 919.53, 547.01)" xlink:href="#linear-gradient-3"/><linearGradient id="linear-gradient-5" x1="-1282.69" y1="3855.76" x2="-947.17" y2="3855.76" gradientTransform="matrix(0.69, -0.72, 0.72, 0.69, -1131.29, -2968.15)" gradientUnits="userSpaceOnUse"><stop offset="0" stop-color="#233894"/><stop offset="1" stop-color="#dd397a"/></linearGradient><linearGradient id="linear-gradient-6" x1="792.89" y1="-1507.87" x2="901.55" y2="-1507.87" gradientTransform="translate(-545.47 1497.37) rotate(29.06)" xlink:href="#linear-gradient-3"/><linearGradient id="linear-gradient-7" x1="74.33" y1="874.42" x2="240.95" y2="874.42" gradientTransform="translate(38.37 -559.43) rotate(-8.66)" xlink:href="#linear-gradient-5"/><linearGradient id="linear-gradient-8" x1="-14.2" y1="1267.15" x2="162.16" y2="1267.15" gradientTransform="translate(-10.67 -722.22) rotate(-11.18)" xlink:href="#linear-gradient-3"/><linearGradient id="linear-gradient-9" x1="169.87" y1="588.31" x2="377.06" y2="588.31" gradientTransform="matrix(1, 0, 0, 1, 0, 0)" xlink:href="#linear-gradient-5"/><linearGradient id="linear-gradient-10" x1="515.8" y1="146.44" x2="429.16" y2="921.28" gradientUnits="userSpaceOnUse"><stop offset="0" stop-color="#2c759e"/><stop offset="1" stop-color="#051042"/></linearGradient><linearGradient id="linear-gradient-11" x1="355.56" y1="305.71" x2="848.14" y2="305.71" gradientUnits="userSpaceOnUse"><stop offset="0" stop-color="#5ab6ff"/><stop offset="1" stop-color="#2f68e3"/></linearGradient><linearGradient id="linear-gradient-12" x1="355.56" y1="264.08" x2="848.14" y2="264.08" gradientUnits="userSpaceOnUse"><stop offset="0" stop-color="#53eac9"/><stop offset="1" stop-color="#45aed8"/></linearGradient><linearGradient id="linear-gradient-13" x1="355.56" y1="347.33" x2="848.14" y2="347.33" xlink:href="#linear-gradient-12"/><linearGradient id="linear-gradient-14" x1="354.21" y1="421.84" x2="848.14" y2="421.84" xlink:href="#linear-gradient-11"/><linearGradient id="linear-gradient-15" x1="355.09" y1="379.01" x2="848.14" y2="379.01" xlink:href="#linear-gradient-12"/><linearGradient id="linear-gradient-16" x1="354.21" y1="463.22" x2="848.14" y2="463.22" xlink:href="#linear-gradient-12"/><linearGradient id="linear-gradient-17" x1="355.56" y1="539.26" x2="848.14" y2="539.26" xlink:href="#linear-gradient-11"/><linearGradient id="linear-gradient-18" x1="355.56" y1="496.39" x2="848.14" y2="496.39" xlink:href="#linear-gradient-12"/><linearGradient id="linear-gradient-19" x1="355.56" y1="582.13" x2="848.14" y2="582.13" xlink:href="#linear-gradient-12"/><linearGradient id="linear-gradient-20" x1="355.56" y1="656.16" x2="848.4" y2="656.16" xlink:href="#linear-gradient-11"/><linearGradient id="linear-gradient-21" x1="355.56" y1="614.07" x2="848.4" y2="614.07" xlink:href="#linear-gradient-12"/><linearGradient id="linear-gradient-22" x1="355.56" y1="699.01" x2="848.2" y2="699.01" xlink:href="#linear-gradient-12"/><linearGradient id="linear-gradient-23" x1="302.89" y1="626.05" x2="242.18" y2="763.45" gradientUnits="userSpaceOnUse"><stop offset="0" stop-color="#fdf53f"/><stop offset="0.66" stop-color="#e57a58"/><stop offset="1" stop-color="#d93c65"/></linearGradient><linearGradient id="linear-gradient-24" x1="353.01" y1="648.19" x2="292.29" y2="785.59" xlink:href="#linear-gradient-23"/><linearGradient id="linear-gradient-25" x1="294.59" y1="706.66" x2="305.24" y2="655.54" xlink:href="#linear-gradient-23"/><linearGradient id="linear-gradient-26" x1="368.96" y1="718.27" x2="411.84" y2="718.27" gradientUnits="userSpaceOnUse"><stop offset="0" stop-color="#cb236d"/><stop offset="1" stop-color="#4c246d"/></linearGradient><linearGradient id="linear-gradient-27" x1="402" y1="635.81" x2="390.28" y2="716.76" xlink:href="#linear-gradient-26"/><linearGradient id="linear-gradient-28" x1="371.1" y1="705.34" x2="382.7" y2="705.34" gradientUnits="userSpaceOnUse"><stop offset="0" stop-color="#f9b776"/><stop offset="1" stop-color="#f47960"/></linearGradient><linearGradient id="linear-gradient-29" x1="436.22" y1="709.77" x2="470.84" y2="709.77" xlink:href="#linear-gradient-26"/><linearGradient id="linear-gradient-30" x1="460.03" y1="644.21" x2="448.32" y2="725.16" xlink:href="#linear-gradient-26"/><linearGradient id="linear-gradient-31" x1="306.95" y1="652.99" x2="398.79" y2="652.99" gradientTransform="matrix(1, 0, 0, 1, 0, 0)" xlink:href="#linear-gradient-3"/><linearGradient id="linear-gradient-32" x1="426.06" y1="706.32" x2="439.91" y2="706.32" xlink:href="#linear-gradient-28"/><linearGradient id="linear-gradient-33" x1="390.38" y1="614.72" x2="289.54" y2="729.05" gradientTransform="matrix(1, 0, 0, 1, 0, 0)" xlink:href="#linear-gradient-3"/><linearGradient id="linear-gradient-34" x1="338.38" y1="501.35" x2="372.9" y2="501.35" xlink:href="#linear-gradient-28"/><linearGradient id="linear-gradient-35" x1="279.8" y1="553.79" x2="411.73" y2="553.79" xlink:href="#linear-gradient-23"/><linearGradient id="linear-gradient-36" x1="407.46" y1="578.1" x2="439.45" y2="578.1" xlink:href="#linear-gradient-28"/><linearGradient id="linear-gradient-37" x1="15.15" y1="2178.72" x2="-15.99" y2="2219.91" gradientTransform="translate(55.79 -1675.14) rotate(-8.21)" xlink:href="#linear-gradient-28"/><linearGradient id="linear-gradient-38" x1="-8.63" y1="2188.65" x2="28.57" y2="2188.65" gradientTransform="translate(55.79 -1675.14) rotate(-8.21)" xlink:href="#linear-gradient-3"/><linearGradient id="linear-gradient-39" x1="-30.45" y1="2211.34" x2="-5.48" y2="2185.71" gradientTransform="translate(55.79 -1675.14) rotate(-8.21)" xlink:href="#linear-gradient-28"/><linearGradient id="linear-gradient-40" x1="-725.27" y1="-4832.4" x2="-810.84" y2="-4749.67" gradientTransform="matrix(-1.39, -0.07, -0.07, 1.39, -7786.78, -95.81)" gradientUnits="userSpaceOnUse"><stop offset="0" stop-color="#9cfffb"/><stop offset="1" stop-color="#9bfffa"/></linearGradient><linearGradient id="linear-gradient-41" x1="-3180.23" y1="-4501.85" x2="-3265.8" y2="-4419.13" gradientTransform="matrix(0.65, -1.23, -1.23, -0.65, 6547.72, -9410.84)" xlink:href="#linear-gradient-40"/><linearGradient id="linear-gradient-42" x1="398.75" y1="812.66" x2="421.12" y2="501.13" gradientTransform="matrix(1, 0, 0, 1, 0, 0)" xlink:href="#linear-gradient-5"/><linearGradient id="linear-gradient-43" x1="442.3" y1="815.79" x2="464.66" y2="504.26" gradientTransform="matrix(1, 0, 0, 1, 0, 0)" xlink:href="#linear-gradient-5"/><linearGradient id="linear-gradient-44" x1="415.97" y1="813.9" x2="438.33" y2="502.37" gradientTransform="matrix(1, 0, 0, 1, 0, 0)" xlink:href="#linear-gradient-5"/><linearGradient id="linear-gradient-45" x1="584.9" y1="592.8" x2="444.25" y2="590.01" xlink:href="#linear-gradient-23"/><linearGradient id="linear-gradient-46" x1="-6782.36" y1="582.62" x2="-7020.08" y2="853.29" gradientTransform="matrix(-1, 0, 0, 1, -6068.18, 0)" xlink:href="#linear-gradient-3"/><linearGradient id="linear-gradient-47" x1="-6823.45" y1="562.86" x2="-7061.17" y2="833.53" gradientTransform="matrix(-1, 0, 0, 1, -6068.18, 0)" xlink:href="#linear-gradient-3"/><linearGradient id="linear-gradient-48" x1="-7029.04" y1="631.53" x2="-6914.43" y2="631.53" gradientTransform="matrix(-1, 0, 0, 1, -6068.18, 0)" xlink:href="#linear-gradient-40"/><linearGradient id="linear-gradient-49" x1="-6960.91" y1="631.53" x2="-6846.3" y2="631.53" gradientTransform="matrix(-1, 0, 0, 1, -6068.18, 0)" xlink:href="#linear-gradient-40"/><linearGradient id="linear-gradient-50" x1="-6925.55" y1="543.04" x2="-6818.44" y2="543.04" gradientTransform="matrix(-1, 0, 0, 1, -6068.18, 0)" xlink:href="#linear-gradient-40"/><linearGradient id="linear-gradient-51" x1="-6935.61" y1="570.42" x2="-6862.96" y2="570.42" gradientTransform="matrix(-1, 0, 0, 1, -6068.18, 0)" xlink:href="#linear-gradient-40"/><linearGradient id="linear-gradient-52" x1="-6954.42" y1="603.72" x2="-6886.08" y2="603.72" gradientTransform="matrix(-1, 0, 0, 1, -6183.1, -76.71)" xlink:href="#linear-gradient-40"/><linearGradient id="linear-gradient-53" x1="-6974.72" y1="637.02" x2="-6906.38" y2="637.02" gradientTransform="matrix(-1, 0, 0, 1, -6183.1, -76.71)" xlink:href="#linear-gradient-40"/><linearGradient id="linear-gradient-54" x1="-6998.16" y1="670.32" x2="-6925.51" y2="670.32" gradientTransform="matrix(-1, 0, 0, 1, -6068.18, 0)" xlink:href="#linear-gradient-40"/><linearGradient id="linear-gradient-55" x1="-7018.74" y1="703.61" x2="-6946.09" y2="703.61" gradientTransform="matrix(-1, 0, 0, 1, -6068.18, 0)" xlink:href="#linear-gradient-40"/><linearGradient id="linear-gradient-56" x1="306.37" y1="145.81" x2="454.84" y2="145.81" xlink:href="#linear-gradient-11"/><linearGradient id="linear-gradient-57" x1="447.35" y1="143.62" x2="222.97" y2="160.17" xlink:href="#linear-gradient-11"/><linearGradient id="linear-gradient-58" x1="200.63" y1="210.82" x2="290.28" y2="210.82" xlink:href="#linear-gradient-11"/><linearGradient id="linear-gradient-59" x1="285.76" y1="209.49" x2="150.28" y2="219.48" xlink:href="#linear-gradient-11"/><linearGradient id="linear-gradient-60" x1="691.26" y1="121.77" x2="379.26" y2="521.77" xlink:href="#linear-gradient"/><linearGradient id="linear-gradient-61" x1="600.55" y1="158.02" x2="529.05" y2="290.52" xlink:href="#linear-gradient"/><linearGradient id="linear-gradient-62" x1="522.95" y1="116.14" x2="451.45" y2="248.64" xlink:href="#linear-gradient"/><linearGradient id="linear-gradient-63" x1="535.99" y1="123.18" x2="464.49" y2="255.68" xlink:href="#linear-gradient"/><linearGradient id="linear-gradient-64" x1="543.42" y1="127.18" x2="471.92" y2="259.68" xlink:href="#linear-gradient"/><linearGradient id="linear-gradient-65" x1="-6835.91" y1="519.29" x2="-6926.39" y2="617.71" gradientTransform="matrix(-1, 0, 0, 1, -6068.18, 0)" xlink:href="#linear-gradient-26"/><linearGradient id="linear-gradient-66" x1="-6865.28" y1="526.6" x2="-6857.24" y2="526.6" gradientTransform="matrix(-1, 0, 0, 1, -6068.18, 0)" xlink:href="#linear-gradient-28"/><linearGradient id="linear-gradient-67" x1="-6884.34" y1="465.15" x2="-6857.76" y2="465.15" gradientTransform="matrix(-1, 0, 0, 1, -6068.18, 0)" xlink:href="#linear-gradient-3"/><linearGradient id="linear-gradient-68" x1="-6856.21" y1="500.63" x2="-6946.69" y2="599.05" gradientTransform="matrix(-1, 0, 0, 1, -6068.18, 0)" xlink:href="#linear-gradient-26"/><linearGradient id="linear-gradient-69" x1="-6894.25" y1="526.19" x2="-6887.31" y2="526.19" gradientTransform="matrix(-1, 0, 0, 1, -6068.18, 0)" xlink:href="#linear-gradient-28"/><linearGradient id="linear-gradient-70" x1="-6901.72" y1="464.28" x2="-6864" y2="464.28" gradientTransform="matrix(-1, 0, 0, 1, -6068.18, 0)" xlink:href="#linear-gradient-3"/><linearGradient id="linear-gradient-71" x1="-6912.45" y1="391.92" x2="-6785.99" y2="300.91" gradientTransform="matrix(-1, 0, 0, 1, -6068.18, 0)" xlink:href="#linear-gradient"/><linearGradient id="linear-gradient-72" x1="-6832.21" y1="316.92" x2="-6791.15" y2="316.92" gradientTransform="matrix(-1, 0, 0, 1, -6068.18, 0)" xlink:href="#linear-gradient-28"/><linearGradient id="linear-gradient-73" x1="14738.07" y1="310.04" x2="14765.62" y2="372.73" gradientTransform="translate(-14005.96)" xlink:href="#linear-gradient-28"/><linearGradient id="linear-gradient-74" x1="-6791.34" y1="289.16" x2="-6779.85" y2="271.49" gradientTransform="matrix(-1, 0, 0, 1, -6068.18, 0)" xlink:href="#linear-gradient-28"/><linearGradient id="linear-gradient-75" x1="-6929.12" y1="368.77" x2="-6802.65" y2="277.76" gradientTransform="matrix(-1, 0, 0, 1, -6068.18, 0)" xlink:href="#linear-gradient"/><linearGradient id="linear-gradient-76" x1="-6922.06" y1="375.08" x2="-6870.09" y2="375.08" gradientTransform="matrix(-1, 0, 0, 1, -6068.18, 0)" xlink:href="#linear-gradient-28"/><linearGradient id="linear-gradient-77" x1="-6854.37" y1="338.14" x2="-6825.8" y2="457.19" gradientTransform="matrix(-1, 0, 0, 1, -6068.18, 0)" xlink:href="#linear-gradient-40"/><linearGradient id="linear-gradient-78" x1="-6836.48" y1="319.37" x2="-6842.57" y2="346.1" gradientTransform="matrix(-1, 0, 0, 1, -6068.18, 0)" gradientUnits="userSpaceOnUse"><stop offset="0" stop-color="#53d8ff"/><stop offset="1" stop-color="#3840f7"/></linearGradient><linearGradient id="linear-gradient-79" x1="-6839.67" y1="330.58" x2="-6842.58" y2="348.05" xlink:href="#linear-gradient-78"/><linearGradient id="linear-gradient-80" x1="-6873.95" y1="369.64" x2="-6857.76" y2="369.64" gradientTransform="matrix(-1, 0, 0, 1, -6068.18, 0)" xlink:href="#linear-gradient-28"/><linearGradient id="linear-gradient-81" x1="-6882.16" y1="319.53" x2="-6861.61" y2="319.53" gradientTransform="matrix(-1, 0, 0, 1, -6068.18, 0)" xlink:href="#linear-gradient-28"/><linearGradient id="linear-gradient-82" x1="-10966.52" y1="-6685.92" x2="-10974.2" y2="-6711.24" gradientTransform="matrix(-0.75, -0.67, -0.67, 0.75, -11844.63, -2008.45)" xlink:href="#linear-gradient-28"/><linearGradient id="linear-gradient-83" x1="-10973.44" y1="-6730.04" x2="-10967.02" y2="-6693.41" gradientTransform="matrix(-0.75, -0.67, -0.67, 0.75, -11844.63, -2008.45)" xlink:href="#linear-gradient-3"/><linearGradient id="linear-gradient-84" x1="-10974.37" y1="-6686.03" x2="-10981.27" y2="-6708.82" gradientTransform="matrix(-0.75, -0.67, -0.67, 0.75, -11844.63, -2008.45)" xlink:href="#linear-gradient-28"/><linearGradient id="linear-gradient-85" x1="629.9" y1="251.45" x2="579.62" y2="295.92" xlink:href="#linear-gradient"/><linearGradient id="linear-gradient-86" x1="686.56" y1="247.79" x2="638.14" y2="290.62" xlink:href="#linear-gradient"/><linearGradient id="linear-gradient-87" x1="662.95" y1="245.74" x2="602.34" y2="299.35" xlink:href="#linear-gradient"/><linearGradient id="linear-gradient-88" x1="11666.26" y1="-4027.62" x2="11595.63" y2="-4070.43" gradientTransform="matrix(1, 0.07, -0.25, 0.89, -11841.53, 2937.56)" xlink:href="#linear-gradient-78"/><linearGradient id="linear-gradient-89" x1="11627.06" y1="-4043.45" x2="11546.23" y2="-4128.91" gradientTransform="matrix(1, 0.07, -0.25, 0.89, -11726.6, 3014.27)" xlink:href="#linear-gradient-78"/><linearGradient id="linear-gradient-90" x1="11661.1" y1="-4028.33" x2="11595.12" y2="-4068.32" gradientTransform="matrix(1, 0.07, -0.25, 0.89, -11841.53, 2937.56)" xlink:href="#linear-gradient-78"/><linearGradient id="linear-gradient-91" x1="-14723.95" y1="-3601.18" x2="-14693.8" y2="-3609.92" gradientTransform="matrix(-1, -0.07, -0.07, 1, -14199.93, 2675.22)" xlink:href="#linear-gradient-78"/></defs><title>web-application-development</title><g style="opacity:0.6000000000000001"><path d="M1068.19,350.68c-25.75-41.57-80.31-63.85-81.73-126.15-.54-23.6,14.88-42.55,7.94-65.69C947.85,3.66,728,110,633,142.81c-39.54,13.66-86.86,28.87-129.38,26.87-48.94-2.29-94.42-29.16-142.88-34.2a106.84,106.84,0,0,0-41.91,3.64C269.93,153.61,226.76,208,210.5,268.44c-13.18,49,3.66,97.36-17,145.34C171.41,464.91,128,500.43,117,559.47c-13.13,70.85,37.05,132.47,90.94,134.4,34.31,1.23,97.91-5.11,127-29.6,35.49-29.81,70.37-31.77,111.74-30.63,78.74,2.17,157.47,22.67,235.19,37.26,66.6,12.5,132.23,31,199.73,33.37,49.57,1.72,91.63,2.5,118.45-59.77C1032.2,570.06,1122.19,437.9,1068.19,350.68Z" transform="translate(-114.93 -76.71)" style="opacity:0.5;fill:url(#linear-gradient)"/><path d="M1032.45,363.32c-18.24-28.27-63.09-30.9-90.42-47C891.56,286.7,938.34,237,924.4,192.71,913.15,157,875.83,123,836.76,129.38c-27.66,4.56-50.76,20.82-76,31.83-24.31,10.62-50.62,17.08-76.4,23-56.76,13.08-115.94,21-174.28,18.4-45.29-2-87.36-25.9-132.19-30.37a103.14,103.14,0,0,0-38.79,3.23C293.89,188.36,254,236.66,238.91,290.31c-12.19,43.49,3.38,86.43-15.76,129-20.4,45.39-60.59,76.92-70.71,129.33-12.15,62.9,34.27,117.6,84.14,119.31,31.74,1.09,90.58-4.54,117.55-26.27,32.83-26.47,65.1-28.21,103.38-27.2,72.85,1.93,145.69,20.13,217.6,33.08,61.61,11.1,122.34,27.54,184.79,29.62,45.86,1.54,84.78,2.23,109.59-53.06C999.15,558.07,1082.41,440.74,1032.45,363.32Z" transform="translate(-114.93 -76.71)" style="opacity:0.5;fill:url(#linear-gradient-2)"/></g><path d="M1008.54,379.07a1,1,0,0,1-.42-1.91c1.19-.55,2.39-1.13,3.56-1.73a1,1,0,0,1,.91,1.79c-1.2.61-2.42,1.2-3.63,1.76A1.06,1.06,0,0,1,1008.54,379.07Z" transform="translate(-114.93 -76.71)" style="fill:#e992ec"/><path d="M968.27,387.83h-1.58a1,1,0,1,1,0-2c2.68,0,5.42,0,8.12-.21a1,1,0,1,1,.13,2C972.75,387.76,970.49,387.83,968.27,387.83Zm-14.84-1.15h-.16c-2.72-.43-5.46-1-8.13-1.64a1,1,0,0,1-.73-1.21,1,1,0,0,1,1.21-.73c2.61.64,5.29,1.18,8,1.6a1,1,0,0,1-.15,2Zm34.68-.89a1,1,0,0,1-1-.8,1,1,0,0,1,.78-1.18c2.64-.55,5.29-1.22,7.87-2a1,1,0,0,1,.57,1.92c-2.63.79-5.33,1.47-8,2ZM932.69,381a.94.94,0,0,1-.37-.07c-2.56-1-5.1-2.17-7.56-3.41a1,1,0,1,1,.9-1.79c2.41,1.22,4.9,2.34,7.4,3.34a1,1,0,0,1-.37,1.93Zm-19-10.18a1,1,0,0,1-.56-.17c-2.27-1.57-4.49-3.25-6.62-5a1,1,0,0,1,1.28-1.55c2.08,1.72,4.26,3.37,6.47,4.9a1,1,0,0,1,.26,1.39A1,1,0,0,1,913.74,370.79Zm-16.21-14.11a1,1,0,0,1-.74-.33c-1.86-2-3.66-4.15-5.34-6.33a1,1,0,0,1,1.58-1.23c1.65,2.14,3.41,4.23,5.23,6.21a1,1,0,0,1-.06,1.41A1,1,0,0,1,897.53,356.68Zm-12.69-17.35a1,1,0,0,1-.86-.51c-1.37-2.39-2.65-4.87-3.8-7.36a1,1,0,1,1,1.81-.84c1.13,2.44,2.39,4.87,3.72,7.21a1,1,0,0,1-.87,1.5Zm-8.49-19.75a1,1,0,0,1-1-.71c-.8-2.63-1.49-5.33-2.06-8a1,1,0,1,1,2-.42c.55,2.65,1.23,5.29,2,7.87a1,1,0,0,1-.67,1.25A1.35,1.35,0,0,1,876.35,319.58Zm-3.88-21.15a1,1,0,0,1-1-.93c-.17-2.3-.25-4.64-.25-6.95,0-.45,0-.89,0-1.34a1,1,0,0,1,2,0c0,.44,0,.87,0,1.31,0,2.26.08,4.55.24,6.81a1,1,0,0,1-.92,1.07Zm.87-21.48-.15,0a1,1,0,0,1-.84-1.14c.42-2.72,1-5.45,1.62-8.13a1,1,0,1,1,1.94.47c-.64,2.62-1.17,5.3-1.58,8A1,1,0,0,1,873.34,277Z" transform="translate(-114.93 -76.71)" style="fill:#e992ec"/><path d="M879,256.14a.92.92,0,0,1-.36-.07,1,1,0,0,1-.56-1.3c.49-1.24,1-2.49,1.57-3.72a1,1,0,1,1,1.82.81c-.53,1.21-1.05,2.43-1.54,3.65A1,1,0,0,1,879,256.14Z" transform="translate(-114.93 -76.71)" style="fill:#e992ec"/><path d="M932,202.62a1,1,0,0,1-.38-1.92c1.25-.51,2.52-1,3.78-1.45a1,1,0,1,1,.67,1.88c-1.23.45-2.47.92-3.69,1.42A1,1,0,0,1,932,202.62Z" transform="translate(-114.93 -76.71)" style="fill:#e992ec"/><path d="M1060.62,319a1,1,0,0,1-.29,0,1,1,0,0,1-.67-1.24c.75-2.55,1.41-5.15,1.94-7.75a1,1,0,1,1,2,.4c-.55,2.66-1.21,5.32-2,7.91A1,1,0,0,1,1060.62,319Zm3.72-20.83h-.06a1,1,0,0,1-.93-1.06c.13-2.08.2-4.19.2-6.27,0-.58,0-1.15,0-1.72a1,1,0,0,1,1-1,1,1,0,0,1,1,1c0,.59,0,1.17,0,1.76,0,2.12-.07,4.28-.21,6.4A1,1,0,0,1,1064.34,298.12Zm-.92-21.14a1,1,0,0,1-1-.85c-.41-2.63-.93-5.26-1.54-7.83a1,1,0,1,1,1.94-.47c.63,2.62,1.16,5.32,1.58,8a1,1,0,0,1-.84,1.14Zm-5.49-20.43a1,1,0,0,1-.93-.63c-1-2.47-2-4.93-3.23-7.31a1,1,0,1,1,1.8-.88c1.2,2.43,2.3,4.94,3.29,7.46a1,1,0,0,1-.57,1.29A.92.92,0,0,1,1057.93,256.55Zm-9.84-18.71a1,1,0,0,1-.83-.44c-1.48-2.2-3.08-4.36-4.75-6.42a1,1,0,0,1,1.56-1.26c1.7,2.11,3.33,4.32,4.85,6.56a1,1,0,0,1-.27,1.39A1,1,0,0,1,1048.09,237.84Zm-13.71-16.11a1,1,0,0,1-.68-.27c-1.94-1.82-4-3.58-6-5.24a1,1,0,0,1,1.24-1.56c2.12,1.69,4.19,3.48,6.17,5.34a1,1,0,0,1-.69,1.73ZM1017.49,209a1.06,1.06,0,0,1-.51-.14c-2.29-1.36-4.65-2.64-7-3.8a1,1,0,0,1-.47-1.33,1,1,0,0,1,1.34-.47c2.43,1.19,4.85,2.49,7.18,3.88a1,1,0,0,1,.35,1.37A1,1,0,0,1,1017.49,209Zm-19.27-8.76a.87.87,0,0,1-.31,0c-2.52-.82-5.11-1.55-7.69-2.16a1,1,0,1,1,.46-1.94c2.64.62,5.28,1.36,7.86,2.2a1,1,0,0,1,.63,1.26A1,1,0,0,1,998.22,200.23Zm-49.84-2.62a1,1,0,0,1-.2-2c2.64-.56,5.35-1,8-1.35a1,1,0,1,1,.25,2c-2.64.33-5.29.78-7.88,1.33Zm29.12-1.69h-.09c-2.64-.25-5.33-.39-8-.41a1,1,0,0,1,0-2h0c2.71,0,5.45.16,8.14.42a1,1,0,0,1-.09,2Z" transform="translate(-114.93 -76.71)" style="fill:#e992ec"/><path d="M1054.29,334.9a1,1,0,0,1-.45-.1,1,1,0,0,1-.45-1.35c.6-1.17,1.17-2.37,1.71-3.56a1,1,0,1,1,1.82.82c-.55,1.22-1.14,2.45-1.74,3.64A1,1,0,0,1,1054.29,334.9Z" transform="translate(-114.93 -76.71)" style="fill:#e992ec"/><path d="M1029.66,331.93a1.14,1.14,0,0,0,.1-1.33l-7.21-12.06a61.1,61.1,0,0,0,6-18.89l12.83-5.7a1.15,1.15,0,0,0,.68-1.15L1040.61,276a1.15,1.15,0,0,0-.87-1l-13.61-3.42A61.13,61.13,0,0,0,1017,254l5-13.11a1.15,1.15,0,0,0-.33-1.29l-12.89-10.85a1.16,1.16,0,0,0-1.34-.11l-12.05,7.21a61.41,61.41,0,0,0-18.9-6L970.83,217a1.15,1.15,0,0,0-1.15-.68l-16.79,1.44a1.15,1.15,0,0,0-1,.87l-3.42,13.62a61.05,61.05,0,0,0-17.59,9.13l-13.11-5a1.17,1.17,0,0,0-1.3.34L905.6,249.56a1.14,1.14,0,0,0-.1,1.33L912.71,263a61.1,61.1,0,0,0-6,18.89l-12.83,5.7a1.15,1.15,0,0,0-.68,1.15l1.45,16.79a1.15,1.15,0,0,0,.87,1l13.61,3.42a61.36,61.36,0,0,0,9.13,17.6l-5,13.11a1.14,1.14,0,0,0,.33,1.29l12.89,10.85a1.16,1.16,0,0,0,1.34.11l12.05-7.21a61.14,61.14,0,0,0,18.9,6l5.7,12.83a1.14,1.14,0,0,0,1.15.68l16.79-1.44a1.15,1.15,0,0,0,1-.87l3.42-13.61a61.46,61.46,0,0,0,17.59-9.14l13.11,5.05a1.17,1.17,0,0,0,1.3-.34Z" transform="translate(-114.93 -76.71)" style="fill:url(#linear-gradient-3)"/><path d="M967.64,306.71a16,16,0,1,1,7-30.32,16,16,0,0,1-1.75,29.44A16.06,16.06,0,0,1,967.64,306.71Zm0-29.93a14,14,0,1,0,6.09,1.41A13.94,13.94,0,0,0,967.64,276.78Z" transform="translate(-114.93 -76.71)" style="fill:#66caff"/><path d="M967.31,332.2a41.71,41.71,0,0,1-41.47-38.09c-.11-1.22-.16-2.43-.16-3.64a41.66,41.66,0,0,1,83.16-3.5c.1,1.2.15,2.41.15,3.61a41.69,41.69,0,0,1-.33,5.25,1,1,0,0,1-2-.12.57.57,0,0,1,0-.13,39.6,39.6,0,0,0,.31-5c0-1.15,0-2.3-.14-3.44-.07-.76-.15-1.51-.26-2.25a39.33,39.33,0,0,0-11.81-23c-.62-.59-1.25-1.16-1.91-1.71a39.66,39.66,0,0,0-65.19,30.27c0,1.15.05,2.31.15,3.47a39.65,39.65,0,0,0,62.71,28.76,1,1,0,0,1,1.4.23,1,1,0,0,1,.19.58,1,1,0,0,1-.42.81,41.6,41.6,0,0,1-20.8,7.72C969.7,332.14,968.5,332.2,967.31,332.2Z" transform="translate(-114.93 -76.71)" style="fill:#66caff"/><path d="M899.27,201.31l-4.56-6.41a34.32,34.32,0,0,0,2.51-10.82l6.91-3.75a.64.64,0,0,0,.33-.68l-1.55-9.31a.66.66,0,0,0-.53-.53l-7.76-1.3a34.27,34.27,0,0,0-5.88-9.43l2.24-7.54a.65.65,0,0,0-.25-.71l-7.68-5.49a.65.65,0,0,0-.75,0l-6.41,4.56a34.37,34.37,0,0,0-10.82-2.5l-3.76-6.92a.65.65,0,0,0-.67-.33l-9.31,1.56a.63.63,0,0,0-.53.53L849.49,150a34.24,34.24,0,0,0-9.42,5.89l-7.55-2.24a.65.65,0,0,0-.71.24l-5.48,7.69a.65.65,0,0,0,0,.75l4.56,6.41a34.32,34.32,0,0,0-2.51,10.82l-6.91,3.75a.64.64,0,0,0-.33.67l1.55,9.32a.66.66,0,0,0,.53.53l7.76,1.3a34.21,34.21,0,0,0,5.88,9.42l-2.24,7.55a.66.66,0,0,0,.25.71l7.68,5.49a.65.65,0,0,0,.75,0l6.41-4.57a34.11,34.11,0,0,0,10.82,2.51l3.75,6.92a.67.67,0,0,0,.68.33l9.31-1.56a.64.64,0,0,0,.53-.53l1.31-7.75a34.24,34.24,0,0,0,9.42-5.89l7.55,2.24a.65.65,0,0,0,.71-.24l5.48-7.69A.65.65,0,0,0,899.27,201.31Z" transform="translate(-114.93 -76.71)" style="fill:url(#linear-gradient-4)"/><path d="M862.8,191.2a9.42,9.42,0,0,1-8.6-5.62A9.4,9.4,0,0,1,859,173.22a9.39,9.39,0,0,1,12.36,4.83,9.39,9.39,0,0,1-8.6,13.15Zm0-16.77A7.38,7.38,0,0,0,856,184.77a7.38,7.38,0,0,0,9.72,3.81,7.39,7.39,0,0,0-3-14.15Z" transform="translate(-114.93 -76.71)" style="fill:#66caff"/><path d="M894.93,221.92a1,1,0,0,1-.77-.37,1,1,0,0,1,.14-1.4c1-.83,2-1.71,2.92-2.61a1,1,0,0,1,1.42,0,1,1,0,0,1,0,1.41c-1,.94-2,1.85-3.05,2.71A1,1,0,0,1,894.93,221.92Z" transform="translate(-114.93 -76.71)" style="fill:#e992ec"/><path d="M862.87,233.43A51.32,51.32,0,0,1,856,233a1,1,0,0,1,.27-2,47.19,47.19,0,0,0,6.62.44H864a1,1,0,0,1,1,1,1,1,0,0,1-1,1Zm13.8-2a1,1,0,0,1-1-.72,1,1,0,0,1,.68-1.24,51.3,51.3,0,0,0,6.29-2.26l1-.44a1,1,0,0,1,1.33.49,1,1,0,0,1-.49,1.32l-1,.46a53,53,0,0,1-6.53,2.36Zm-32.94-1.78a1,1,0,0,1-.37-.08,51.46,51.46,0,0,1-7.2-3.6,1,1,0,1,1,1-1.71,50.2,50.2,0,0,0,6.92,3.46,1,1,0,0,1-.38,1.93Zm-17.11-11.47a1,1,0,0,1-.72-.3,52.48,52.48,0,0,1-5.16-6.18,1,1,0,1,1,1.63-1.16,49.41,49.41,0,0,0,5,5.94,1,1,0,0,1,0,1.41A1,1,0,0,1,826.62,218.23Zm-11.11-17.36a1,1,0,0,1-.93-.64,52.31,52.31,0,0,1-2.29-7.73,1,1,0,0,1,2-.41,48.55,48.55,0,0,0,2.2,7.42,1,1,0,0,1-.58,1.29A.92.92,0,0,1,815.51,200.87Z" transform="translate(-114.93 -76.71)" style="fill:#e992ec"/><path d="M812.23,180.47h-.05a1,1,0,0,1-.95-1c.06-1.36.18-2.73.35-4.07a1,1,0,0,1,2,.26c-.16,1.28-.27,2.6-.33,3.9A1,1,0,0,1,812.23,180.47Z" transform="translate(-114.93 -76.71)" style="fill:#e992ec"/><path d="M830.87,143.53a1,1,0,0,1-.78-.37,1,1,0,0,1,.15-1.41c1-.85,2.15-1.68,3.26-2.44a1,1,0,1,1,1.14,1.65c-1.07.73-2.13,1.52-3.14,2.34A1,1,0,0,1,830.87,143.53Z" transform="translate(-114.93 -76.71)" style="fill:#e992ec"/><path d="M912.78,174.85a1,1,0,0,1-1-.84A49.94,49.94,0,0,0,910,166.6a1,1,0,0,1,1.91-.61,52.3,52.3,0,0,1,1.85,7.7,1,1,0,0,1-.83,1.15Zm-7.14-19a1,1,0,0,1-.85-.47,48.39,48.39,0,0,0-4.53-6.12,1,1,0,0,1,1.52-1.31,52.27,52.27,0,0,1,4.71,6.36,1,1,0,0,1-.32,1.38A.94.94,0,0,1,905.64,155.88Zm-14-14.65a1,1,0,0,1-.57-.18,50.1,50.1,0,0,0-6.57-3.84,1,1,0,0,1,.87-1.8,51.74,51.74,0,0,1,6.84,4,1,1,0,0,1,.25,1.39A1,1,0,0,1,891.64,141.23Zm-46.37-5.89a1,1,0,0,1-.35-1.94,52.1,52.1,0,0,1,7.62-2.18,1,1,0,1,1,.4,2,51,51,0,0,0-7.33,2.09A1,1,0,0,1,845.27,135.34Zm27.74-2.1a.75.75,0,0,1-.21,0,50.47,50.47,0,0,0-7.55-1,1,1,0,1,1,.1-2,52,52,0,0,1,7.86,1,1,1,0,0,1-.2,2Z" transform="translate(-114.93 -76.71)" style="fill:#e992ec"/><path d="M912.66,191.45h-.17a1,1,0,0,1-.82-1.16c.23-1.28.4-2.59.52-3.88a1,1,0,0,1,2,.19c-.12,1.34-.3,2.7-.54,4A1,1,0,0,1,912.66,191.45Z" transform="translate(-114.93 -76.71)" style="fill:#e992ec"/><path d="M862.62,205.49a23.76,23.76,0,1,1,23.76-22.64,1,1,0,0,1-1,1,1,1,0,0,1-1-1v-.05c0-.34,0-.68,0-1a22,22,0,0,0-.3-3.61,21.59,21.59,0,0,0-7.71-13.29c-.36-.3-.73-.58-1.11-.85a21.78,21.78,0,0,0-34.44,17.71,20.79,20.79,0,0,0,.3,3.59,21.78,21.78,0,0,0,35.58,13,1,1,0,0,1,1.3,1.52,23.7,23.7,0,0,1-15.41,5.66Z" transform="translate(-114.93 -76.71)" style="fill:#66caff"/><path d="M834.27,689.12a8.12,8.12,0,0,1-13.06-3.35c-10.69-30-33.27-117.43,23.72-211.32,48.13-79.3,66.69-126.87,73.62-149a5.1,5.1,0,0,1,9.68-.14C946,376.49,989.63,549.39,834.27,689.12Z" transform="translate(-114.93 -76.71)" style="fill:url(#linear-gradient-5)"/><path d="M827.15,685.24H827a2,2,0,0,1-1.79-2.18c.14-1.4,14.47-141.53,76.39-254.76a2,2,0,1,1,3.51,1.92C843.53,542.73,829.28,682,829.14,683.44A2,2,0,0,1,827.15,685.24Z" transform="translate(-114.93 -76.71)" style="fill:#24286c"/><path d="M832.16,696.79c41.88,2.3,163.07-9.16,180.32-215.22a5.71,5.71,0,0,0-10.4-3.72c-15.53,22.69-43.38,61.47-69.57,75.8C851.38,598,827.55,654.94,820.68,681A12.58,12.58,0,0,0,832.16,696.79Z" transform="translate(-114.93 -76.71)" style="fill:url(#linear-gradient-6)"/><path d="M827.21,692a2,2,0,0,1-.81-3.83c57.26-25.44,96.5-64.74,119.33-93.22,24.72-30.86,36-55.94,36.13-56.19a2,2,0,1,1,3.66,1.62c-.12.26-11.63,25.82-36.67,57.07C925.74,626.23,886,666,828,691.77A1.91,1.91,0,0,1,827.21,692Z" transform="translate(-114.93 -76.71)" style="fill:#2a6fae"/><path d="M395.49,438.51s-8.07-71.16-43.35-85.65-99-17.81-115.36-119.33c-9.57-59.43-14.63-85.3-17.18-96.53a6.78,6.78,0,0,1,6.94-8.28c31.74,1.58,135.54,11.74,166,77.44C428.76,284.05,395.49,438.51,395.49,438.51Z" transform="translate(-114.93 -76.71)" style="fill:url(#linear-gradient-7)"/><path d="M254.32,153.83c2.7,1.82,5.3,3.69,7.89,5.62,1.3,1,2.57,1.94,3.84,2.93s2.55,2,3.79,3c2.51,2,5,4,7.47,6.12l3.7,3.11,3.62,3.19,3.61,3.21,3.54,3.29c2.37,2.19,4.72,4.38,7,6.65,4.65,4.47,9.09,9.14,13.57,13.78s8.75,9.47,12.89,14.42l3.14,3.68,1.58,1.83,1.51,1.89,6.06,7.54,1.51,1.9,1.45,1.94,2.89,3.88,2.89,3.89,1.44,1.94,1.39,2c3.65,5.33,7.44,10.52,10.84,16.1.9,1.37,1.69,2.79,2.52,4.19s1.66,2.8,2.45,4.21l2.33,4.29,1.16,2.15,1.09,2.18,2.18,4.36,2.05,4.42c1.41,2.93,2.59,6,3.88,8.94a270.73,270.73,0,0,1,12,37,295,295,0,0,1,6.86,38.19q1.07,9.63,1.52,19.33c.31,6.47.4,12.88.08,19.45a2.16,2.16,0,0,1-4.31-.08v-.09a284.09,284.09,0,0,0-3-37.89,329.29,329.29,0,0,0-7.5-37.28,288.09,288.09,0,0,0-12-36,240.58,240.58,0,0,0-17.13-33.73,473.17,473.17,0,0,0-46-60.76l-6.44-7.05c-2.11-2.39-4.38-4.62-6.56-6.94s-4.43-4.59-6.69-6.84L285,184.4l-3.45-3.31a375,375,0,0,0-28.68-25.26l0,0a1.22,1.22,0,0,1,1.44-2Z" transform="translate(-114.93 -76.71)" style="fill:#222669"/><path d="M428.89,667.31c5.3,2.63-49.87-67.54-66.67-177.36-7.91-51.75-7.66-116.54-37-141.66C300.85,327.37,217.36,340,190,344.86A4.09,4.09,0,0,0,188.1,352c13,11.06,40.88,37.15,48,63.32,9.42,34.5,42.05,56.58,71.33,62.68S353,489.94,367,536.9,413.85,659.83,428.89,667.31Z" transform="translate(-114.93 -76.71)" style="fill:url(#linear-gradient-8)"/><path d="M228.34,359.7a132.59,132.59,0,0,1,50.91,13.09,103.69,103.69,0,0,1,22.29,14.48,90,90,0,0,1,17.52,20.12l1.77,2.85c.58.95,1.08,2,1.62,2.93s1.07,2,1.55,3l1.45,2.95q2.9,5.88,5.71,11.81,5.63,11.85,10.87,23.89c7,16,13.5,32.29,19,49a.84.84,0,0,1-1.58.58v0c-3.21-8.08-6.58-16.14-10.09-24.11s-7.05-15.95-10.7-23.87l-5.52-11.85-5.64-11.79q-2.82-5.91-5.74-11.75L320.29,418c-.48-1-1-1.88-1.51-2.83s-1-1.9-1.53-2.81l-1.67-2.73A89.31,89.31,0,0,0,299,390.22a97.62,97.62,0,0,0-10.19-7.82l-1.33-.91-1.36-.86c-.91-.56-1.81-1.15-2.74-1.7-1.86-1.07-3.71-2.16-5.64-3.13a133.82,133.82,0,0,0-24-9.6,139.61,139.61,0,0,0-25.44-5.15h0a.67.67,0,0,1,.1-1.34Z" transform="translate(-114.93 -76.71)" style="fill:#1f5aa9"/><path d="M376.75,688.85c3,1.59-17-32.8-18.5-63.1s-8.37-82-34.5-113S269,479,233,507.16c-30,23.43-48.79,35.26-59.79,37.46a4.15,4.15,0,0,0-2.78,6.06c7.05,13,27,42.8,60.45,40.7C273.52,588.7,325.25,561,341,584.1s13.75,36.11,14.23,47.08S356.82,678.34,376.75,688.85Z" transform="translate(-114.93 -76.71)" style="fill:url(#linear-gradient-9)"/><path d="M245.09,544.34a84.94,84.94,0,0,1,7.42-6.28c2.58-2,5.23-3.84,8-5.55a79.46,79.46,0,0,1,17.71-8.39,55.79,55.79,0,0,1,9.71-2.2,41.61,41.61,0,0,1,10.1,0c.85.14,1.69.22,2.53.41s1.68.35,2.48.58l4.72,1.47,4.63,1.79,4.48,2.16a56.25,56.25,0,0,1,15.61,12.23A69.87,69.87,0,0,1,343.25,557c.72,1.46,1.45,2.92,2,4.45s1.26,3,1.82,4.52l1.58,4.61c.55,1.52.91,3.1,1.35,4.66a166.06,166.06,0,0,1,4,18.91.75.75,0,0,1-1.47.3v0c-1.54-6.2-3-12.41-5.09-18.41-.95-3-2.15-6-3.26-8.93-.6-1.46-1.28-2.89-1.91-4.33s-1.36-2.84-2.1-4.22a71,71,0,0,0-10.66-15.32A54.64,54.64,0,0,0,314.9,532l-4.19-2-4.35-1.66L301.9,527c-.74-.21-1.46-.35-2.19-.53s-1.48-.24-2.22-.37a37.18,37.18,0,0,0-9.07,0,51.65,51.65,0,0,0-9.05,1.82,87.62,87.62,0,0,0-17.28,7.3c-2.77,1.53-5.51,3.12-8.18,4.84s-5.28,3.55-7.78,5.46h0a.79.79,0,0,1-1.1-.15A.78.78,0,0,1,245.09,544.34Z" transform="translate(-114.93 -76.71)" style="fill:#222669"/><rect x="268.07" y="229.29" width="436" height="366" style="fill:url(#linear-gradient-10)"/><path d="M835.53,257.61l-468.47,2.95c-6.35,0-11.5,4.69-11.5,10.38v69.92c0,5.48,5,10,11.07,10l468.9,2.95c7,0,12.61-4.67,12.61-10.54V268.14C848.14,262.28,842.49,257.56,835.53,257.61Z" transform="translate(-114.93 -76.71)" style="fill:url(#linear-gradient-11)"/><path d="M835.53,257.61l-468.9,2.95c-6.11,0-11.07,4.52-11.07,10l492.58-2.42C848.14,262.28,842.49,257.56,835.53,257.61Z" transform="translate(-114.93 -76.71)" style="opacity:0.5;fill:url(#linear-gradient-12)"/><path d="M366.63,350.86l468.9,2.95c7,0,12.61-4.67,12.61-10.54l-492.58-2.41C355.56,346.34,360.52,350.82,366.63,350.86Z" transform="translate(-114.93 -76.71)" style="opacity:0.5;fill:url(#linear-gradient-13)"/><path d="M835.91,374.19l-468.83-1c-6.56,0-11.92,4.74-12,10.61L354.21,456c-.07,5.67,5,10.32,11.33,10.37l470.34,4.12c6.77.06,12.26-4.66,12.26-10.54V384.81C848.14,379,842.66,374.2,835.91,374.19Z" transform="translate(-114.93 -76.71)" style="fill:url(#linear-gradient-14)"/><path d="M835.91,374.19l-469.27-1c-6.31,0-11.48,4.56-11.55,10.21l493.05,1.39C848.14,379,842.66,374.2,835.91,374.19Z" transform="translate(-114.93 -76.71)" style="opacity:0.5;fill:url(#linear-gradient-15)"/><path d="M365.54,466.35l470.34,4.12c6.77.06,12.26-4.66,12.26-10.54L354.21,456C354.14,461.65,359.22,466.3,365.54,466.35Z" transform="translate(-114.93 -76.71)" style="opacity:0.5;fill:url(#linear-gradient-16)"/><path d="M836.32,491.08H367.83c-6.77,0-12.27,4.94-12.27,11v74.72c0,5.86,5.29,10.61,11.82,10.61H836.32c6.53,0,11.82-4.75,11.82-10.61V501.7C848.14,495.83,842.85,491.08,836.32,491.08Z" transform="translate(-114.93 -76.71)" style="fill:url(#linear-gradient-17)"/><path d="M836.32,491.08H367.38c-6.53,0-11.82,4.75-11.82,10.62H848.14C848.14,495.83,842.85,491.08,836.32,491.08Z" transform="translate(-114.93 -76.71)" style="opacity:0.5;fill:url(#linear-gradient-18)"/><path d="M367.38,587.44H836.32c6.53,0,11.82-4.75,11.82-10.61H355.56C355.56,582.69,360.85,587.44,367.38,587.44Z" transform="translate(-114.93 -76.71)" style="opacity:0.5;fill:url(#linear-gradient-19)"/><path d="M836.82,609.75l-468.76-1.84c-6.9,0-12.5,4.89-12.5,11v74.73c0,5.86,5.39,10.61,12,10.61l469,.18c6.41,0,11.62-4.66,11.64-10.41l.2-73.78C848.42,614.46,843.24,609.77,836.82,609.75Z" transform="translate(-114.93 -76.71)" style="fill:url(#linear-gradient-20)"/><path d="M836.82,609.75,367.6,607.91c-6.65,0-12,4.71-12,10.58l492.84,1.73C848.42,614.46,843.24,609.77,836.82,609.75Z" transform="translate(-114.93 -76.71)" style="opacity:0.5;fill:url(#linear-gradient-21)"/><path d="M367.59,704.23l469,.18c6.41,0,11.62-4.66,11.64-10.41l-492.64-.38C355.56,699.48,361,704.23,367.59,704.23Z" transform="translate(-114.93 -76.71)" style="opacity:0.5;fill:url(#linear-gradient-22)"/><path d="M281.74,637.24c-1.76,2.61-8.76,61.57-9.85,83.35a2.58,2.58,0,0,0,5.13.52l12.79-82Z" transform="translate(-114.93 -76.71)" style="fill:url(#linear-gradient-23)"/><path d="M338,637.24c1.76,2.61,8.75,61.57,9.85,83.35a2.58,2.58,0,0,1-5.13.52l-12.8-82Z" transform="translate(-114.93 -76.71)" style="fill:url(#linear-gradient-24)"/><path d="M271.16,632.64v.64c0,4.63,3.94,8.42,8.93,8.51l59.14,1c4.92.09,9-3.47,9.26-8l0-.59c.25-4.75-3.79-8.75-8.91-8.84l-59.17-1.06C275.37,624.19,271.2,628,271.16,632.64Z" transform="translate(-114.93 -76.71)" style="fill:url(#linear-gradient-25)"/><path d="M386.2,718.45c-10.51,0-15.16-.91-17.24-1.73a4,4,0,0,0,3.88,3.09H410a1.81,1.81,0,0,0,1.75-2.28C407.54,717.87,398.54,718.45,386.2,718.45Z" transform="translate(-114.93 -76.71)" style="fill:url(#linear-gradient-26)"/><path d="M411.78,717.53a1.72,1.72,0,0,0-.31-.64c-2.83-3.61-8.52-9.29-16.26-9.18-11.34.16-15.3,1.39-24.11.06l-2.08,6.9a4,4,0,0,0-.06,2.05c2.08.82,6.73,1.73,17.24,1.73C398.54,718.45,407.54,717.87,411.78,717.53Z" transform="translate(-114.93 -76.71)" style="fill:url(#linear-gradient-27)"/><path d="M373.65,700.35,371.1,709s5.66,2.57,10.63.51l1-7.52Z" transform="translate(-114.93 -76.71)" style="fill:url(#linear-gradient-28)"/><path d="M450.73,713c-8.19,6.58-12.38,8.8-14.51,9.46a4,4,0,0,0,4.95,0l29-23.3a1.8,1.8,0,0,0-.06-2.86C467,699.17,460.35,705.26,450.73,713Z" transform="translate(-114.93 -76.71)" style="fill:url(#linear-gradient-29)"/><path d="M470.1,696.25a1.75,1.75,0,0,0-.63-.3c-4.47-1-12.44-1.88-18.41,3.06-8.74,7.22-11.06,10.65-18.75,15.15l2.68,6.65a3.82,3.82,0,0,0,1.23,1.63c2.13-.66,6.32-2.88,14.51-9.46C460.35,705.26,467,699.17,470.1,696.25Z" transform="translate(-114.93 -76.71)" style="fill:url(#linear-gradient-30)"/><path d="M319.06,601.46s62.94,5.14,75.85,11.22-10.53,91.26-10.53,91.26-3.52,1.7-11.34-.74c0,0,8-62.86,2-76.49L307,615.56Z" transform="translate(-114.93 -76.71)" style="fill:url(#linear-gradient-31)"/><path d="M426.06,702.19c.58.54,6.25,12,6.25,12s6.31-1.37,7.6-5.36l-5.68-10.32Z" transform="translate(-114.93 -76.71)" style="fill:url(#linear-gradient-32)"/><path d="M281.16,600.94a31.89,31.89,0,0,0-2,11.49,17.25,17.25,0,0,0,16.47,16.88l74.4,3.4a3.55,3.55,0,0,1,3.29,2.68c1.75,6.76,10.3,27.53,52.07,69a3.37,3.37,0,0,0,4.17.45l6-3.75a1.38,1.38,0,0,0,.45-1.85l-43.33-74a16.75,16.75,0,0,0-10.18-7.56l-63.42-16.21Z" transform="translate(-114.93 -76.71)" style="fill:url(#linear-gradient-33)"/><path d="M367.47,487s-21,12.43-29.09,19.26l16.8,9.37s9.08-10.49,17.72-14.85Z" transform="translate(-114.93 -76.71)" style="fill:url(#linear-gradient-34)"/><path d="M279.8,601.46s20.09,4.9,39.26,0c0,0,26.83-36.06,37.21-45.88,0,0,16.55,26.13,53.4,29.83l2.06-4.59s-29.34-13.52-38.37-34.3-12.66-29.64-20.87-35.07c-5.12-3.37-8.18-5.68-9.77-6.94a2.62,2.62,0,0,0-3-.19C331,509.63,290,537.73,279.8,601.46Z" transform="translate(-114.93 -76.71)" style="fill:url(#linear-gradient-35)"/><path d="M355.18,554.79a1,1,0,0,1-.79-.39,80.19,80.19,0,0,1-10.07-17.85,1,1,0,0,1,.57-1.29,1,1,0,0,1,1.3.57A79.29,79.29,0,0,0,356,553.18a1,1,0,0,1-.18,1.4A1,1,0,0,1,355.18,554.79Z" transform="translate(-114.93 -76.71)" style="fill:#f2bd4a"/><path d="M407.46,578.42l4.15-1.11,12.59-2.91a5.89,5.89,0,0,1,4.43.74L439.45,582l-29.9-.05Z" transform="translate(-114.93 -76.71)" style="fill:url(#linear-gradient-36)"/><path d="M387.93,477.92c.06.41-5.37,27-5.37,27l-15.12-3.42,1.4-26S387,471.12,387.93,477.92Z" transform="translate(-114.93 -76.71)" style="fill:url(#linear-gradient-37)"/><path d="M372.24,481.32l-1.8,13.61a1.51,1.51,0,0,0,0,.52c.15,1.07.95,4.7,4.61,3.66,3.33-.94,6.38-1.75,8.49-1.11a1.93,1.93,0,0,1,1.32,2.22,83.83,83.83,0,0,1-3.48,12.39,1.92,1.92,0,0,1-2.33,1.13,61.81,61.81,0,0,1-13.32-5.45,1.92,1.92,0,0,1-.94-1.73c.15-3.43.55-13.88.21-16.81-.32-2.75-3.69-4.39-5.15-5a1.89,1.89,0,0,1-1.05-1.06c-.68-1.7-1.62-5.63,3.34-7.25a1.91,1.91,0,0,0,1.22-2.48c-.74-2-1.05-5.17,2.79-6.88s6.81.33,8.38,2a1.93,1.93,0,0,0,2.45.28,1.54,1.54,0,0,1,1.73.06,1.88,1.88,0,0,0,2.67-.81,5.73,5.73,0,0,1,6.66-3.31c6.77,1.16,7.54,8.66,5.75,13.06s-9.06,2.73-12.71.51c-2.77-1.69-6.37.08-7.94,1A1.93,1.93,0,0,0,372.24,481.32Z" transform="translate(-114.93 -76.71)" style="fill:url(#linear-gradient-38)"/><path d="M364.39,494.71s2.79-7.79-.07-9.7-7.1-.92-6.17,4.73C359.31,496.76,364.39,494.71,364.39,494.71Z" transform="translate(-114.93 -76.71)" style="fill:url(#linear-gradient-39)"/><path d="M395.91,587.82h.14l63.88-.07a2.86,2.86,0,1,0,0-5.71l-63.88.07a2.85,2.85,0,0,0-.14,5.7Z" transform="translate(-114.93 -76.71)" style="fill:url(#linear-gradient-40)"/><path d="M484.67,525.26l-.06.13-26.88,58a2.85,2.85,0,0,0,5.18,2.4l26.88-58a2.86,2.86,0,0,0-5.12-2.53Z" transform="translate(-114.93 -76.71)" style="fill:url(#linear-gradient-41)"/><path d="M424.35,591c-.28,1.16-26.93,101.13-33.69,126.47a4.55,4.55,0,1,0,8.79,2.31l29.59-120Z" transform="translate(-114.93 -76.71)" style="fill:url(#linear-gradient-42)"/><path d="M439,591c.28,1.16,26.93,101.13,33.69,126.47a4.55,4.55,0,1,1-8.79,2.31l-29.59-120Z" transform="translate(-114.93 -76.71)" style="fill:url(#linear-gradient-43)"/><path d="M440.06,587.76h-16.6v13.33a3.44,3.44,0,0,0,3.42,3.47h2.28v30a2.6,2.6,0,1,0,5.19,0v-30h1.16a4.58,4.58,0,0,0,4.55-4.6Z" transform="translate(-114.93 -76.71)" style="fill:url(#linear-gradient-44)"/><path d="M382.64,584.56h92.69a2.83,2.83,0,0,1,2.75,2.15l1.3,5.08a2.87,2.87,0,0,1-2.77,3.59l-95.11-.55a2.87,2.87,0,0,1-2.74-3.58l1.12-4.52A2.85,2.85,0,0,1,382.64,584.56Z" transform="translate(-114.93 -76.71)" style="fill:url(#linear-gradient-45)"/><path d="M756.65,719.92c1.19,0,2.15-.66,2.15-1.47v-175c0-.81-1-1.47-2.15-1.47s-2.16.66-2.16,1.47v175C754.49,719.26,755.46,719.92,756.65,719.92Z" transform="translate(-114.93 -76.71)" style="fill:url(#linear-gradient-46)"/><path d="M815.1,719.92c1.19,0,2.16-.66,2.16-1.47v-175c0-.81-1-1.47-2.16-1.47s-2.16.66-2.16,1.47v175C812.94,719.26,813.91,719.92,815.1,719.92Z" transform="translate(-114.93 -76.71)" style="fill:url(#linear-gradient-47)"/><path d="M958.71,721a3,3,0,0,0,.84-.12c1.1-.32,1.61-1.17,1.14-1.92L850.39,542.92a2.62,2.62,0,0,0-2.83-.77c-1.09.31-1.6,1.17-1.14,1.92l110.3,176.07A2.38,2.38,0,0,0,958.71,721Z" transform="translate(-114.93 -76.71)" style="fill:url(#linear-gradient-48)"/><path d="M890.58,721a3,3,0,0,0,.84-.12c1.1-.32,1.61-1.17,1.14-1.92L782.26,542.92a2.62,2.62,0,0,0-2.83-.77c-1.09.31-1.6,1.17-1.14,1.92l110.3,176.07A2.38,2.38,0,0,0,890.58,721Z" transform="translate(-114.93 -76.71)" style="fill:url(#linear-gradient-49)"/><path d="M752.32,545.11h103a2.07,2.07,0,1,0,0-4.13h-103a2.07,2.07,0,0,0,0,4.13Z" transform="translate(-114.93 -76.71)" style="fill:url(#linear-gradient-50)"/><path d="M796.94,571.88h68.33c1.19,0,2.16-.65,2.16-1.46s-1-1.47-2.16-1.47H796.94c-1.19,0-2.16.66-2.16,1.47S795.75,571.88,796.94,571.88Z" transform="translate(-114.93 -76.71)" style="fill:url(#linear-gradient-51)"/><rect x="702.98" y="525.54" width="68.33" height="2.93" style="fill:url(#linear-gradient-52)"/><rect x="723.28" y="558.84" width="68.33" height="2.93" style="fill:url(#linear-gradient-53)"/><path d="M859.49,671.78h68.33c1.2,0,2.16-.66,2.16-1.46s-1-1.47-2.16-1.47H859.49c-1.19,0-2.16.66-2.16,1.47S858.3,671.78,859.49,671.78Z" transform="translate(-114.93 -76.71)" style="fill:url(#linear-gradient-54)"/><path d="M880.07,705.08H948.4c1.2,0,2.16-.66,2.16-1.47s-1-1.46-2.16-1.46H880.07c-1.19,0-2.16.66-2.16,1.46S878.88,705.08,880.07,705.08Z" transform="translate(-114.93 -76.71)" style="fill:url(#linear-gradient-55)"/><path d="M425.23,140.07a1,1,0,0,1-.92-.93c-.1-5.21-1.72-31.09-24.52-36.5-25.37-6-37,19.78-37,19.78s-31.4-12-37.42,20.22c-19.69,4.72-24.8,30.43-12,43a11,11,0,0,0,7.61,3.15l123.29,1.12a8.13,8.13,0,0,0,7.86-5.81C456,171.09,461.05,140.91,425.23,140.07Z" transform="translate(-114.93 -76.71)" style="fill:url(#linear-gradient-56)"/><path d="M422.42,140.62a1,1,0,0,1-.93-.92c-.1-5-1.71-29-23.18-34-24-5.63-35,18.47-35,18.47S333.65,112.9,328,143c-18.44,4.37-23.36,28-11.69,39.81a11,11,0,0,0,7.75,3.29l116.06,1a8.13,8.13,0,0,0,7.86-5.83C451.56,169,455.85,141.42,422.42,140.62Z" transform="translate(-114.93 -76.71)" style="fill:url(#linear-gradient-57)"/><path d="M272.41,207.35a.57.57,0,0,1-.56-.56c-.06-3.15-1-18.78-14.8-22-15.33-3.64-22.34,11.94-22.34,11.94s-19-7.27-22.59,12.21c-11.89,2.85-15,18.38-7.24,26a6.57,6.57,0,0,0,4.59,1.9l74.44.67a4.91,4.91,0,0,0,4.75-3.5C291,226.08,294,207.86,272.41,207.35Z" transform="translate(-114.93 -76.71)" style="fill:url(#linear-gradient-58)"/><path d="M270.7,207.68a.56.56,0,0,1-.55-.56c-.07-3-1-17.51-14-20.54-14.49-3.4-21.12,11.15-21.12,11.15s-17.92-6.79-21.36,11.4c-11.13,2.64-14.1,16.88-7.06,24a6.65,6.65,0,0,0,4.68,2l70.08.62a4.88,4.88,0,0,0,4.74-3.51C288.3,224.8,290.89,208.17,270.7,207.68Z" transform="translate(-114.93 -76.71)" style="fill:url(#linear-gradient-59)"/><g style="opacity:0.8"><polygon points="443.48 405.73 469.59 446.29 456.53 446.29 462.98 504.29 426.82 504.29 433.7 446.3 417.17 444.36 443.48 405.73" style="fill:#fff"/><polygon points="504.51 490.34 478.41 451.29 491.47 451.29 485.01 393.29 521.18 393.29 514.29 449.77 530.82 451.71 504.51 490.34" style="fill:#fff"/><g style="opacity:0.64"><path d="M501.58,558a2.5,2.5,0,0,1-2.39-1.8c-.39-1.31-.75-2.64-1.08-4A2.5,2.5,0,0,1,503,551c.31,1.25.65,2.51,1,3.75a2.49,2.49,0,0,1-2.4,3.21Z" transform="translate(-114.93 -76.71)" style="fill:#fff"/><path d="M498.3,541.25a2.5,2.5,0,0,1-2.49-2.25c-.28-2.72-.45-5.48-.5-8.22a2.52,2.52,0,0,1,2.46-2.55,2.47,2.47,0,0,1,2.54,2.46c.05,2.6.21,5.22.48,7.8a2.5,2.5,0,0,1-2.23,2.74Zm.18-21h-.3a2.5,2.5,0,0,1-2.19-2.78c.32-2.72.77-5.46,1.32-8.13a2.5,2.5,0,0,1,4.9,1c-.53,2.53-.95,5.13-1.26,7.71A2.49,2.49,0,0,1,498.48,520.21Zm4.79-20.47a2.48,2.48,0,0,1-2.35-3.34c.92-2.57,2-5.14,3.1-7.63a2.5,2.5,0,0,1,4.55,2.08c-1.08,2.36-2.07,4.79-2.94,7.23A2.5,2.5,0,0,1,503.27,499.74Zm9.26-18.88a2.44,2.44,0,0,1-1.34-.4,2.5,2.5,0,0,1-.77-3.45c1.47-2.3,3.06-4.58,4.73-6.75a2.5,2.5,0,1,1,4,3c-1.58,2.06-3.09,4.22-4.48,6.4A2.51,2.51,0,0,1,512.53,480.86Zm13.23-16.36a2.5,2.5,0,0,1-1.76-4.28c2-1.92,4-3.78,6.1-5.53a2.5,2.5,0,0,1,3.2,3.84c-2,1.66-3.94,3.43-5.79,5.25A2.48,2.48,0,0,1,525.76,464.5Zm16.51-13a2.5,2.5,0,0,1-1.32-4.63c2.32-1.44,4.73-2.8,7.17-4.05a2.5,2.5,0,0,1,2.27,4.46c-2.31,1.18-4.6,2.47-6.8,3.84A2.46,2.46,0,0,1,542.27,451.48Zm88.47-5.81a2.48,2.48,0,0,1-1-.22c-2.36-1.07-4.8-2.05-7.25-2.92a2.5,2.5,0,1,1,1.66-4.71c2.58.91,5.16,1.94,7.65,3.07a2.5,2.5,0,0,1-1,4.78Zm-69.5-3.23a2.5,2.5,0,0,1-.81-4.87c2.59-.89,5.24-1.68,7.89-2.35a2.5,2.5,0,0,1,1.22,4.85c-2.51.63-5,1.38-7.48,2.23A2.62,2.62,0,0,1,561.24,442.44Zm49.48-3.23a2.72,2.72,0,0,1-.49,0c-2.54-.52-5.14-.93-7.72-1.23a2.5,2.5,0,1,1,.57-5c2.73.32,5.46.75,8.14,1.29a2.51,2.51,0,0,1-.5,5Zm-29-1.36a2.5,2.5,0,0,1-.27-5c2.72-.29,5.49-.47,8.23-.53a2.47,2.47,0,0,1,2.55,2.44,2.51,2.51,0,0,1-2.45,2.56c-2.59.05-5.22.22-7.79.5Z" transform="translate(-114.93 -76.71)" style="fill:#fff"/><path d="M645.6,454.11a2.54,2.54,0,0,1-1.43-.45c-1.06-.74-2.15-1.46-3.24-2.15a2.5,2.5,0,1,1,2.68-4.22c1.15.72,2.3,1.49,3.42,2.27a2.5,2.5,0,0,1-1.43,4.55Z" transform="translate(-114.93 -76.71)" style="fill:#fff"/></g><g style="opacity:0.64"><path d="M684.88,516.6a2.5,2.5,0,0,1-2.46-2.11c-.2-1.27-.44-2.56-.69-3.83a2.5,2.5,0,1,1,4.9-1c.27,1.33.51,2.69.73,4a2.51,2.51,0,0,1-2.08,2.86A2.69,2.69,0,0,1,684.88,516.6Z" transform="translate(-114.93 -76.71)" style="fill:#fff"/><path d="M592.05,625.57c-1,0-2.21,0-3.32-.06a2.5,2.5,0,0,1,.17-5c1.05,0,2.12,0,3.15.06,1.51,0,3,0,4.54-.12a2.5,2.5,0,0,1,.25,5C595.25,625.53,593.64,625.57,592.05,625.57Zm-16-1.35-.42,0c-2.66-.45-5.33-1-7.93-1.69a2.5,2.5,0,0,1,1.24-4.85c2.47.64,5,1.18,7.52,1.61a2.5,2.5,0,0,1-.41,5Zm33.39-.28a2.5,2.5,0,0,1-.46-5c2.51-.47,5-1.06,7.48-1.74a2.5,2.5,0,1,1,1.34,4.82c-2.59.72-5.25,1.34-7.89,1.84A2.56,2.56,0,0,1,609.45,623.94Zm-53.29-5.41a2.44,2.44,0,0,1-.95-.19c-2.49-1-5-2.16-7.37-3.39a2.5,2.5,0,0,1,2.28-4.45c2.28,1.17,4.63,2.25,7,3.22a2.5,2.5,0,0,1-1,4.81Zm73.06-.65a2.5,2.5,0,0,1-1-4.8c2.34-1,4.67-2.13,6.92-3.34a2.5,2.5,0,0,1,2.36,4.41c-2.37,1.27-4.83,2.46-7.3,3.52A2.45,2.45,0,0,1,629.22,617.88Zm18-10.25a2.5,2.5,0,0,1-1.47-4.52c2.07-1.51,4.1-3.11,6-4.78a2.5,2.5,0,0,1,3.27,3.79c-2,1.76-4.18,3.45-6.36,5A2.51,2.51,0,0,1,647.19,607.63Zm15.32-13.92a2.46,2.46,0,0,1-1.66-.63,2.5,2.5,0,0,1-.22-3.52c1.69-1.92,3.33-3.93,4.85-6a2.5,2.5,0,1,1,4,3c-1.61,2.16-3.33,4.28-5.11,6.3A2.47,2.47,0,0,1,662.51,593.71Zm11.91-16.92a2.51,2.51,0,0,1-2.19-3.71c1.24-2.24,2.39-4.55,3.42-6.88a2.5,2.5,0,1,1,4.57,2c-1.09,2.46-2.3,4.9-3.6,7.26A2.51,2.51,0,0,1,674.42,576.79Zm7.92-19.13a2.35,2.35,0,0,1-.69-.1,2.49,2.49,0,0,1-1.71-3.1c.71-2.44,1.32-5,1.82-7.46a2.5,2.5,0,1,1,4.9,1c-.53,2.64-1.17,5.29-1.92,7.87A2.49,2.49,0,0,1,682.34,557.66Zm3.53-20.39h-.16a2.5,2.5,0,0,1-2.34-2.65c.12-1.92.18-3.87.18-5.78,0-.64,0-1.28,0-1.91a2.5,2.5,0,0,1,5-.11c0,.67,0,1.35,0,2,0,2-.07,4.06-.19,6.09A2.5,2.5,0,0,1,685.87,537.27Z" transform="translate(-114.93 -76.71)" style="fill:#fff"/><path d="M537.94,608.56a2.47,2.47,0,0,1-1.43-.45c-1.12-.78-2.23-1.6-3.31-2.43a2.5,2.5,0,1,1,3-4c1,.78,2.08,1.55,3.14,2.3a2.5,2.5,0,0,1-1.44,4.54Z" transform="translate(-114.93 -76.71)" style="fill:#fff"/></g></g><path d="M411.9,149.37l17.29,240.49a17,17,0,0,0,17,15.75l280.34-1.91a17,17,0,0,0,16.84-16.41l7.53-235a17,17,0,0,0-16.75-17.5L429,131.19A17,17,0,0,0,411.9,149.37Z" transform="translate(-114.93 -76.71)" style="fill:url(#linear-gradient-60)"/><path d="M431.07,177.67l14.46,205a9.54,9.54,0,0,0,9.58,8.88l260.27-1.35a9.55,9.55,0,0,0,9.5-9.47l1.68-197.86a9.56,9.56,0,0,0-9.35-9.63L440.8,167.44A9.56,9.56,0,0,0,431.07,177.67Z" transform="translate(-114.93 -76.71)" style="fill:#fff;opacity:0.75"/><path d="M430.7,150.93a7.22,7.22,0,0,0,7.21,6.86l104.87-.09a7.21,7.21,0,0,0,7.21-7.22v-2.75a7.21,7.21,0,0,0-7.41-7.21l-104.87,2.84A7.21,7.21,0,0,0,430.7,150.93Z" transform="translate(-114.93 -76.71)" style="fill:#fff;opacity:0.75"/><path d="M530.74,178.75h1.7a2.69,2.69,0,0,1,2.69,2.64l3.51,202.23a2.69,2.69,0,0,1-5.37.12L528.06,181.5A2.68,2.68,0,0,1,530.74,178.75Z" transform="translate(-114.93 -76.71)" style="fill:url(#linear-gradient-61)"/><path d="M449.81,191.66l59.64.49a4.58,4.58,0,0,1-.07,9.15l-59.62-.39a4.57,4.57,0,0,1-4.42-3.53l0-.11A4.57,4.57,0,0,1,449.81,191.66Z" transform="translate(-114.93 -76.71)" style="fill:url(#linear-gradient-62)"/><path d="M464.54,208.8c11.47.29,35.07.65,44.94.79a4.57,4.57,0,0,1,4.51,4.57v.67a4.58,4.58,0,0,1-4.58,4.57H464.9a4.57,4.57,0,0,1-4.35-3.17l-.47-1.45A4.57,4.57,0,0,1,464.54,208.8Z" transform="translate(-114.93 -76.71)" style="fill:url(#linear-gradient-63)"/><path d="M463.57,228.75v.74a4.34,4.34,0,0,0,4.34,4.34h40.95a4.22,4.22,0,0,0,4.21-4.22,4.27,4.27,0,0,0-4.27-4.27H467A3.41,3.41,0,0,0,463.57,228.75Z" transform="translate(-114.93 -76.71)" style="fill:url(#linear-gradient-64)"/><path d="M796.33,526.62s.94,5.31,1.4,10.56a3.62,3.62,0,0,1-3.46,3.92c-7,.29-21.95.86-27.32.62a1.18,1.18,0,0,1-1-1.61,2.64,2.64,0,0,1,1.35-1.42L792,527.33Z" transform="translate(-114.93 -76.71)" style="fill:url(#linear-gradient-65)"/><path d="M797.1,523.51l-.75,6.34s-4.33,2-7.28-.25l1.79-7.07Z" transform="translate(-114.93 -76.71)" style="fill:url(#linear-gradient-66)"/><path d="M796.54,404.21c.32,1.66,1.74,82.69-6.92,119a1.23,1.23,0,0,0,.72,1.43,21.48,21.48,0,0,0,7.06,1.43,2.11,2.11,0,0,0,2.1-1.52c2.48-8.42,14.34-50.64,15.89-91,1.73-45.06,0-1.54,0-1.54l-1-27.85Z" transform="translate(-114.93 -76.71)" style="fill:url(#linear-gradient-67)"/><path d="M824.76,529.39s1.49,2.68,2.93,9.8a2.2,2.2,0,0,1-1.94,2.64c-2.31.23-5.86.52-8.71.5a2.2,2.2,0,0,1-2.18-2.46,18.67,18.67,0,0,1,4.33-10.18Z" transform="translate(-114.93 -76.71)" style="fill:url(#linear-gradient-68)"/><path d="M826.07,521.23l-1.76,9.6s-1.74,1.29-5.18.35l.84-10.32Z" transform="translate(-114.93 -76.71)" style="fill:url(#linear-gradient-69)"/><path d="M830.82,406.7c7.08,42.75-1.54,105.67-4.44,118a1.91,1.91,0,0,1-1.55,1.46,12.89,12.89,0,0,1-5.55-.22A1.76,1.76,0,0,1,818,524.3c-.39-10,.31-71.07-6.29-95.23a5.42,5.42,0,0,0-2.12-3l-12.81-9.11-1-14.73Z" transform="translate(-114.93 -76.71)" style="fill:url(#linear-gradient-70)"/><path d="M785.68,325.69c21.23-.35,44.65,5.57,44.65,5.57,6.33,36.93,1.11,79.52,1.11,79.52-16.43,4.31-35-2.64-35-2.64C793.73,392.71,781,349.27,781,349.27A69.92,69.92,0,0,1,755,341c5.37-6.22,7.9-14.14,9-18.82A71.27,71.27,0,0,0,785.68,325.69Z" transform="translate(-114.93 -76.71)" style="fill:url(#linear-gradient-71)"/><path d="M723,294.42a4.06,4.06,0,0,1,4.72-1.33c3.13,13.2,19.51,23.9,36.34,29.13-1.1,4.68-3.63,12.6-9,18.82C727.1,325.33,723,294.42,723,294.42Z" transform="translate(-114.93 -76.71)" style="fill:url(#linear-gradient-72)"/><path d="M723.48,295.06c-.22.69,2.3,1.75,3.79-1.09.05-1.36.88-7.18.07-8.29-4.33-5.9-12.72-13.3-12.72-13.3a2,2,0,0,0-.25,2.78l4.07,4.24a19.68,19.68,0,0,0-2.38,4.69,5.76,5.76,0,0,0,.57,4.2c.72,1.29,1.69,3,2.61,4.27A5.65,5.65,0,0,0,723.48,295.06Z" transform="translate(-114.93 -76.71)" style="fill:url(#linear-gradient-73)"/><path d="M720.22,282.15l3.71,3.14,1.16,3.13-3.3,3.67s-1.11-6.21-1.94-7.56S719.45,282.54,720.22,282.15Z" transform="translate(-114.93 -76.71)" style="fill:url(#linear-gradient-74)"/><path d="M822.19,351.82l8.14-20.56s19.83,13.48,23.1,30.56a47,47,0,0,0-17.24,4.62C834.72,358.37,822.19,351.82,822.19,351.82Z" transform="translate(-114.93 -76.71)" style="fill:url(#linear-gradient-75)"/><path d="M804.86,371.16s22.27,12.59,29.78,1.84a8.46,8.46,0,0,0,1.55-6.56,47,47,0,0,1,17.24-4.62A23.57,23.57,0,0,1,850.86,378c-13.16,24.08-48.94-1.33-48.94-1.33Z" transform="translate(-114.93 -76.71)" style="fill:url(#linear-gradient-76)"/><path d="M807.54,387.08l-12.15-42.43a1.25,1.25,0,0,0-1-.89c-2.2-.26-8.58-1-16-1.6-8.87-.75-19.17-1.36-25.33-.84a1.23,1.23,0,0,0-1,1.78c3.5,7.08,17.9,35.9,25.11,45.34a1.26,1.26,0,0,0,1,.49l28.2-.26A1.25,1.25,0,0,0,807.54,387.08Z" transform="translate(-114.93 -76.71)" style="fill:url(#linear-gradient-77)"/><path d="M777.13,338.48,768.32,337a.63.63,0,0,0-.7.82l.87,2.64a.64.64,0,0,0,.52.43l8.48,1.13a.63.63,0,0,0,.69-.77l-.54-2.3A.62.62,0,0,0,777.13,338.48Z" transform="translate(-114.93 -76.71)" style="fill:url(#linear-gradient-78)"/><path d="M783.73,345.94l-.73-3.78a.87.87,0,0,0-.77-.71l-17.79-1.8a.87.87,0,0,0-.94,1.07l1.13,4.71a.87.87,0,0,0,.81.67l17.39.87A.87.87,0,0,0,783.73,345.94Z" transform="translate(-114.93 -76.71)" style="fill:url(#linear-gradient-79)"/><path d="M804.6,376.83s1.69-7,1-9.43-2-5.64-6.41-4.94a64.69,64.69,0,0,0-9.61,2.57s.26,3.21,3.61,2.17l-2.08,1.61s.3,2.58,3.13,1.2l-1.93,2.13a2.24,2.24,0,0,0,3.29.76C797.7,371.55,798.7,377.67,804.6,376.83Z" transform="translate(-114.93 -76.71)" style="fill:url(#linear-gradient-80)"/><path d="M807.18,308.45,813.94,328a.71.71,0,0,1-.32.85c-1.84,1-8.48,4-16.47-1.11a3.34,3.34,0,0,1-1.53-2.37l-2.19-16.91Z" transform="translate(-114.93 -76.71)" style="fill:url(#linear-gradient-81)"/><path d="M792.49,290.36s-7.42,14-6.47,19.61,10.14,5.23,18.17.65l5.61-15.08Z" transform="translate(-114.93 -76.71)" style="fill:url(#linear-gradient-82)"/><path d="M803.84,303.22a.59.59,0,0,1-.26-.85,14.9,14.9,0,0,0,2.07-4.38s1.33-.85-3.4-2-11.77-2.89-13.26-6.91,2.36-13.79,8.41-5.93a.57.57,0,0,0,.91,0c1-1.29,3.61-4,7.23-2.34,3.39,1.52,3.77,4,3.73,5.25a.57.57,0,0,0,.68.59c1.71-.33,5.82-.61,7.74,3.61,1.59,3.48.56,5.45-.38,6.41a.57.57,0,0,0,.25.95c1.12.35,2.58,1.3,2.43,3.94-.2,3.65-4.28,3.33-5.44,3.16a.58.58,0,0,0-.51.19c-1,1.1-5.49,5.78-10.34,6.34a.58.58,0,0,1-.61-.76l2.1-6.11a.58.58,0,0,0-.31-.72Z" transform="translate(-114.93 -76.71)" style="fill:url(#linear-gradient-83)"/><path d="M803,304.08s5.28-3.62,5.67-.57-4.76,4.42-7.31,3.28Z" transform="translate(-114.93 -76.71)" style="fill:url(#linear-gradient-84)"/><path d="M612.08,304.77l-44.36-32.51,44.48-36.1a3,3,0,1,0-3.78-4.66l-47.5,38.55a3,3,0,0,0-1.11,2.41A3,3,0,0,0,561,274.8l47.5,34.81a3,3,0,1,0,3.54-4.84Z" transform="translate(-114.93 -76.71)" style="fill:url(#linear-gradient-85)"/><path d="M706.2,270.05,658.7,231.5a3,3,0,0,0-3.78,4.66l44.48,36.1L655,304.77a3,3,0,1,0,3.54,4.84l47.5-34.81a3,3,0,0,0,.12-4.75Z" transform="translate(-114.93 -76.71)" style="fill:url(#linear-gradient-86)"/><path d="M642,223a3,3,0,0,0-3.5,2.39l-17.55,93.24a3,3,0,0,0,2.4,3.5,3.07,3.07,0,0,0,1.09,0,3,3,0,0,0,2.41-2.4l17.54-93.24A3,3,0,0,0,642,223Z" transform="translate(-114.93 -76.71)" style="fill:url(#linear-gradient-87)"/><path d="M288.57,475l-2.76,1.08h0a.91.91,0,0,1-1.19-.52.93.93,0,0,1,.52-1.19l2.83-1.1a.91.91,0,0,1,.66,1.7Z" transform="translate(-114.93 -76.71)" style="fill:#e992ec"/><path d="M277.81,479.93l-2.56,1.49,0,0a.93.93,0,0,1-.94-1.61l2.63-1.52a.93.93,0,1,1,.93,1.61Z" transform="translate(-114.93 -76.71)" style="fill:#e992ec"/><path d="M267.9,486.44l-2.33,1.84,0,0a1,1,0,0,1-1.33-.16.94.94,0,0,1,.16-1.32l2.38-1.88a.94.94,0,0,1,1.16,1.48Z" transform="translate(-114.93 -76.71)" style="fill:#e992ec"/><path d="M259,494.24l-2.07,2.13,0,0a1,1,0,0,1-1.37-1.33l2.12-2.17a1,1,0,0,1,1.35,0,1,1,0,0,1,0,1.34Z" transform="translate(-114.93 -76.71)" style="fill:#e992ec"/><path d="M251.07,503.12l-1.81,2.36,0,0a1,1,0,0,1-1.36.18,1,1,0,0,1-.18-1.36l1.85-2.4a1,1,0,1,1,1.53,1.18Z" transform="translate(-114.93 -76.71)" style="fill:#e992ec"/><path d="M244.25,512.85l-1.53,2.55v0a1,1,0,1,1-1.69-1l1.57-2.59a1,1,0,1,1,1.67,1Z" transform="translate(-114.93 -76.71)" style="fill:#e992ec"/><path d="M238.54,523.28l-1.25,2.7v0a1,1,0,0,1-1.81-.83l1.28-2.75a1,1,0,0,1,1.8.84Z" transform="translate(-114.93 -76.71)" style="fill:#e992ec"/><path d="M234,534.26l-1,2.81v0a1,1,0,1,1-1.91-.65l1-2.86a1,1,0,1,1,1.9.65Z" transform="translate(-114.93 -76.71)" style="fill:#e992ec"/><path d="M230.55,545.65l-.66,2.89v0a1,1,0,1,1-2-.46l.68-3a1,1,0,0,1,2,.46Z" transform="translate(-114.93 -76.71)" style="fill:#e992ec"/><path d="M228.35,557.33l-.36,2.95v0a1,1,0,0,1-2.06-.25l.37-3a1,1,0,1,1,2,.25Z" transform="translate(-114.93 -76.71)" style="fill:#e992ec"/><path d="M227.41,569.17l0,3v0a1.05,1.05,0,0,1-2.1,0l0-3a1,1,0,0,1,1.06-1,1.06,1.06,0,0,1,1,1.06Z" transform="translate(-114.93 -76.71)" style="fill:#e992ec"/><path d="M227.78,581l.29,3v0a1.06,1.06,0,0,1-.95,1.16,1.05,1.05,0,0,1-1.16-1l-.29-3a1.05,1.05,0,1,1,2.1-.2Z" transform="translate(-114.93 -76.71)" style="fill:#e992ec"/><path d="M229.4,592.82l.59,2.91v0a1.08,1.08,0,1,1-2.11.43l-.59-3a1.07,1.07,0,0,1,2.1-.42Z" transform="translate(-114.93 -76.71)" style="fill:#e992ec"/><path d="M232.2,604.37l.88,2.84v0a1.09,1.09,0,0,1-2.08.64l-.89-2.89a1.09,1.09,0,0,1,2.08-.64Z" transform="translate(-114.93 -76.71)" style="fill:#e992ec"/><path d="M236.12,615.6l1.15,2.74v0a1.11,1.11,0,0,1-.59,1.45,1.1,1.1,0,0,1-1.44-.59l-1.17-2.8a1.1,1.1,0,1,1,2-.84Z" transform="translate(-114.93 -76.71)" style="fill:#e992ec"/><path d="M241.1,626.4l1.4,2.62,0,0a1.12,1.12,0,0,1-.46,1.51,1.11,1.11,0,0,1-1.51-.46l-1.42-2.67a1.11,1.11,0,1,1,2-1Z" transform="translate(-114.93 -76.71)" style="fill:#e992ec"/><path d="M247.07,636.68l1.65,2.48v0a1.13,1.13,0,0,1-1.88,1.25l-1.67-2.53a1.13,1.13,0,1,1,1.88-1.24Z" transform="translate(-114.93 -76.71)" style="fill:#e992ec"/><path d="M254,646.36l1.87,2.31,0,0a1.14,1.14,0,0,1-1.78,1.44l-1.9-2.37a1.14,1.14,0,1,1,1.78-1.42Z" transform="translate(-114.93 -76.71)" style="fill:#e992ec"/><path d="M261.77,655.34l2.08,2.12,0,0a1.16,1.16,0,1,1-1.65,1.62l-2.12-2.17a1.16,1.16,0,0,1,0-1.63,1.14,1.14,0,0,1,1.63,0Z" transform="translate(-114.93 -76.71)" style="fill:#e992ec"/><path d="M270.38,663.52l2.28,1.91,0,0a1.17,1.17,0,1,1-1.5,1.79l-2.32-2a1.17,1.17,0,0,1-.14-1.64,1.15,1.15,0,0,1,1.64-.14Z" transform="translate(-114.93 -76.71)" style="fill:#e992ec"/><path d="M279.77,670.8l2.46,1.67h0a1.2,1.2,0,0,1,.32,1.65,1.19,1.19,0,0,1-1.65.31l-2.5-1.7a1.18,1.18,0,1,1,1.32-2Z" transform="translate(-114.93 -76.71)" style="fill:#e992ec"/><path d="M289.85,677.05l2.63,1.39,0,0a1.19,1.19,0,1,1-1.12,2.11c-.89-.47-1.79-.93-2.67-1.42a1.19,1.19,0,0,1,1.13-2.1Z" transform="translate(-114.93 -76.71)" style="fill:#e992ec"/><path d="M300.55,682.19l2.76,1.11,0,0a1.21,1.21,0,1,1-.91,2.24l-2.81-1.14a1.21,1.21,0,0,1,.91-2.24Z" transform="translate(-114.93 -76.71)" style="fill:#e992ec"/><path d="M311.73,686.21l2.85.82h0a1.22,1.22,0,0,1-.68,2.35l-2.91-.85a1.22,1.22,0,1,1,.68-2.34Z" transform="translate(-114.93 -76.71)" style="fill:#e992ec"/><path d="M323.25,689.08l2.92.54h0a1.24,1.24,0,1,1-.45,2.43l-3-.56a1.23,1.23,0,0,1-1-1.43,1.24,1.24,0,0,1,1.44-1Z" transform="translate(-114.93 -76.71)" style="fill:#e992ec"/><path d="M335,690.81l3,.25h0a1.25,1.25,0,0,1-.22,2.49l-3-.27a1.24,1.24,0,1,1,.22-2.48Z" transform="translate(-114.93 -76.71)" style="fill:#e992ec"/><path d="M346.86,691.42l3,0h0a1.26,1.26,0,0,1,0,2.52l-3,0a1.26,1.26,0,0,1,0-2.52Z" transform="translate(-114.93 -76.71)" style="fill:#e992ec"/><path d="M358.73,690.94l3-.28h0a1.27,1.27,0,0,1,.24,2.53l-3,.29a1.27,1.27,0,1,1-.25-2.53Z" transform="translate(-114.93 -76.71)" style="fill:#e992ec"/><path d="M370.52,689.41l2.92-.55h0a1.27,1.27,0,0,1,.46,2.5l-3,.55a1.26,1.26,0,0,1-1.48-1,1.28,1.28,0,0,1,1-1.49Z" transform="translate(-114.93 -76.71)" style="fill:#e992ec"/><path d="M382.12,686.85l2.87-.8h0a1.28,1.28,0,0,1,.69,2.46l-2.92.81a1.28,1.28,0,0,1-.68-2.46Z" transform="translate(-114.93 -76.71)" style="fill:#e992ec"/><path d="M393.47,683.29l2.78-1h0a1.28,1.28,0,0,1,.89,2.4l-2.84,1.06a1.28,1.28,0,0,1-.89-2.4Z" transform="translate(-114.93 -76.71)" style="fill:#e992ec"/><path d="M404.46,678.77l2.69-1.27h0a1.28,1.28,0,1,1,1.1,2.31l-2.74,1.3a1.28,1.28,0,0,1-1.09-2.32Z" transform="translate(-114.93 -76.71)" style="fill:#e992ec"/><path d="M415.06,673.36l2.58-1.48h0a1.28,1.28,0,1,1,1.27,2.23l-2.62,1.5a1.28,1.28,0,0,1-1.27-2.23Z" transform="translate(-114.93 -76.71)" style="fill:#e992ec"/><path d="M425.24,667.18l2.47-1.65h0a1.29,1.29,0,1,1,1.43,2.14l-2.51,1.68a1.29,1.29,0,0,1-1.43-2.15Z" transform="translate(-114.93 -76.71)" style="fill:#e992ec"/><path d="M435,660.33l2.37-1.8h0a1.29,1.29,0,1,1,1.57,2.05l-2.41,1.83a1.29,1.29,0,0,1-1.56-2Z" transform="translate(-114.93 -76.71)" style="fill:#e992ec"/><path d="M444.32,652.91l2.27-1.93h0a1.29,1.29,0,0,1,1.82.14,1.3,1.3,0,0,1-.15,1.83L446,654.89a1.29,1.29,0,1,1-1.68-2Z" transform="translate(-114.93 -76.71)" style="fill:#e992ec"/><path d="M453.27,645l2.18-2h0a1.29,1.29,0,1,1,1.77,1.89l-2.2,2.06a1.29,1.29,0,0,1-1.77-1.89Z" transform="translate(-114.93 -76.71)" style="fill:#e992ec"/><path d="M461.86,636.71l2.1-2.13h0a1.3,1.3,0,1,1,1.85,1.82l-2.12,2.14a1.3,1.3,0,1,1-1.85-1.82Z" transform="translate(-114.93 -76.71)" style="fill:#e992ec"/><path d="M470.15,628.09l2-2.19h0a1.3,1.3,0,0,1,1.91,1.77l-2,2.21a1.31,1.31,0,0,1-1.92-1.77Z" transform="translate(-114.93 -76.71)" style="fill:#e992ec"/><path d="M478.18,619.23l2-2.25a1.31,1.31,0,0,1,1.84-.13,1.29,1.29,0,0,1,.12,1.84l-2,2.26a1.3,1.3,0,0,1-2-1.72Z" transform="translate(-114.93 -76.71)" style="fill:#e992ec"/><path d="M486,610.17l1.93-2.29a1.31,1.31,0,0,1,2,1.68l-1.94,2.3a1.31,1.31,0,0,1-2-1.69Z" transform="translate(-114.93 -76.71)" style="fill:#e992ec"/><path d="M493.69,601l1.9-2.32a1.31,1.31,0,0,1,2,1.66l-1.91,2.33a1.31,1.31,0,1,1-2-1.67Z" transform="translate(-114.93 -76.71)" style="fill:#e992ec"/><path d="M501.27,591.68l1.88-2.33a1.31,1.31,0,0,1,1.85-.2,1.33,1.33,0,0,1,.2,1.85l-1.89,2.33a1.31,1.31,0,1,1-2-1.65Z" transform="translate(-114.93 -76.71)" style="fill:#e992ec"/><path d="M508.8,582.34l1.88-2.34a1.32,1.32,0,1,1,2.05,1.65L510.85,584a1.32,1.32,0,0,1-2.05-1.65Z" transform="translate(-114.93 -76.71)" style="fill:#e992ec"/><path d="M516.33,573l1.89-2.33a1.32,1.32,0,0,1,2,1.66l-1.89,2.33a1.32,1.32,0,1,1-2-1.66Z" transform="translate(-114.93 -76.71)" style="fill:#e992ec"/><path d="M523.92,563.68l1.91-2.31a1.32,1.32,0,1,1,2,1.68L526,565.36a1.32,1.32,0,1,1-2-1.68Z" transform="translate(-114.93 -76.71)" style="fill:#e992ec"/><path d="M531.61,554.45l1.95-2.29a1.33,1.33,0,0,1,2,1.72l-1.94,2.28a1.33,1.33,0,1,1-2-1.71Z" transform="translate(-114.93 -76.71)" style="fill:#e992ec"/><path d="M539.46,545.34l2-2.25a1.33,1.33,0,0,1,2,1.76l-2,2.25a1.33,1.33,0,1,1-2-1.76Z" transform="translate(-114.93 -76.71)" style="fill:#e992ec"/><path d="M547.52,536.41l2.06-2.2a1.33,1.33,0,0,1,1.95,1.81h0l-2,2.19h0a1.33,1.33,0,0,1-2-1.81Z" transform="translate(-114.93 -76.71)" style="fill:#e992ec"/><path d="M555.84,527.7l2.13-2.13a1.33,1.33,0,1,1,1.89,1.88h0l-2.11,2.12h0a1.33,1.33,0,1,1-1.89-1.88Z" transform="translate(-114.93 -76.71)" style="fill:#e992ec"/><path d="M564.47,519.28l2.21-2a1.34,1.34,0,0,1,1.82,2h0l-2.19,2h0a1.34,1.34,0,0,1-1.82-2Z" transform="translate(-114.93 -76.71)" style="fill:#e992ec"/><path d="M573.45,511.23l2.3-2a1.35,1.35,0,0,1,1.89.16,1.34,1.34,0,0,1-.16,1.89h0l-2.28,1.93h0a1.34,1.34,0,0,1-1.73-2Z" transform="translate(-114.93 -76.71)" style="fill:#e992ec"/><path d="M582.81,503.62l2.41-1.82a1.34,1.34,0,1,1,1.62,2.14h0l-2.38,1.8h0a1.34,1.34,0,1,1-1.62-2.14Z" transform="translate(-114.93 -76.71)" style="fill:#e992ec"/><path d="M592.61,496.55l2.52-1.67a1.35,1.35,0,0,1,1.49,2.24h0l-2.48,1.65h0a1.35,1.35,0,1,1-1.49-2.24Z" transform="translate(-114.93 -76.71)" style="fill:#e992ec"/><path d="M602.82,490.09l2.61-1.51a1.35,1.35,0,1,1,1.36,2.33h0l-2.58,1.5h0a1.35,1.35,0,1,1-1.36-2.34Z" transform="translate(-114.93 -76.71)" style="fill:#e992ec"/><path d="M613.4,484.26l2.7-1.36a1.35,1.35,0,1,1,1.21,2.42h0l-2.67,1.34h0a1.35,1.35,0,0,1-1.21-2.42Z" transform="translate(-114.93 -76.71)" style="fill:#e992ec"/><path d="M624.31,479.08l2.77-1.2a1.36,1.36,0,1,1,1.08,2.5h0l-2.74,1.18h0a1.36,1.36,0,0,1-1.07-2.49Z" transform="translate(-114.93 -76.71)" style="fill:#e992ec"/><path d="M635.51,474.55l2.84-1a1.36,1.36,0,0,1,.92,2.56h0l-2.8,1h0a1.37,1.37,0,0,1-1.74-.82A1.36,1.36,0,0,1,635.51,474.55Z" transform="translate(-114.93 -76.71)" style="fill:#e992ec"/><path d="M647,470.69l2.9-.86a1.36,1.36,0,1,1,.77,2.61h0l-2.85.85h0a1.38,1.38,0,0,1-1.7-.92A1.36,1.36,0,0,1,647,470.69Z" transform="translate(-114.93 -76.71)" style="fill:#e992ec"/><path d="M658.6,467.51l2.94-.69a1.36,1.36,0,0,1,.63,2.65h0l-2.9.68h0a1.36,1.36,0,0,1-.63-2.65Z" transform="translate(-114.93 -76.71)" style="fill:#e992ec"/><path d="M670.42,465l3-.52a1.37,1.37,0,1,1,.47,2.7h0l-2.93.51h0a1.37,1.37,0,0,1-.47-2.7Z" transform="translate(-114.93 -76.71)" style="fill:#e992ec"/><path d="M682.36,463.19l3-.35a1.37,1.37,0,1,1,.31,2.73h0l-3,.34h0a1.37,1.37,0,1,1-.31-2.72Z" transform="translate(-114.93 -76.71)" style="fill:#e992ec"/><path d="M694.38,462.06l3-.17a1.37,1.37,0,1,1,.16,2.74h0l-3,.17h0a1.37,1.37,0,1,1-.16-2.74Z" transform="translate(-114.93 -76.71)" style="fill:#e992ec"/><path d="M706.45,461.63h3a1.38,1.38,0,1,1,0,2.75h-3a1.38,1.38,0,0,1,0-2.75Z" transform="translate(-114.93 -76.71)" style="fill:#e992ec"/><path d="M718.53,461.89l3,.17a1.38,1.38,0,1,1-.16,2.76h0l-3-.18h0a1.38,1.38,0,1,1,.16-2.75Z" transform="translate(-114.93 -76.71)" style="fill:#e992ec"/><path d="M730.57,462.84l3,.35a1.38,1.38,0,0,1-.32,2.75h0l-3-.35h0a1.38,1.38,0,1,1,.32-2.75Z" transform="translate(-114.93 -76.71)" style="fill:#e992ec"/><path d="M742.53,464.5l3,.52a1.39,1.39,0,0,1-.48,2.73h0l-2.94-.52h0a1.39,1.39,0,0,1,.48-2.73Z" transform="translate(-114.93 -76.71)" style="fill:#e992ec"/><path d="M754.38,466.84l2.94.7a1.39,1.39,0,1,1-.64,2.7h0l-2.9-.69h0a1.39,1.39,0,0,1,.64-2.71Z" transform="translate(-114.93 -76.71)" style="fill:#e992ec"/><path d="M766.07,469.88l2.89.87a1.39,1.39,0,1,1-.8,2.67h0l-2.85-.85h0a1.39,1.39,0,0,1,.8-2.67Z" transform="translate(-114.93 -76.71)" style="fill:#e992ec"/><path d="M777.56,473.61l2.84,1a1.41,1.41,0,0,1,.83,1.79,1.39,1.39,0,0,1-1.79.83h0l-2.8-1h0a1.4,1.4,0,1,1,1-2.62Z" transform="translate(-114.93 -76.71)" style="fill:#e992ec"/><path d="M788.81,478l2.77,1.21a1.4,1.4,0,0,1-1.12,2.57h0l-2.73-1.2h0a1.4,1.4,0,0,1,1.12-2.57Z" transform="translate(-114.93 -76.71)" style="fill:#e992ec"/><path d="M799.77,483.11l2.69,1.37a1.4,1.4,0,0,1-1.27,2.5h0l-2.66-1.36h0a1.4,1.4,0,0,1,1.28-2.49Z" transform="translate(-114.93 -76.71)" style="fill:#e992ec"/><path d="M810.4,488.85l2.6,1.54a1.41,1.41,0,1,1-1.43,2.42h0L809,491.28h0a1.41,1.41,0,0,1,1.43-2.42Z" transform="translate(-114.93 -76.71)" style="fill:#e992ec"/><path d="M820.66,495.24l2.5,1.7a1.41,1.41,0,1,1-1.58,2.33h0l-2.46-1.68h0a1.41,1.41,0,0,1,1.58-2.33Z" transform="translate(-114.93 -76.71)" style="fill:#e992ec"/><path d="M830.52,502.19l2.42,1.8a1.42,1.42,0,0,1-1.69,2.27h0l-2.39-1.79h0a1.41,1.41,0,0,1,1.68-2.27Z" transform="translate(-114.93 -76.71)" style="fill:#e992ec"/><path d="M840.11,509.47l2.37,1.85a1.41,1.41,0,0,1-1.74,2.23l-2.37-1.85a1.41,1.41,0,1,1,1.74-2.23Z" transform="translate(-114.93 -76.71)" style="fill:#e992ec"/><path d="M849.56,516.88l2.35,1.85a1.41,1.41,0,1,1-1.74,2.23l-2.36-1.85a1.42,1.42,0,0,1,1.75-2.23Z" transform="translate(-114.93 -76.71)" style="fill:#e992ec"/><path d="M859,524.24l2.39,1.81h0a1.42,1.42,0,0,1-1.72,2.26l-2.39-1.82a1.42,1.42,0,1,1,1.72-2.26Z" transform="translate(-114.93 -76.71)" style="fill:#e992ec"/><path d="M868.61,531.36l2.44,1.72h0a1.42,1.42,0,1,1-1.64,2.32L867,533.67a1.42,1.42,0,0,1,1.64-2.32Z" transform="translate(-114.93 -76.71)" style="fill:#e992ec"/><path d="M878.49,538l2.52,1.57h0a1.44,1.44,0,0,1,.45,2,1.41,1.41,0,0,1-2,.45l-2.57-1.6a1.43,1.43,0,0,1,1.51-2.42Z" transform="translate(-114.93 -76.71)" style="fill:#e992ec"/><path d="M888.76,544l2.63,1.35,0,0a1.43,1.43,0,1,1-1.31,2.54l-2.7-1.38a1.43,1.43,0,1,1,1.31-2.54Z" transform="translate(-114.93 -76.71)" style="fill:#e992ec"/><path d="M899.5,549l2.76,1,0,0a1.43,1.43,0,0,1-1,2.68l-2.85-1.08a1.43,1.43,0,1,1,1-2.68Z" transform="translate(-114.93 -76.71)" style="fill:#e992ec"/><path d="M910.73,552.61l2.87.65h0a1.44,1.44,0,1,1-.63,2.8l-3-.67a1.44,1.44,0,0,1,.64-2.8Z" transform="translate(-114.93 -76.71)" style="fill:#e992ec"/><path d="M922.33,554.52c1,.08,2,.12,2.93.18h.07a1.44,1.44,0,1,1-.18,2.87c-1-.06-2-.1-3.06-.18a1.44,1.44,0,0,1,.24-2.87Z" transform="translate(-114.93 -76.71)" style="fill:#e992ec"/><path d="M934.06,554.43l2.91-.35H937a1.46,1.46,0,0,1,1.61,1.26,1.44,1.44,0,0,1-1.26,1.6l-3,.37a1.44,1.44,0,0,1-1.6-1.26,1.43,1.43,0,0,1,1.25-1.6Z" transform="translate(-114.93 -76.71)" style="fill:#e992ec"/><path d="M945.59,552.27l2.82-.84h.06a1.44,1.44,0,0,1,.82,2.76l-2.93.88a1.44,1.44,0,0,1-.82-2.77Z" transform="translate(-114.93 -76.71)" style="fill:#e992ec"/><path d="M956.65,548.25,959.3,547l.05,0a1.45,1.45,0,1,1,1.25,2.61l-2.76,1.31a1.44,1.44,0,1,1-1.24-2.61Z" transform="translate(-114.93 -76.71)" style="fill:#e992ec"/><path d="M967,542.61l2.46-1.63,0,0a1.45,1.45,0,1,1,1.6,2.42l-2.54,1.68a1.45,1.45,0,1,1-1.6-2.41Z" transform="translate(-114.93 -76.71)" style="fill:#e992ec"/><path d="M976.5,535.61l2.23-1.93,0,0a1.45,1.45,0,1,1,1.9,2.19l-2.3,2a1.45,1.45,0,0,1-1.9-2.2Z" transform="translate(-114.93 -76.71)" style="fill:#e992ec"/><path d="M985.07,527.48l2-2.19,0,0a1.45,1.45,0,0,1,2.15,2l-2,2.25a1.46,1.46,0,0,1-2.16-2Z" transform="translate(-114.93 -76.71)" style="fill:#e992ec"/><path d="M992.63,518.38l1.73-2.4,0,0a1.46,1.46,0,1,1,2.37,1.7L995,520.12a1.46,1.46,0,0,1-2.37-1.7Z" transform="translate(-114.93 -76.71)" style="fill:#e992ec"/><path d="M999.12,508.49l1.45-2.58,0,0a1.46,1.46,0,0,1,2.55,1.42l-1.49,2.66a1.46,1.46,0,0,1-2.55-1.43Z" transform="translate(-114.93 -76.71)" style="fill:#e992ec"/><path d="M1004.47,497.94l1.14-2.73,0,0a1.47,1.47,0,0,1,2.7,1.14l-1.18,2.8a1.46,1.46,0,0,1-2.7-1.13Z" transform="translate(-114.93 -76.71)" style="fill:#e992ec"/><path d="M1008.57,486.85l.83-2.84v0a1.47,1.47,0,1,1,2.82.82l-.85,2.92a1.47,1.47,0,1,1-2.82-.82Z" transform="translate(-114.93 -76.71)" style="fill:#e992ec"/><path d="M1011.42,475.36l.53-2.92v0a1.48,1.48,0,0,1,1.71-1.18,1.47,1.47,0,0,1,1.18,1.71l-.54,3a1.47,1.47,0,1,1-2.89-.53Z" transform="translate(-114.93 -76.71)" style="fill:#e992ec"/><path d="M1013.12,463.62l.25-2.95v0a1.47,1.47,0,1,1,2.93.25l-.25,3a1.48,1.48,0,0,1-2.94-.25Z" transform="translate(-114.93 -76.71)" style="fill:#e992ec"/><path d="M1013.72,451.78l0-3v0a1.48,1.48,0,0,1,1.47-1.49,1.47,1.47,0,0,1,1.48,1.47l0,3a1.48,1.48,0,1,1-2.95,0Z" transform="translate(-114.93 -76.71)" style="fill:#e992ec"/><path d="M1013.27,439.92l-.27-3v0a1.48,1.48,0,1,1,3-.27l.27,3a1.48,1.48,0,0,1-2.94.27Z" transform="translate(-114.93 -76.71)" style="fill:#e992ec"/><path d="M1011.82,428.13l-.51-2.93v0a1.48,1.48,0,0,1,2.92-.51l.52,3a1.48,1.48,0,0,1-2.92.51Z" transform="translate(-114.93 -76.71)" style="fill:#e992ec"/><path d="M1009.45,416.49l-.74-2.89v0a1.47,1.47,0,0,1,1.07-1.81,1.5,1.5,0,0,1,1.81,1.07l.74,2.94a1.49,1.49,0,1,1-2.88.73Z" transform="translate(-114.93 -76.71)" style="fill:#e992ec"/><path d="M1006.19,405.05l-.94-2.82v0a1.49,1.49,0,1,1,2.82-.95l1,2.87a1.49,1.49,0,1,1-2.82.95Z" transform="translate(-114.93 -76.71)" style="fill:#e992ec"/><path d="M1002.1,393.89l-1.15-2.74v0a1.5,1.5,0,0,1,2.76-1.15l1.16,2.79a1.49,1.49,0,1,1-2.75,1.15Z" transform="translate(-114.93 -76.71)" style="fill:#e992ec"/><path d="M997.22,383.05l-1.34-2.65,0,0a1.5,1.5,0,0,1,2.67-1.35l1.37,2.7a1.5,1.5,0,0,1-2.67,1.35Z" transform="translate(-114.93 -76.71)" style="fill:#e992ec"/><path d="M991.56,372.59,990,370v0a1.5,1.5,0,1,1,2.57-1.55l1.56,2.6a1.5,1.5,0,0,1-2.57,1.54Z" transform="translate(-114.93 -76.71)" style="fill:#e992ec"/><path d="M985.17,362.57l-1.72-2.41,0,0a1.49,1.49,0,1,1,2.43-1.73l1.77,2.46a1.5,1.5,0,0,1-2.43,1.75Z" transform="translate(-114.93 -76.71)" style="fill:#e992ec"/><path d="M978,353.13l-1.91-2.28v0a1.47,1.47,0,0,1,2.24-1.89l2,2.31a1.47,1.47,0,1,1-2.25,1.9Z" transform="translate(-114.93 -76.71)" style="fill:#e992ec"/><path d="M970.12,344.17l-2-2.18h0a1.45,1.45,0,0,1,2.11-2l2.07,2.2a1.45,1.45,0,1,1-2.11,2Z" transform="translate(-114.93 -76.71)" style="fill:#e992ec"/><path d="M961.83,335.58l-2.13-2.1h0a1.41,1.41,0,1,1,2-2l2.16,2.1a1.43,1.43,0,1,1-2,2Z" transform="translate(-114.93 -76.71)" style="fill:#e992ec"/><path d="M953.22,327.29l-2.2-2h0a1.39,1.39,0,0,1,1.88-2.05l2.22,2a1.4,1.4,0,1,1-1.89,2.06Z" transform="translate(-114.93 -76.71)" style="fill:#e992ec"/><path d="M944.35,319.26l-2.25-2h0a1.37,1.37,0,0,1,1.8-2.07l2.27,2a1.37,1.37,0,1,1-1.8,2.07Z" transform="translate(-114.93 -76.71)" style="fill:#e992ec"/><path d="M935.28,311.46l-2.3-1.92h0a1.33,1.33,0,0,1-.17-1.86,1.31,1.31,0,0,1,1.84-.17l2.33,1.9a1.34,1.34,0,1,1-1.69,2.07h0Z" transform="translate(-114.93 -76.71)" style="fill:#e992ec"/><path d="M926,303.86,923.69,302a1.24,1.24,0,0,1-.2-1.75,1.26,1.26,0,0,1,1.74-.21l2.37,1.85a1.26,1.26,0,1,1-1.55,2h0Z" transform="translate(-114.93 -76.71)" style="fill:#e992ec"/><path d="M916.61,296.48l-2.38-1.82a1.17,1.17,0,0,1,1.4-1.88l2.42,1.79a1.19,1.19,0,0,1-1.42,1.92h0Z" transform="translate(-114.93 -76.71)" style="fill:#e992ec"/><path d="M907,289.31l-2.42-1.75a1.12,1.12,0,0,1-.25-1.55,1.1,1.1,0,0,1,1.53-.25l2.45,1.73a1.12,1.12,0,0,1-1.29,1.84h0Z" transform="translate(-114.93 -76.71)" style="fill:#e992ec"/><path d="M897.25,282.39l-2.46-1.7h0a1,1,0,0,1,1.13-1.68l2.51,1.66a1,1,0,1,1-1.15,1.74h0Z" transform="translate(-114.93 -76.71)" style="fill:#e992ec"/><path d="M887.32,275.7l-2.52-1.62h0a.9.9,0,0,1,1-1.52l2.56,1.58a.93.93,0,0,1-1,1.58h0Z" transform="translate(-114.93 -76.71)" style="fill:#e992ec"/><path d="M877.17,269.36l-2.58-1.52h0a.78.78,0,0,1-.28-1.07.79.79,0,0,1,1.06-.29L878,268a.81.81,0,1,1-.8,1.42h0Z" transform="translate(-114.93 -76.71)" style="fill:#e992ec"/><path d="M866.76,263.46l-2.65-1.37h0a.64.64,0,0,1,.57-1.14l2.71,1.32a.66.66,0,0,1,.31.9.67.67,0,0,1-.9.32h0Z" transform="translate(-114.93 -76.71)" style="fill:#e992ec"/><polygon points="743.17 162.77 739.42 178.29 730.52 169.08 743.17 162.77" style="fill:url(#linear-gradient-88)"/><path d="M790.45,213.73l33,46.88a4.05,4.05,0,0,0,5.76.88l45.82-34.94a1.62,1.62,0,0,0-.79-2.9Z" transform="translate(-114.93 -76.71)" style="fill:url(#linear-gradient-89)"/><polygon points="743.16 162.77 675.53 137.01 735.79 168.43 734.93 172.78 743.16 162.77" style="fill:url(#linear-gradient-90)"/><polygon points="731.39 171.76 739.42 178.29 735.79 168.43 731.39 171.76" style="fill:url(#linear-gradient-91)"/></svg>