<?xml version="1.0" standalone="no"?>
<!DOCTYPE svg PUBLIC "-//W3C//DTD SVG 20010904//EN"
 "http://www.w3.org/TR/2001/REC-SVG-20010904/DTD/svg10.dtd">
<svg version="1.0" xmlns="http://www.w3.org/2000/svg"
 width="784.000000pt" height="784.000000pt" viewBox="0 0 784.000000 784.000000"
 preserveAspectRatio="xMidYMid meet">
<metadata>
Created by potrace 1.11, written by Peter Selinger 2001-2013
</metadata>
<g transform="translate(0.000000,784.000000) scale(0.100000,-0.100000)"
fill="#000000" stroke="none">
<path d="M3837 7603 c-43 -65 -82 -123 -87 -130 -6 -7 -10 -14 -10 -16 0 -3
-20 -38 -45 -79 -25 -42 -45 -80 -45 -86 0 -6 -6 -17 -12 -24 -12 -12 -81
-148 -126 -248 -60 -133 -80 -180 -76 -180 2 0 -5 -19 -17 -41 -11 -23 -22
-49 -24 -58 -2 -9 -20 -61 -40 -116 -48 -134 -129 -415 -149 -520 -2 -11 -11
-50 -20 -88 -9 -37 -18 -86 -21 -108 -3 -23 -7 -45 -10 -49 -3 -4 -7 -25 -9
-46 -3 -22 -7 -48 -9 -59 -5 -23 -19 -110 -23 -140 -1 -11 -5 -45 -8 -75 -4
-30 -9 -66 -11 -80 -4 -22 -8 -68 -20 -235 -22 -287 -22 -679 0 -975 2 -25 6
-81 10 -125 l6 -80 -24 65 c-13 36 -37 92 -52 125 -16 33 -29 62 -29 66 -3 20
-99 169 -106 164 -6 -4 -19 -23 -30 -43 -66 -119 -81 -150 -106 -210 -15 -37
-31 -71 -34 -77 -4 -5 -11 -23 -15 -40 -10 -37 -9 -34 -24 -69 -6 -16 -13 -38
-16 -50 -2 -11 -4 -21 -5 -21 -2 0 -4 -7 -31 -115 -11 -47 -22 -96 -25 -110
-2 -14 -8 -52 -14 -85 -6 -33 -12 -73 -15 -90 -25 -144 -26 -669 -1 -795 3
-14 8 -50 11 -80 8 -64 12 -93 20 -135 3 -16 7 -39 8 -50 10 -63 67 -298 77
-317 6 -10 10 -28 10 -40 0 -47 9 -50 156 -50 77 0 157 1 180 1 l41 1 22 83
c24 84 28 103 37 147 3 14 7 33 10 42 3 10 7 28 10 40 2 13 6 33 9 45 13 59
15 71 21 113 3 25 7 52 9 60 27 148 39 309 39 522 1 156 7 190 19 108 3 -19
12 -64 20 -100 18 -77 47 -207 53 -235 2 -11 6 -31 9 -45 3 -14 7 -34 9 -45 3
-11 14 -61 25 -111 19 -85 25 -108 38 -144 4 -8 7 -20 8 -26 2 -6 15 -50 31
-98 25 -78 31 -86 54 -87 27 0 740 0 826 1 47 0 53 3 62 28 24 63 86 269 89
295 2 16 8 38 14 49 9 16 8 19 -2 13 -8 -6 -10 -4 -4 4 9 15 34 114 40 158 2
17 9 51 15 75 7 23 14 50 15 58 26 122 58 266 60 268 1 1 2 -66 2 -150 0 -167
12 -369 29 -463 2 -16 7 -46 9 -65 5 -38 29 -166 40 -215 4 -16 8 -39 10 -50
1 -11 3 -20 4 -20 3 0 4 -6 14 -55 3 -14 15 -59 27 -100 12 -41 22 -81 22 -87
1 -7 5 -13 10 -14 11 -1 312 -1 338 0 24 1 38 44 106 341 7 31 9 42 28 155 20
122 27 180 32 245 3 30 7 80 9 110 5 64 6 352 1 425 -11 161 -48 388 -86 525
-11 41 -23 84 -25 94 -10 43 -89 243 -123 310 -50 102 -102 180 -112 170 -29
-31 -139 -254 -166 -337 -21 -62 -38 -77 -30 -24 16 91 29 389 29 652 0 301
-15 563 -49 815 -4 25 -8 55 -9 67 -3 25 -15 95 -21 128 -9 49 -17 102 -18
118 0 9 -4 17 -9 17 -4 0 -6 4 -3 8 3 5 1 24 -4 43 -5 19 -11 50 -14 69 -3 19
-12 60 -20 92 -9 31 -17 67 -20 80 -8 40 -47 182 -52 190 -3 5 -7 20 -10 34
-6 34 -88 279 -121 364 -4 8 -7 17 -8 20 0 3 -11 27 -23 54 -12 27 -22 51 -22
55 0 10 -63 143 -142 298 -75 149 -179 324 -255 431 -21 30 -42 60 -48 68 -8
11 -28 -13 -88 -103z m152 -1428 c95 -18 196 -100 239 -195 30 -65 40 -162 21
-217 -7 -21 -14 -40 -14 -43 0 -3 -9 -20 -19 -39 -31 -59 -88 -111 -156 -143
-55 -27 -77 -32 -141 -32 -43 0 -88 4 -100 11 -44 20 -84 35 -85 31 -1 -1 -25
21 -53 50 -70 72 -103 147 -106 240 -1 40 2 75 7 78 4 3 8 12 8 21 0 55 77
153 156 199 74 44 152 56 243 39z"/>
<path d="M7305 4689 c-16 -5 -39 -11 -50 -14 -11 -2 -81 -20 -155 -40 -74 -20
-142 -38 -150 -40 -8 -2 -42 -11 -75 -20 -59 -17 -126 -34 -155 -40 -8 -2 -16
-4 -17 -5 -2 -2 -6 -3 -10 -4 -50 -12 -48 -7 -46 -158 2 -192 13 -1556 18
-2204 l3 -521 -23 -50 c-23 -52 -67 -92 -120 -113 -23 -9 -487 -13 -1893 -15
-1025 -2 -1866 -6 -1869 -9 -3 -3 -14 -1 -25 5 -13 7 -23 7 -32 0 -7 -6 -15
-9 -17 -6 -5 4 -146 6 -505 5 -122 -1 -225 0 -230 1 -5 1 -11 1 -14 0 -3 -1
-134 -2 -292 -3 l-287 -1 -54 27 c-64 31 -103 81 -115 146 -4 25 -7 99 -6 165
3 132 15 1003 14 1023 0 6 0 20 0 30 0 9 0 33 -1 52 0 19 0 40 0 45 2 21 3
101 2 112 -1 9 -13 8 -50 -3 -45 -13 -256 -70 -291 -79 -8 -1 -51 -13 -95 -24
-44 -12 -90 -24 -102 -27 -12 -2 -35 -9 -50 -15 -16 -6 -28 -10 -28 -9 0 3
-61 -12 -81 -20 -20 -8 -21 -14 -21 -283 -1 -152 -3 -280 -6 -284 -3 -5 -2
-15 3 -23 4 -7 4 -24 -1 -37 -5 -12 -5 -23 -1 -23 8 0 8 -52 0 -66 -3 -5 -2
-18 2 -28 3 -11 4 -36 0 -56 -4 -20 -3 -45 0 -56 4 -10 5 -23 2 -28 -5 -9 -6
-124 -2 -136 1 -3 1 -9 0 -15 -5 -24 -2 -123 3 -132 4 -6 4 -13 0 -17 -10 -10
-9 -236 1 -236 5 0 4 -6 -1 -12 -11 -16 -10 -420 2 -468 9 -41 42 -92 76 -118
64 -49 17 -48 1347 -47 683 0 1242 -1 1242 -3 0 -1 -7 -13 -15 -26 -14 -21
-46 -124 -59 -186 -2 -14 -19 -83 -36 -155 -18 -72 -34 -139 -37 -150 -36
-151 30 -251 167 -254 30 0 77 -1 104 -1 26 -1 50 1 53 3 2 3 19 1 38 -3 19
-4 36 -6 39 -3 7 7 255 5 266 -2 6 -4 10 -2 10 3 0 6 14 7 33 3 17 -4 48 -4
67 -1 19 3 49 3 67 -1 18 -4 34 -5 37 -2 7 7 255 5 266 -2 6 -4 10 -2 10 3 0
6 14 7 33 3 17 -4 48 -4 67 -1 19 3 49 3 67 -1 18 -4 34 -5 37 -2 7 7 255 5
266 -2 6 -4 10 -2 10 3 0 6 14 7 34 2 19 -4 37 -6 40 -3 2 2 30 4 63 4 105 0
166 28 199 91 17 33 25 116 13 133 -4 6 -12 33 -17 60 -6 28 -13 59 -15 70 -3
11 -10 40 -17 65 -6 25 -13 54 -15 65 -12 71 -58 233 -72 254 -9 14 -16 28
-15 31 1 3 523 6 1159 6 637 1 1174 5 1193 8 51 10 111 55 140 106 l25 45 0
1863 c1 1291 -2 1862 -10 1861 -5 0 -23 -5 -40 -10z"/>
</g>
</svg>
