<svg version="1" xmlns="http://www.w3.org/2000/svg" width="400" height="400" viewBox="0 0 300.000000 300.000000"><path d="M175.3 38.3c-23.5 20.3-40.5 50.9-49.4 88.7-1.5 6.3-1.5 6.5-1.8 10.5-.2 2.4-.6 1.7-1.7-3-2.2-9.4-2-9.2-6-5.4-14.6 13.9-24 42.1-22.5 67.6.1 1.8 1.2 2.6 5.7 3.9 4.7 1.3 5.8 1.4 7 .3 2.2-2.4 10.2-19.1 12.1-25.6 1-3.5 2-6.3 2.3-6.3.3 0 .4 6.3.3 13.9l-.2 14 3.2 1c5.1 1.6 25.6 7.1 26.7 7.1 1.2 0 5.1-6 11.3-17.5 2.6-5 4.5-7.7 4.2-6-2.8 12.9-3.5 17.3-3.8 25.3-.2 5-.1 9.5.2 10 .3.4 3.1 1.5 6.2 2.4l5.6 1.6 2.5-4.3C186 202 191.9 183 192.3 168c.1-6.7-1.3-18.1-2.7-21.4l-1.2-2.9-4.8 5.4c-2.7 3-4.5 4.5-4.1 3.4 3.8-10.6 7.8-25.4 9.9-37 2.1-11.4 2.7-34.7 1.3-48.2-.9-8.3-4.9-24.6-7.4-30.4l-1.8-4-6.2 5.4zm-1 46.3c6.3 6.3 2.9 16.3-5.9 18-10.6 2-18.6-10.9-11.3-18.2 4.9-4.9 12.2-4.8 17.2.2z"/><path d="M25.4 157.6c-.8 1.8-1.4 3.8-1.4 4.4 0 .6-3.1 12.6-7 26.8-3.8 14.1-7 26.4-7 27.3 0 .9.7 2.2 1.5 2.9 1.3 1.1 80.8 23 84.3 23.2 1.8.2 1.7.3-3.7 9.9-7 12.2-7 13.1-.3 15.2 2.6.9 11 3.2 18.7 5.2 7.7 2.1 19.6 5.3 26.5 7.1 6.9 1.9 13.3 3.4 14.2 3.4 2.7 0 3.4-2.7 3.7-14 .1-5.7.3-10.5.4-10.6.1-.1 7.2 1.8 15.7 4.1 61.5 16.8 64.3 17.5 66.3 16.4 1.3-.8 3.7-7.2 5.2-13.9.4-1.5 1.1-4 5.5-20.5 1.2-4.4 2.3-8.7 2.5-9.5.2-.8 3.6-13.4 7.5-28 4-14.6 7.4-27.2 7.5-28 .2-.8 1.5-5.8 2.9-11s2.6-9.5 2.6-9.6h-12.7l-12.6.1-4.3 16.5c-2.4 9.1-4.6 17.4-4.8 18.5-.3 1.1-2.3 9-4.5 17.5-2.3 8.5-5.6 21.1-7.4 27.9-2.4 9.5-3.7 12.6-5.2 13.3-1.5.6-11.1-1.5-36-8.1-18.7-5-35.3-9.5-37-10-1.6-.5-8.6-2.3-15.5-4.1-6.9-1.8-25.5-6.7-41.5-11-15.9-4.3-33-8.8-38-10-9.3-2.4-12.5-4.2-12.5-6.9 0-.9 2.9-11.7 6.4-24.1 3.5-12.4 6.3-22.6 6.2-22.8-.2-.1-5.8-.4-12.5-.6l-12.3-.3-1.4 3.3z"/></svg>